Topmarks-Book-Condensed.ufo
<glyph name="quotedbl" format="1">
  <advance width="720"/>
  <unicode hex="0022"/>
  <outline>
    <contour>
      <point x="150" y="994" type="line"/>
      <point x="114" y="1456" type="line"/>
      <point x="281" y="1456" type="line"/>
      <point x="281" y="994" type="line"/>
    </contour>
    <contour>
      <point x="439" y="994" type="line"/>
      <point x="403" y="1456" type="line"/>
      <point x="569" y="1456" type="line"/>
      <point x="569" y="994" type="line"/>
    </contour>
  </outline>
</glyph>
<glyph name="numbersign" format="1">
  <advance width="1221"/>
  <unicode hex="0023"/>
  <outline>
    <contour>
      <point x="221" y="60" type="line"/>
      <point x="304.75" y="485" type="line"/>
      <point x="53" y="485" type="line"/>
      <point x="64" y="611" type="line"/>
      <point x="327.79" y="611" type="line"/>
      <point x="343.15" y="705"/>
      <point x="359.47" y="793"/>
      <point x="375.79" y="886" type="curve"/>
      <point x="118" y="886" type="line"/>
      <point x="131" y="1010" type="line"/>
      <point x="396.91" y="1010" type="line"/>
      <point x="472.75" y="1420" type="line"/>
      <point x="612.91" y="1420" type="line"/>
      <point x="538.99" y="1010" type="line"/>
      <point x="789.55" y="1010" type="line"/>
      <point x="862.51" y="1420" type="line"/>
      <point x="1005.98" y="1420" type="line"/>
      <point x="927.981" y="1010" type="line"/>
      <point x="1168.98" y="1010" type="line"/>
      <point x="1154.98" y="886" type="line"/>
      <point x="905.71" y="886" type="line"/>
      <point x="856.75" y="611" type="line"/>
      <point x="1105.98" y="611" type="line"/>
      <point x="1091.98" y="485" type="line"/>
      <point x="835.63" y="485" type="line"/>
      <point x="755.95" y="60" type="line"/>
      <point x="616.75" y="60" type="line"/>
      <point x="693.55" y="485" type="line"/>
      <point x="442.99" y="485" type="line"/>
      <point x="364.27" y="60" type="line"/>
    </contour>
    <contour>
      <point x="464.11" y="611" type="line"/>
      <point x="717.55" y="611" type="line"/>
      <point x="766.51" y="886" type="line"/>
      <point x="515.95" y="886" type="line"/>
    </contour>
  </outline>
</glyph>
<glyph name="dollar" format="1">
  <advance width="1228"/>
  <unicode hex="0024"/>
  <outline>
    <contour>
      <point x="545.87" y="-172" type="line"/>
      <point x="663.95" y="-172" type="line"/>
      <point x="661.07" y="-11" type="line"/>
      <point x="715.79" y="-6"/>
      <point x="768.59" y="5"/>
      <point x="817.55" y="24" type="curve" smooth="yes"/>
      <point x="952.27" y="74"/>
      <point x="1075.27" y="177"/>
      <point x="1075.27" y="361" type="curve" smooth="yes"/>
      <point x="1075.27" y="477"/>
      <point x="1033.27" y="547"/>
      <point x="967.27" y="604" type="curve" smooth="yes"/>
      <point x="883.79" y="677"/>
      <point x="779.15" y="722"/>
      <point x="661.07" y="770" type="curve"/>
      <point x="662.99" y="1299" type="line"/>
      <point x="781.07" y="1295"/>
      <point x="874.19" y="1261"/>
      <point x="943.27" y="1198" type="curve"/>
      <point x="992.27" y="1326" type="line"/>
      <point x="912.27" y="1394"/>
      <point x="797.39" y="1436"/>
      <point x="662.03" y="1439" type="curve"/>
      <point x="659.15" y="1575" type="line"/>
      <point x="540.11" y="1575" type="line"/>
      <point x="543.95" y="1437" type="line"/>
      <point x="435.47" y="1428"/>
      <point x="341" y="1377"/>
      <point x="275" y="1315" type="curve" smooth="yes"/>
      <point x="211" y="1254"/>
      <point x="153" y="1164"/>
      <point x="153" y="1047" type="curve" smooth="yes"/>
      <point x="153" y="991"/>
      <point x="164" y="944"/>
      <point x="185" y="904" type="curve" smooth="yes"/>
      <point x="256" y="772"/>
      <point x="405.71" y="712"/>
      <point x="543.95" y="648" type="curve"/>
      <point x="541.07" y="127" type="line"/>
      <point x="435.47" y="132"/>
      <point x="341" y="173"/>
      <point x="267" y="223" type="curve"/>
      <point x="218" y="89" type="line"/>
      <point x="307" y="25"/>
      <point x="408.59" y="-13"/>
      <point x="542.03" y="-16" type="curve"/>
    </contour>
    <contour>
      <point x="659.15" y="131" type="curve"/>
      <point x="662.99" y="605" type="line"/>
      <point x="765.71" y="559"/>
      <point x="896.27" y="507"/>
      <point x="896.27" y="358" type="curve" smooth="yes"/>
      <point x="896.27" y="325"/>
      <point x="889.55" y="296"/>
      <point x="877.07" y="270" type="curve" smooth="yes"/>
      <point x="838.67" y="192"/>
      <point x="758.99" y="145"/>
    </contour>
    <contour>
      <point x="542.03" y="818" type="line"/>
      <point x="439.31" y="858"/>
      <point x="342" y="913"/>
      <point x="342" y="1059" type="curve" smooth="yes"/>
      <point x="342" y="1193"/>
      <point x="428.75" y="1278"/>
      <point x="543.95" y="1293" type="curve"/>
    </contour>
  </outline>
</glyph>
<glyph name="percent" format="1">
  <advance width="1968"/>
  <unicode hex="0025"/>
  <outline>
    <contour>
      <point x="520" y="686" type="curve" smooth="yes"/>
      <point x="575" y="686"/>
      <point x="624" y="696"/>
      <point x="668" y="716" type="curve" smooth="yes"/>
      <point x="791" y="772"/>
      <point x="877" y="892"/>
      <point x="877" y="1068" type="curve" smooth="yes"/>
      <point x="877" y="1294"/>
      <point x="753" y="1447"/>
      <point x="526" y="1447" type="curve" smooth="yes"/>
      <point x="471" y="1447"/>
      <point x="421" y="1438"/>
      <point x="377" y="1418" type="curve" smooth="yes"/>
      <point x="253" y="1363"/>
      <point x="168" y="1240"/>
      <point x="168" y="1064" type="curve" smooth="yes"/>
      <point x="168" y="1011"/>
      <point x="176" y="961"/>
      <point x="192" y="915" type="curve" smooth="yes"/>
      <point x="237" y="783"/>
      <point x="344" y="686"/>
    </contour>
    <contour>
      <point x="1440.68" y="-27" type="curve" smooth="yes"/>
      <point x="1493.48" y="-27"/>
      <point x="1540.52" y="-17"/>
      <point x="1582.76" y="3" type="curve" smooth="yes"/>
      <point x="1703.16" y="59"/>
      <point x="1789.16" y="180"/>
      <point x="1789.16" y="356" type="curve" smooth="yes"/>
      <point x="1789.16" y="582"/>
      <point x="1665.16" y="735"/>
      <point x="1446.44" y="735" type="curve" smooth="yes"/>
      <point x="1393.64" y="735"/>
      <point x="1345.64" y="725"/>
      <point x="1303.4" y="705" type="curve" smooth="yes"/>
      <point x="1182" y="649"/>
      <point x="1097" y="528"/>
      <point x="1097" y="351" type="curve" smooth="yes"/>
      <point x="1097" y="298"/>
      <point x="1105" y="248"/>
      <point x="1121" y="202" type="curve" smooth="yes"/>
      <point x="1167" y="70"/>
      <point x="1271.72" y="-27"/>
    </contour>
    <contour>
      <point x="524" y="799" type="curve" smooth="yes"/>
      <point x="376" y="799"/>
      <point x="312" y="917"/>
      <point x="312" y="1065" type="curve" smooth="yes"/>
      <point x="312" y="1212"/>
      <point x="377" y="1335"/>
      <point x="525" y="1335" type="curve" smooth="yes"/>
      <point x="560" y="1335"/>
      <point x="592" y="1328"/>
      <point x="618" y="1314" type="curve" smooth="yes"/>
      <point x="695" y="1273"/>
      <point x="734" y="1186"/>
      <point x="734" y="1069" type="curve" smooth="yes"/>
      <point x="734" y="923"/>
      <point x="670" y="799"/>
    </contour>
    <contour>
      <point x="1443.56" y="86" type="curve" smooth="yes"/>
      <point x="1409" y="86"/>
      <point x="1378.28" y="93"/>
      <point x="1353.32" y="107" type="curve" smooth="yes"/>
      <point x="1279.4" y="148"/>
      <point x="1241" y="234"/>
      <point x="1241" y="350" type="curve" smooth="yes"/>
      <point x="1241" y="497"/>
      <point x="1303.4" y="622"/>
      <point x="1445.48" y="622" type="curve" smooth="yes"/>
      <point x="1585.64" y="622"/>
      <point x="1645.16" y="504"/>
      <point x="1645.16" y="357" type="curve" smooth="yes"/>
      <point x="1645.16" y="211"/>
      <point x="1584.68" y="86"/>
    </contour>
    <contour>
      <point x="440" y="-5" type="line"/>
      <point x="594" y="-5" type="line"/>
      <point x="1488.68" y="1436" type="line"/>
      <point x="1339.88" y="1436" type="line"/>
    </contour>
  </outline>
</glyph>
<glyph name="ampersand" format="1">
  <advance width="1606"/>
  <unicode hex="0026"/>
  <outline>
    <contour>
      <point x="646.36" y="-27" type="curve" smooth="yes"/>
      <point x="870.04" y="-27"/>
      <point x="1016.92" y="70"/>
      <point x="1131.16" y="186" type="curve"/>
      <point x="1217.56" y="100"/>
      <point x="1297.96" y="10"/>
      <point x="1445.96" y="-12" type="curve"/>
      <point x="1577.96" y="86" type="line"/>
      <point x="1535.96" y="95"/>
      <point x="1498.96" y="104"/>
      <point x="1467.96" y="114" type="curve" smooth="yes"/>
      <point x="1358.96" y="150"/>
      <point x="1293.96" y="208"/>
      <point x="1221.4" y="284" type="curve"/>
      <point x="1330.96" y="427"/>
      <point x="1413.96" y="625"/>
      <point x="1422.96" y="863" type="curve"/>
      <point x="1255.96" y="884" type="line"/>
      <point x="1255.96" y="842"/>
      <point x="1252.12" y="800"/>
      <point x="1245.4" y="756" type="curve" smooth="yes"/>
      <point x="1223.32" y="618"/>
      <point x="1174.36" y="493"/>
      <point x="1110.04" y="398" type="curve"/>
      <point x="711.64" y="822" type="line"/>
      <point x="786.52" y="864"/>
      <point x="861.4" y="915"/>
      <point x="916.12" y="977" type="curve" smooth="yes"/>
      <point x="962.2" y="1029"/>
      <point x="1006.36" y="1096"/>
      <point x="1006.36" y="1188" type="curve" smooth="yes"/>
      <point x="1006.36" y="1237"/>
      <point x="996.76" y="1278"/>
      <point x="975.64" y="1314" type="curve" smooth="yes"/>
      <point x="917.08" y="1414"/>
      <point x="799" y="1473"/>
      <point x="646.36" y="1473" type="curve" smooth="yes"/>
      <point x="455.32" y="1473"/>
      <point x="298.84" y="1381"/>
      <point x="298.84" y="1182" type="curve" smooth="yes"/>
      <point x="298.84" y="1147"/>
      <point x="303.64" y="1115"/>
      <point x="314.2" y="1086" type="curve" smooth="yes"/>
      <point x="348.76" y="988"/>
      <point x="419.8" y="921"/>
      <point x="486.04" y="852" type="curve"/>
      <point x="395.8" y="802"/>
      <point x="303.64" y="744"/>
      <point x="233" y="672" type="curve" smooth="yes"/>
      <point x="169" y="607"/>
      <point x="115" y="523"/>
      <point x="115" y="402" type="curve" smooth="yes"/>
      <point x="115" y="334"/>
      <point x="128" y="273"/>
      <point x="156" y="220" type="curve" smooth="yes"/>
      <point x="239" y="62"/>
      <point x="415.96" y="-27"/>
    </contour>
    <contour>
      <point x="643.48" y="116" type="curve" smooth="yes"/>
      <point x="592.6" y="116"/>
      <point x="545.56" y="123"/>
      <point x="503.32" y="138" type="curve" smooth="yes"/>
      <point x="393.88" y="176"/>
      <point x="295" y="259"/>
      <point x="295" y="406" type="curve" smooth="yes"/>
      <point x="295" y="449"/>
      <point x="302.68" y="488"/>
      <point x="319" y="522" type="curve" smooth="yes"/>
      <point x="370.84" y="632"/>
      <point x="477.4" y="694"/>
      <point x="582.04" y="750" type="curve"/>
      <point x="801.88" y="523" type="line" smooth="yes"/>
      <point x="868.12" y="454"/>
      <point x="940.12" y="375"/>
      <point x="1004.44" y="311" type="curve" smooth="yes"/>
      <point x="1017.88" y="298"/>
      <point x="1025.56" y="291"/>
      <point x="1027.48" y="291" type="curve"/>
      <point x="934.36" y="197"/>
      <point x="825.88" y="116"/>
    </contour>
    <contour>
      <point x="611.8" y="918" type="curve"/>
      <point x="589.72" y="939"/>
      <point x="570.52" y="959"/>
      <point x="552.28" y="979" type="curve" smooth="yes"/>
      <point x="508.12" y="1028"/>
      <point x="464.92" y="1087"/>
      <point x="464.92" y="1178" type="curve" smooth="yes"/>
      <point x="464.92" y="1288"/>
      <point x="548.44" y="1340"/>
      <point x="654.04" y="1340" type="curve" smooth="yes"/>
      <point x="757.72" y="1340"/>
      <point x="842.2" y="1287"/>
      <point x="842.2" y="1178" type="curve" smooth="yes"/>
      <point x="842.2" y="1150"/>
      <point x="835.48" y="1124"/>
      <point x="822.04" y="1099" type="curve" smooth="yes"/>
      <point x="778.84" y="1017"/>
      <point x="693.4" y="963"/>
    </contour>
  </outline>
</glyph>
<glyph name="asterisk" format="1">
  <advance width="1240"/>
  <unicode hex="002A"/>
  <outline>
    <contour>
      <point x="780.461" y="742" type="line"/>
      <point x="626.47" y="1008" type="line"/>
      <point x="478" y="750" type="line"/>
      <point x="354" y="825" type="line"/>
      <point x="543.91" y="1063" type="line"/>
      <point x="272" y="1141" type="line"/>
      <point x="293" y="1276" type="line"/>
      <point x="574.63" y="1153" type="line"/>
      <point x="562.15" y="1253"/>
      <point x="547.75" y="1356"/>
      <point x="535.27" y="1456" type="curve"/>
      <point x="671.59" y="1456" type="line"/>
      <point x="671.59" y="1158" type="line"/>
      <point x="904.461" y="1279" type="line"/>
      <point x="968.461" y="1154" type="line"/>
      <point x="706.15" y="1066" type="line"/>
      <point x="906.461" y="815" type="line"/>
    </contour>
  </outline>
</glyph>
<glyph name="plus" format="1">
  <advance width="1233"/>
  <unicode hex="002B"/>
  <outline>
    <contour>
      <point x="540.71" y="202" type="line"/>
      <point x="540.71" y="675" type="line"/>
      <point x="120" y="675" type="line"/>
      <point x="120" y="814" type="line"/>
      <point x="543.71" y="814" type="line"/>
      <point x="543.71" y="1282" type="line"/>
      <point x="691.63" y="1282" type="line"/>
      <point x="691.63" y="814" type="line"/>
      <point x="1113.3" y="814" type="line"/>
      <point x="1113.3" y="675" type="line"/>
      <point x="689.71" y="675" type="line"/>
      <point x="689.71" y="202" type="line"/>
    </contour>
  </outline>
</glyph>
<glyph name="hyphen" format="1">
  <advance width="1237"/>
  <unicode hex="002D"/>
  <outline>
    <contour>
      <point x="219" y="637" type="line"/>
      <point x="219" y="780" type="line"/>
      <point x="1018.18" y="780" type="line"/>
      <point x="1018.18" y="637" type="line"/>
    </contour>
  </outline>
</glyph>
<glyph name="period" format="1">
  <advance width="540"/>
  <unicode hex="002E"/>
  <outline>
    <contour>
      <point x="251" y="-16" type="curve" smooth="yes"/>
      <point x="182" y="-16"/>
      <point x="144" y="33"/>
      <point x="144" y="90" type="curve" smooth="yes"/>
      <point x="144" y="156"/>
      <point x="198" y="195"/>
      <point x="252" y="195" type="curve" smooth="yes"/>
      <point x="321" y="195"/>
      <point x="359" y="146"/>
      <point x="359" y="89" type="curve" smooth="yes"/>
      <point x="359" y="23"/>
      <point x="305" y="-16"/>
    </contour>
  </outline>
</glyph>
<glyph name="slash" format="1">
  <advance width="853"/>
  <unicode hex="002F"/>
  <outline>
    <contour>
      <point x="31" y="0" type="line"/>
      <point x="655.501" y="1456" type="line"/>
      <point x="822.501" y="1456" type="line"/>
      <point x="194" y="0" type="line"/>
    </contour>
  </outline>
</glyph>
<glyph name="zero" format="1">
  <advance width="1223"/>
  <unicode hex="0030"/>
  <outline>
    <contour>
      <point x="612" y="127" type="curve" smooth="yes"/>
      <point x="862.56" y="127"/>
      <point x="923.04" y="456"/>
      <point x="923.04" y="726" type="curve" smooth="yes"/>
      <point x="923.04" y="1012"/>
      <point x="883.68" y="1331"/>
      <point x="612" y="1331" type="curve" smooth="yes"/>
      <point x="356.64" y="1331"/>
      <point x="300" y="1000"/>
      <point x="300" y="726" type="curve" smooth="yes"/>
      <point x="300" y="439"/>
      <point x="339.36" y="127"/>
    </contour>
    <contour>
      <point x="607.2" y="-25" type="curve" smooth="yes"/>
      <point x="232" y="-25"/>
      <point x="116" y="335"/>
      <point x="116" y="726" type="curve" smooth="yes"/>
      <point x="116" y="1119"/>
      <point x="240" y="1483"/>
      <point x="612" y="1483" type="curve" smooth="yes"/>
      <point x="1004.04" y="1483"/>
      <point x="1107.04" y="1133"/>
      <point x="1107.04" y="726" type="curve" smooth="yes"/>
      <point x="1107.04" y="341"/>
      <point x="973.04" y="-25"/>
    </contour>
  </outline>
</glyph>
<glyph name="one" format="1">
  <advance width="1248"/>
  <unicode hex="0031"/>
  <outline>
    <contour>
      <point x="658" y="0" type="line"/>
      <point x="830" y="0" type="line"/>
      <point x="830" y="1456" type="line"/>
      <point x="665" y="1456" type="line"/>
      <point x="597" y="1405"/>
      <point x="475" y="1330"/>
      <point x="359" y="1277" type="curve"/>
      <point x="400" y="1146" type="line"/>
      <point x="506" y="1190"/>
      <point x="592" y="1238"/>
      <point x="658" y="1288" type="curve"/>
    </contour>
  </outline>
</glyph>
<glyph name="two" format="1">
  <advance width="1230"/>
  <unicode hex="0032"/>
  <outline>
    <contour>
      <point x="621.39" y="1483" type="curve" smooth="yes"/>
      <point x="861.181" y="1483"/>
      <point x="1061.18" y="1325"/>
      <point x="1061.18" y="1080" type="curve" smooth="yes"/>
      <point x="1061.18" y="808"/>
      <point x="802.83" y="590"/>
      <point x="658.83" y="442" type="curve" smooth="yes"/>
      <point x="560.91" y="341"/>
      <point x="451.47" y="239"/>
      <point x="352" y="145" type="curve"/>
      <point x="1064.18" y="145" type="line"/>
      <point x="1064.18" y="0" type="line"/>
      <point x="145" y="0" type="line"/>
      <point x="145" y="147" type="line"/>
      <point x="302" y="297"/>
      <point x="475.47" y="456"/>
      <point x="620.43" y="616" type="curve" smooth="yes"/>
      <point x="720.27" y="726"/>
      <point x="886.181" y="887"/>
      <point x="886.181" y="1073" type="curve" smooth="yes"/>
      <point x="886.181" y="1230"/>
      <point x="762.51" y="1331"/>
      <point x="610.83" y="1331" type="curve" smooth="yes"/>
      <point x="439.95" y="1331"/>
      <point x="332" y="1239"/>
      <point x="277" y="1113" type="curve"/>
      <point x="180" y="1210" type="line"/>
      <point x="242" y="1377"/>
      <point x="403.47" y="1483"/>
    </contour>
  </outline>
</glyph>
<glyph name="three" format="1">
  <advance width="1226"/>
  <unicode hex="0033"/>
  <outline>
    <contour>
      <point x="597.83" y="-22" type="curve" smooth="yes"/>
      <point x="397" y="-22"/>
      <point x="194" y="55"/>
      <point x="156" y="227" type="curve"/>
      <point x="241" y="330" type="line"/>
      <point x="290" y="202"/>
      <point x="410.63" y="120"/>
      <point x="578.63" y="120" type="curve" smooth="yes"/>
      <point x="761.03" y="120"/>
      <point x="910.79" y="214"/>
      <point x="910.79" y="402" type="curve" smooth="yes"/>
      <point x="910.79" y="628"/>
      <point x="733.19" y="693"/>
      <point x="513.35" y="686" type="curve"/>
      <point x="437.51" y="684" type="line"/>
      <point x="435.59" y="831" type="line"/>
      <point x="497.99" y="831" type="line" smooth="yes"/>
      <point x="712.07" y="831"/>
      <point x="866.63" y="888"/>
      <point x="866.63" y="1109" type="curve" smooth="yes"/>
      <point x="866.63" y="1271"/>
      <point x="750.47" y="1331"/>
      <point x="593.99" y="1331" type="curve" smooth="yes"/>
      <point x="436.55" y="1331"/>
      <point x="335" y="1264"/>
      <point x="269" y="1153" type="curve"/>
      <point x="169" y="1244" type="line"/>
      <point x="230" y="1395"/>
      <point x="398" y="1483"/>
      <point x="599.75" y="1483" type="curve" smooth="yes"/>
      <point x="838.79" y="1483"/>
      <point x="1052.79" y="1357"/>
      <point x="1052.79" y="1110" type="curve" smooth="yes"/>
      <point x="1052.79" y="909"/>
      <point x="920.79" y="807"/>
      <point x="767.75" y="762" type="curve"/>
      <point x="944.79" y="725"/>
      <point x="1092.79" y="617"/>
      <point x="1092.79" y="399" type="curve" smooth="yes"/>
      <point x="1092.79" y="116"/>
      <point x="870.47" y="-22"/>
    </contour>
  </outline>
</glyph>
<glyph name="four" format="1">
  <advance width="1232"/>
  <unicode hex="0034"/>
  <outline>
    <contour>
      <point x="762.59" y="0" type="line"/>
      <point x="762.59" y="351" type="line"/>
      <point x="147" y="351" type="line"/>
      <point x="147" y="475" type="line"/>
      <point x="728.03" y="1456" type="line"/>
      <point x="934.59" y="1456" type="line"/>
      <point x="934.59" y="483" type="line"/>
      <point x="1148.59" y="483" type="line"/>
      <point x="1148.59" y="351" type="line"/>
      <point x="934.59" y="351" type="line"/>
      <point x="934.59" y="0" type="line"/>
    </contour>
    <contour>
      <point x="318" y="483" type="line"/>
      <point x="762.59" y="483" type="line"/>
      <point x="762.59" y="1271" type="line"/>
      <point x="675.23" y="1110" type="line"/>
    </contour>
  </outline>
</glyph>
<glyph name="five" format="1">
  <advance width="1228"/>
  <unicode hex="0035"/>
  <outline>
    <contour>
      <point x="598.07" y="-22" type="curve" smooth="yes"/>
      <point x="414" y="-22"/>
      <point x="262" y="55"/>
      <point x="186" y="173" type="curve"/>
      <point x="267" y="289" type="line"/>
      <point x="334" y="190"/>
      <point x="452.15" y="120"/>
      <point x="596.15" y="120" type="curve" smooth="yes"/>
      <point x="809.27" y="120"/>
      <point x="910.07" y="270"/>
      <point x="910.07" y="452" type="curve" smooth="yes"/>
      <point x="910.07" y="647"/>
      <point x="806.39" y="758"/>
      <point x="633.59" y="758" type="curve" smooth="yes"/>
      <point x="539.51" y="758"/>
      <point x="456.95" y="718"/>
      <point x="418" y="658" type="curve"/>
      <point x="242" y="682" type="line"/>
      <point x="242" y="1456" type="line"/>
      <point x="974.07" y="1456" type="line"/>
      <point x="974.07" y="1311" type="line"/>
      <point x="405" y="1311" type="line"/>
      <point x="391" y="799" type="line"/>
      <point x="439.67" y="848"/>
      <point x="523.19" y="905"/>
      <point x="650.87" y="905" type="curve" smooth="yes"/>
      <point x="932.07" y="905"/>
      <point x="1087.07" y="703"/>
      <point x="1087.07" y="449" type="curve" smooth="yes"/>
      <point x="1087.07" y="164"/>
      <point x="882.23" y="-22"/>
    </contour>
  </outline>
</glyph>
<glyph name="six" format="1">
  <advance width="1225"/>
  <unicode hex="0036"/>
  <outline>
    <contour>
      <point x="648.998" y="-22" type="curve" smooth="yes"/>
      <point x="897.638" y="-22"/>
      <point x="1101.12" y="175"/>
      <point x="1101.12" y="464" type="curve" smooth="yes"/>
      <point x="1101.12" y="735"/>
      <point x="917.798" y="946"/>
      <point x="660.518" y="946" type="curve" smooth="yes"/>
      <point x="554.918" y="946"/>
      <point x="381.007" y="890"/>
      <point x="316.007" y="768" type="curve"/>
      <point x="367.007" y="1072"/>
      <point x="566.438" y="1304"/>
      <point x="903.398" y="1351" type="curve"/>
      <point x="868.838" y="1484" type="line"/>
      <point x="277.007" y="1391"/>
      <point x="114.007" y="890"/>
      <point x="142.007" y="501" type="curve" smooth="yes"/>
      <point x="161.007" y="240"/>
      <point x="305.007" y="-22"/>
    </contour>
    <contour>
      <point x="647.078" y="120" type="curve" smooth="yes"/>
      <point x="431.078" y="120"/>
      <point x="309.007" y="292"/>
      <point x="309.007" y="469" type="curve" smooth="yes"/>
      <point x="309.007" y="660"/>
      <point x="446.438" y="810"/>
      <point x="631.718" y="810" type="curve" smooth="yes"/>
      <point x="837.158" y="810"/>
      <point x="934.118" y="652"/>
      <point x="934.118" y="459" type="curve" smooth="yes"/>
      <point x="934.118" y="254"/>
      <point x="823.718" y="120"/>
    </contour>
  </outline>
</glyph>
<glyph name="seven" format="1">
  <advance width="1234"/>
  <unicode hex="0037"/>
  <outline>
    <contour>
      <point x="351" y="0" type="line"/>
      <point x="917.39" y="1311" type="line"/>
      <point x="153" y="1311" type="line"/>
      <point x="153" y="1456" type="line"/>
      <point x="1109.39" y="1456" type="line"/>
      <point x="1109.39" y="1365" type="line"/>
      <point x="537" y="0" type="line"/>
    </contour>
  </outline>
</glyph>
<glyph name="eight" format="1">
  <advance width="1222"/>
  <unicode hex="0038"/>
  <outline>
    <contour>
      <point x="611.32" y="-22" type="curve" smooth="yes"/>
      <point x="335.8" y="-22"/>
      <point x="130" y="133"/>
      <point x="130" y="377" type="curve" smooth="yes"/>
      <point x="130" y="590"/>
      <point x="267" y="714"/>
      <point x="440.44" y="767" type="curve"/>
      <point x="288" y="816"/>
      <point x="165" y="928"/>
      <point x="165" y="1121" type="curve" smooth="yes"/>
      <point x="165" y="1381"/>
      <point x="385.72" y="1483"/>
      <point x="611.32" y="1483" type="curve" smooth="yes"/>
      <point x="870.52" y="1483"/>
      <point x="1057.64" y="1345"/>
      <point x="1057.64" y="1121" type="curve" smooth="yes"/>
      <point x="1057.64" y="928"/>
      <point x="934.64" y="816"/>
      <point x="782.2" y="767" type="curve"/>
      <point x="955.64" y="714"/>
      <point x="1092.64" y="590"/>
      <point x="1092.64" y="377" type="curve" smooth="yes"/>
      <point x="1092.64" y="101"/>
      <point x="876.28" y="-22"/>
    </contour>
    <contour>
      <point x="611.32" y="120" type="curve" smooth="yes"/>
      <point x="793.72" y="120"/>
      <point x="915.64" y="219"/>
      <point x="915.64" y="390" type="curve" smooth="yes"/>
      <point x="915.64" y="577"/>
      <point x="762.04" y="661"/>
      <point x="611.32" y="693" type="curve"/>
      <point x="448.12" y="659"/>
      <point x="307" y="563"/>
      <point x="307" y="390" type="curve" smooth="yes"/>
      <point x="307" y="211"/>
      <point x="438.52" y="120"/>
    </contour>
    <contour>
      <point x="611.32" y="840" type="curve"/>
      <point x="762.04" y="869"/>
      <point x="886.84" y="947"/>
      <point x="886.84" y="1116" type="curve" smooth="yes"/>
      <point x="886.84" y="1272"/>
      <point x="761.08" y="1347"/>
      <point x="611.32" y="1347" type="curve" smooth="yes"/>
      <point x="450.04" y="1347"/>
      <point x="335.8" y="1259"/>
      <point x="335.8" y="1116" type="curve" smooth="yes"/>
      <point x="335.8" y="947"/>
      <point x="460.6" y="869"/>
    </contour>
  </outline>
</glyph>
<glyph name="nine" format="1">
  <advance width="1226"/>
  <unicode hex="0039"/>
  <outline>
    <contour>
      <point x="527.43" y="-76" type="line"/>
      <point x="980.981" y="598" type="line" smooth="yes"/>
      <point x="1071.98" y="729"/>
      <point x="1119.98" y="865"/>
      <point x="1119.98" y="991" type="curve" smooth="yes"/>
      <point x="1119.98" y="1243"/>
      <point x="960.981" y="1483"/>
      <point x="616.71" y="1483" type="curve" smooth="yes"/>
      <point x="338" y="1483"/>
      <point x="124" y="1282"/>
      <point x="124" y="995" type="curve" smooth="yes"/>
      <point x="124" y="724"/>
      <point x="306" y="515"/>
      <point x="604.23" y="515" type="curve" smooth="yes"/>
      <point x="709.83" y="515"/>
      <point x="781.83" y="569"/>
      <point x="789.51" y="575" type="curve"/>
      <point x="396.87" y="0" type="line"/>
    </contour>
    <contour>
      <point x="623.43" y="651" type="curve" smooth="yes"/>
      <point x="379.59" y="651"/>
      <point x="296" y="821"/>
      <point x="296" y="994" type="curve" smooth="yes"/>
      <point x="296" y="1205"/>
      <point x="422.79" y="1334"/>
      <point x="628.23" y="1334" type="curve" smooth="yes"/>
      <point x="853.83" y="1334"/>
      <point x="952.981" y="1202"/>
      <point x="952.981" y="992" type="curve" smooth="yes"/>
      <point x="952.981" y="791"/>
      <point x="842.31" y="651"/>
    </contour>
  </outline>
</glyph>
<glyph name="semicolon" format="1">
  <advance width="540"/>
  <unicode hex="003B"/>
  <outline>
    <contour>
      <point x="100" y="-256" type="line"/>
      <point x="206" y="207" type="line"/>
      <point x="394" y="207" type="line"/>
      <point x="231" y="-256" type="line"/>
    </contour>
    <contour>
      <point x="159" y="816" type="line"/>
      <point x="159" y="1026" type="line"/>
      <point x="376" y="1026" type="line"/>
      <point x="376" y="816" type="line"/>
    </contour>
  </outline>
</glyph>
<glyph name="less" format="1">
  <advance width="1437"/>
  <unicode hex="003C"/>
  <outline>
    <contour>
      <point x="1202.34" y="48" type="line"/>
      <point x="219" y="508" type="line"/>
      <point x="219" y="595" type="line"/>
      <point x="1206.34" y="1067" type="line"/>
      <point x="1206.34" y="914" type="line"/>
      <point x="438" y="552" type="line"/>
      <point x="1202.34" y="200" type="line"/>
    </contour>
  </outline>
</glyph>
<glyph name="equal" format="1">
  <advance width="1232"/>
  <unicode hex="003D"/>
  <outline>
    <contour>
      <point x="179" y="809" type="line"/>
      <point x="179" y="947" type="line"/>
      <point x="1052.06" y="947" type="line"/>
      <point x="1052.06" y="809" type="line"/>
    </contour>
    <contour>
      <point x="180" y="403" type="line"/>
      <point x="180" y="540" type="line"/>
      <point x="1053.06" y="540" type="line"/>
      <point x="1053.06" y="403" type="line"/>
    </contour>
  </outline>
</glyph>
<glyph name="question" format="1">
  <advance width="1025"/>
  <unicode hex="003F"/>
  <outline>
    <contour>
      <point x="349" y="368" type="curve"/>
      <point x="474" y="368" type="line"/>
      <point x="474" y="678"/>
      <point x="885.11" y="760.205"/>
      <point x="885.11" y="1133" type="curve" smooth="yes"/>
      <point x="885.11" y="1338"/>
      <point x="734.11" y="1483"/>
      <point x="457" y="1483" type="curve" smooth="yes"/>
      <point x="351" y="1483"/>
      <point x="256" y="1452"/>
      <point x="176" y="1413" type="curve"/>
      <point x="176" y="1262" type="line"/>
      <point x="251.909" y="1304.78"/>
      <point x="360.358" y="1331.9"/>
      <point x="460.701" y="1330.39" type="curve" smooth="yes"/>
      <point x="594.593" y="1328.29"/>
      <point x="716.11" y="1271.31"/>
      <point x="716.11" y="1125" type="curve" smooth="yes"/>
      <point x="716.11" y="788.905"/>
      <point x="349" y="730"/>
    </contour>
    <contour>
      <point x="418" y="0" type="curve" smooth="yes"/>
      <point x="472" y="0"/>
      <point x="523.92" y="39"/>
      <point x="523.92" y="105" type="curve" smooth="yes"/>
      <point x="523.92" y="162"/>
      <point x="487.44" y="211"/>
      <point x="419" y="211" type="curve" smooth="yes"/>
      <point x="365" y="211"/>
      <point x="311" y="172"/>
      <point x="311" y="106" type="curve" smooth="yes"/>
      <point x="311" y="49"/>
      <point x="349" y="0"/>
    </contour>
  </outline>
</glyph>
<glyph name="at" format="1">
  <advance width="1849"/>
  <unicode hex="0040"/>
  <outline>
    <contour>
      <point x="948.84" y="-109" type="curve" smooth="yes"/>
      <point x="1201.32" y="-109"/>
      <point x="1401" y="-17"/>
      <point x="1523.88" y="122" type="curve"/>
      <point x="1447.08" y="192" type="line"/>
      <point x="1328.04" y="86"/>
      <point x="1162.92" y="12"/>
      <point x="953.64" y="12" type="curve" smooth="yes"/>
      <point x="567.32" y="12"/>
      <point x="284" y="281"/>
      <point x="284" y="677" type="curve" smooth="yes"/>
      <point x="284" y="1060"/>
      <point x="573.32" y="1357"/>
      <point x="947.88" y="1357" type="curve" smooth="yes"/>
      <point x="1290.6" y="1357"/>
      <point x="1563.24" y="1141"/>
      <point x="1563.24" y="796" type="curve" smooth="yes"/>
      <point x="1563.24" y="597"/>
      <point x="1448.04" y="350"/>
      <point x="1277.16" y="350" type="curve" smooth="yes"/>
      <point x="1219.56" y="350"/>
      <point x="1197.48" y="380"/>
      <point x="1197.48" y="436" type="curve" smooth="yes"/>
      <point x="1197.48" y="506"/>
      <point x="1250.28" y="711"/>
      <point x="1336.68" y="1107" type="curve"/>
      <point x="1196.52" y="1107" type="line"/>
      <point x="1179.24" y="1022" type="line"/>
      <point x="1141.8" y="1091"/>
      <point x="1061.16" y="1138"/>
      <point x="959.4" y="1138" type="curve" smooth="yes"/>
      <point x="717.48" y="1138"/>
      <point x="492.32" y="876"/>
      <point x="492.32" y="610" type="curve" smooth="yes"/>
      <point x="492.32" y="448"/>
      <point x="583.32" y="257"/>
      <point x="801.96" y="257" type="curve" smooth="yes"/>
      <point x="913.32" y="257"/>
      <point x="993" y="313"/>
      <point x="1048.68" y="384" type="curve"/>
      <point x="1066.92" y="276"/>
      <point x="1138.92" y="225"/>
      <point x="1257" y="225" type="curve" smooth="yes"/>
      <point x="1507.56" y="225"/>
      <point x="1716.24" y="507"/>
      <point x="1716.24" y="791" type="curve" smooth="yes"/>
      <point x="1716.24" y="1205"/>
      <point x="1366.44" y="1476"/>
      <point x="952.68" y="1476" type="curve" smooth="yes"/>
      <point x="502.32" y="1476"/>
      <point x="133" y="1143"/>
      <point x="133" y="679" type="curve" smooth="yes"/>
      <point x="133" y="216"/>
      <point x="490.4" y="-109"/>
    </contour>
    <contour>
      <point x="818.28" y="385" type="curve" smooth="yes"/>
      <point x="706.92" y="385"/>
      <point x="649.32" y="465"/>
      <point x="649.32" y="582" type="curve" smooth="yes"/>
      <point x="649.32" y="775"/>
      <point x="777.96" y="1007"/>
      <point x="961.32" y="1007" type="curve" smooth="yes"/>
      <point x="1072.68" y="1007"/>
      <point x="1115.88" y="936"/>
      <point x="1115.88" y="821" type="curve" smooth="yes"/>
      <point x="1115.88" y="622"/>
      <point x="997.8" y="385"/>
    </contour>
  </outline>
</glyph>
<glyph name="A" format="1">
  <advance width="1384"/>
  <unicode hex="0041"/>
  <outline>
    <contour>
      <point x="13" y="0" type="line"/>
      <point x="199" y="0" type="line"/>
      <point x="347.8" y="395" type="line"/>
      <point x="1024.6" y="395" type="line"/>
      <point x="1175.32" y="0" type="line"/>
      <point x="1366.32" y="0" type="line"/>
      <point x="777.88" y="1456" type="line"/>
      <point x="600.28" y="1456" type="line"/>
    </contour>
    <contour>
      <point x="399.64" y="531" type="line"/>
      <point x="585.88" y="1026" type="line"/>
      <point x="685.72" y="1298" type="line"/>
      <point x="783.64" y="1027" type="line"/>
      <point x="972.76" y="531" type="line"/>
    </contour>
  </outline>
</glyph>
<glyph name="B" format="1">
  <advance width="1270"/>
  <unicode hex="0042"/>
  <outline>
    <contour>
      <point x="174" y="0" type="line"/>
      <point x="174" y="1456" type="line"/>
      <point x="544.72" y="1456" type="line" smooth="yes"/>
      <point x="904.72" y="1456"/>
      <point x="1087.64" y="1357"/>
      <point x="1087.64" y="1105" type="curve" smooth="yes"/>
      <point x="1087.64" y="918"/>
      <point x="1012.64" y="823"/>
      <point x="854.8" y="769" type="curve"/>
      <point x="1050.64" y="730"/>
      <point x="1153.92" y="625"/>
      <point x="1153.92" y="403" type="curve" smooth="yes"/>
      <point x="1153.92" y="114"/>
      <point x="941.2" y="0"/>
      <point x="608.08" y="0" type="curve" smooth="yes"/>
    </contour>
    <contour>
      <point x="346" y="148" type="line"/>
      <point x="602.32" y="148" type="line" smooth="yes"/>
      <point x="859.6" y="148"/>
      <point x="971.92" y="221"/>
      <point x="971.92" y="406" type="curve" smooth="yes"/>
      <point x="971.92" y="602"/>
      <point x="854.8" y="684"/>
      <point x="558.16" y="684" type="curve" smooth="yes"/>
      <point x="346" y="684" type="line"/>
    </contour>
    <contour>
      <point x="346" y="825" type="line"/>
      <point x="529.36" y="825" type="line" smooth="yes"/>
      <point x="800.08" y="825"/>
      <point x="906.64" y="898"/>
      <point x="906.64" y="1077" type="curve" smooth="yes"/>
      <point x="906.64" y="1243"/>
      <point x="806.8" y="1308"/>
      <point x="544.72" y="1308" type="curve" smooth="yes"/>
      <point x="346" y="1308" type="line"/>
    </contour>
  </outline>
</glyph>
<glyph name="C" format="1">
  <advance width="1360"/>
  <unicode hex="0043"/>
  <outline>
    <contour>
      <point x="799.96" y="-22" type="curve" smooth="yes"/>
      <point x="405.4" y="-22"/>
      <point x="112" y="260"/>
      <point x="112" y="722" type="curve" smooth="yes"/>
      <point x="112" y="1161"/>
      <point x="390.04" y="1483"/>
      <point x="798.04" y="1483" type="curve" smooth="yes"/>
      <point x="992.92" y="1483"/>
      <point x="1132.51" y="1425"/>
      <point x="1250.51" y="1332" type="curve"/>
      <point x="1172.51" y="1210" type="line"/>
      <point x="1068.51" y="1288"/>
      <point x="944.92" y="1331"/>
      <point x="816.28" y="1331" type="curve" smooth="yes"/>
      <point x="481.24" y="1331"/>
      <point x="295" y="1058"/>
      <point x="295" y="722" type="curve" smooth="yes"/>
      <point x="295" y="370"/>
      <point x="486.04" y="130"/>
      <point x="806.68" y="130" type="curve" smooth="yes"/>
      <point x="964.12" y="130"/>
      <point x="1097.51" y="178"/>
      <point x="1212.51" y="271" type="curve"/>
      <point x="1272.51" y="129" type="line"/>
      <point x="1143.51" y="29"/>
      <point x="983.32" y="-22"/>
    </contour>
  </outline>
</glyph>
<glyph name="D" format="1">
  <advance width="1487"/>
  <unicode hex="0044"/>
  <outline>
    <contour>
      <point x="346" y="148" type="line"/>
      <point x="596.56" y="148" type="line" smooth="yes"/>
      <point x="966.16" y="148"/>
      <point x="1193.68" y="341"/>
      <point x="1193.68" y="721" type="curve" smooth="yes"/>
      <point x="1193.68" y="1170"/>
      <point x="935.44" y="1308"/>
      <point x="503.44" y="1308" type="curve" smooth="yes"/>
      <point x="346" y="1308" type="line"/>
    </contour>
    <contour>
      <point x="174" y="0" type="line"/>
      <point x="174" y="1456" type="line"/>
      <point x="483.28" y="1456" type="line" smooth="yes"/>
      <point x="1009.36" y="1456"/>
      <point x="1375.68" y="1273"/>
      <point x="1375.68" y="724" type="curve" smooth="yes"/>
      <point x="1375.68" y="241"/>
      <point x="1046.8" y="0"/>
      <point x="581.2" y="0" type="curve" smooth="yes"/>
    </contour>
  </outline>
</glyph>
<glyph name="E" format="1">
  <advance width="1167"/>
  <unicode hex="0045"/>
  <outline>
    <contour>
      <point x="174" y="0" type="line"/>
      <point x="174" y="1456" type="line"/>
      <point x="1021.03" y="1456" type="line"/>
      <point x="1021.03" y="1308" type="line"/>
      <point x="346" y="1308" type="line"/>
      <point x="346" y="820" type="line"/>
      <point x="983.03" y="820" type="line"/>
      <point x="983.03" y="672" type="line"/>
      <point x="346" y="672" type="line"/>
      <point x="346" y="148" type="line"/>
      <point x="1071.03" y="148" type="line"/>
      <point x="1071.03" y="0" type="line"/>
    </contour>
  </outline>
</glyph>
<glyph name="F" format="1">
  <advance width="1085"/>
  <unicode hex="0046"/>
  <outline>
    <contour>
      <point x="174" y="0" type="line"/>
      <point x="174" y="1456" type="line"/>
      <point x="999.99" y="1456" type="line"/>
      <point x="999.99" y="1308" type="line"/>
      <point x="346" y="1308" type="line"/>
      <point x="346" y="815" type="line"/>
      <point x="965.99" y="815" type="line"/>
      <point x="965.99" y="667" type="line"/>
      <point x="346" y="667" type="line"/>
      <point x="346" y="0" type="line"/>
    </contour>
  </outline>
</glyph>
<glyph name="G" format="1">
  <advance width="1476"/>
  <unicode hex="0047"/>
  <outline>
    <contour>
      <point x="822.8" y="-22" type="curve" smooth="yes"/>
      <point x="376.4" y="-22"/>
      <point x="112" y="239"/>
      <point x="112" y="701" type="curve" smooth="yes"/>
      <point x="112" y="1165"/>
      <point x="387.92" y="1483"/>
      <point x="833.36" y="1483" type="curve" smooth="yes"/>
      <point x="1035.92" y="1483"/>
      <point x="1171.56" y="1431"/>
      <point x="1287.56" y="1315" type="curve"/>
      <point x="1215.56" y="1198" type="line"/>
      <point x="1124.24" y="1286"/>
      <point x="994.64" y="1331"/>
      <point x="829.52" y="1331" type="curve" smooth="yes"/>
      <point x="486.8" y="1331"/>
      <point x="290" y="1069"/>
      <point x="290" y="714" type="curve" smooth="yes"/>
      <point x="290" y="344"/>
      <point x="480.08" y="130"/>
      <point x="836.24" y="130" type="curve" smooth="yes"/>
      <point x="952.4" y="130"/>
      <point x="1054.16" y="142"/>
      <point x="1140.56" y="178" type="curve"/>
      <point x="1140.56" y="608" type="line"/>
      <point x="794" y="608" type="line"/>
      <point x="794" y="757" type="line"/>
      <point x="1312.56" y="757" type="line"/>
      <point x="1312.56" y="81" type="line"/>
      <point x="1167.56" y="13"/>
      <point x="1013.84" y="-22"/>
    </contour>
  </outline>
</glyph>
<glyph name="H" format="1">
  <advance width="1461"/>
  <unicode hex="0048"/>
  <outline>
    <contour>
      <point x="174" y="0" type="line"/>
      <point x="174" y="1456" type="line"/>
      <point x="346" y="1456" type="line"/>
      <point x="346" y="822" type="line"/>
      <point x="1116.56" y="822" type="line"/>
      <point x="1116.56" y="1456" type="line"/>
      <point x="1287.56" y="1456" type="line"/>
      <point x="1287.56" y="0" type="line"/>
      <point x="1116.56" y="0" type="line"/>
      <point x="1116.56" y="674" type="line"/>
      <point x="346" y="674" type="line"/>
      <point x="346" y="0" type="line"/>
    </contour>
  </outline>
</glyph>
<glyph name="J" format="1">
  <advance width="1021"/>
  <unicode hex="004A"/>
  <outline>
    <contour>
      <point x="41" y="-114" type="line"/>
      <point x="143" y="-163"/>
      <point x="245" y="-189"/>
      <point x="336.91" y="-189" type="curve" smooth="yes"/>
      <point x="561.55" y="-189"/>
      <point x="743.15" y="-29"/>
      <point x="743.15" y="336" type="curve" smooth="yes"/>
      <point x="736.27" y="1314" type="line"/>
      <point x="1007.22" y="1314" type="line"/>
      <point x="1007.22" y="1456" type="line"/>
      <point x="164" y="1456" type="line"/>
      <point x="164" y="1314" type="line"/>
      <point x="571.15" y="1314" type="line"/>
      <point x="571.15" y="334" type="line" smooth="yes"/>
      <point x="571.15" y="76"/>
      <point x="479.95" y="-39"/>
      <point x="328.27" y="-39" type="curve" smooth="yes"/>
      <point x="262" y="-39"/>
      <point x="182" y="-18"/>
      <point x="93" y="22" type="curve"/>
    </contour>
  </outline>
</glyph>
<glyph name="K" format="1">
  <advance width="1218"/>
  <unicode hex="004B"/>
  <outline>
    <contour>
      <point x="174" y="0" type="line"/>
      <point x="174" y="1456" type="line"/>
      <point x="346" y="1456" type="line"/>
      <point x="346" y="796" type="line"/>
      <point x="964.24" y="1456" type="line"/>
      <point x="1174.88" y="1456" type="line"/>
      <point x="523.6" y="764" type="line"/>
      <point x="1214.88" y="0" type="line"/>
      <point x="996.88" y="0" type="line"/>
      <point x="346" y="725" type="line"/>
      <point x="346" y="0" type="line"/>
    </contour>
  </outline>
</glyph>
<glyph name="M" format="1">
  <advance width="1893"/>
  <unicode hex="004D"/>
  <outline>
    <contour>
      <point x="174" y="0" type="line"/>
      <point x="174" y="1456" type="line"/>
      <point x="399.68" y="1456" type="line"/>
      <point x="865.28" y="579" type="line"/>
      <point x="947.84" y="420" type="line"/>
      <point x="1029.44" y="582" type="line"/>
      <point x="1507.52" y="1456" type="line"/>
      <point x="1719.68" y="1456" type="line"/>
      <point x="1719.68" y="0" type="line"/>
      <point x="1551.68" y="0" type="line"/>
      <point x="1551.68" y="1251" type="line"/>
      <point x="1476.8" y="1096" type="line"/>
      <point x="1006.4" y="220" type="line"/>
      <point x="885.44" y="220" type="line"/>
      <point x="411.2" y="1108" type="line"/>
      <point x="344" y="1268" type="line"/>
      <point x="344" y="0" type="line"/>
    </contour>
  </outline>
</glyph>
<glyph name="N" format="1">
  <advance width="1534"/>
  <unicode hex="004E"/>
  <outline>
    <contour>
      <point x="174" y="0" type="line"/>
      <point x="174" y="1456" type="line"/>
      <point x="378.64" y="1456" type="line"/>
      <point x="1114.96" y="342" type="line"/>
      <point x="1189.84" y="215" type="line"/>
      <point x="1189.84" y="1456" type="line"/>
      <point x="1360.84" y="1456" type="line"/>
      <point x="1360.84" y="0" type="line"/>
      <point x="1154.32" y="0" type="line"/>
      <point x="415.12" y="1113" type="line"/>
      <point x="346" y="1237" type="line"/>
      <point x="346" y="0" type="line"/>
    </contour>
  </outline>
</glyph>
<glyph name="O" format="1">
  <advance width="1618"/>
  <unicode hex="004F"/>
  <outline>
    <contour>
      <point x="808.64" y="127" type="curve" smooth="yes"/>
      <point x="1075.52" y="127"/>
      <point x="1322.13" y="330"/>
      <point x="1322.13" y="729" type="curve" smooth="yes"/>
      <point x="1322.13" y="1128"/>
      <point x="1075.52" y="1331"/>
      <point x="808.64" y="1331" type="curve" smooth="yes"/>
      <point x="541.76" y="1331"/>
      <point x="296" y="1128"/>
      <point x="296" y="729" type="curve" smooth="yes"/>
      <point x="296" y="330"/>
      <point x="541.76" y="127"/>
    </contour>
    <contour>
      <point x="808.64" y="-25" type="curve" smooth="yes"/>
      <point x="353.6" y="-25"/>
      <point x="112" y="336"/>
      <point x="112" y="728" type="curve" smooth="yes"/>
      <point x="112" y="1122"/>
      <point x="353.6" y="1483"/>
      <point x="808.64" y="1483" type="curve" smooth="yes"/>
      <point x="1263.68" y="1483"/>
      <point x="1506.13" y="1122"/>
      <point x="1506.13" y="728" type="curve" smooth="yes"/>
      <point x="1506.13" y="336"/>
      <point x="1263.68" y="-25"/>
    </contour>
  </outline>
</glyph>
<glyph name="P" format="1">
  <advance width="1213"/>
  <unicode hex="0050"/>
  <outline>
    <contour>
      <point x="174" y="0" type="line"/>
      <point x="174" y="1456" type="line"/>
      <point x="554.32" y="1456" type="line" smooth="yes"/>
      <point x="969.36" y="1456"/>
      <point x="1145.36" y="1316"/>
      <point x="1145.36" y="1020" type="curve" smooth="yes"/>
      <point x="1145.36" y="734"/>
      <point x="947.92" y="587"/>
      <point x="578.32" y="587" type="curve" smooth="yes"/>
      <point x="346" y="587" type="line"/>
      <point x="346" y="0" type="line"/>
    </contour>
    <contour>
      <point x="346" y="736" type="line"/>
      <point x="596.56" y="736" type="line" smooth="yes"/>
      <point x="837.52" y="736"/>
      <point x="961.36" y="832"/>
      <point x="961.36" y="1018" type="curve" smooth="yes"/>
      <point x="961.36" y="1215"/>
      <point x="856.72" y="1308"/>
      <point x="577.36" y="1308" type="curve" smooth="yes"/>
      <point x="346" y="1308" type="line"/>
    </contour>
  </outline>
</glyph>
<glyph name="Q" format="1">
  <advance width="1618"/>
  <unicode hex="0051"/>
  <outline>
    <component base="O"/>
    <contour>
      <point x="1216.92" y="-422" type="line"/>
      <point x="927" y="-13" type="line"/>
      <point x="1085.4" y="20" type="line"/>
      <point x="1335.19" y="-338" type="line"/>
    </contour>
  </outline>
</glyph>
<glyph name="R" format="1">
  <advance width="1291"/>
  <unicode hex="0052"/>
  <outline>
    <contour>
      <point x="174" y="0" type="line"/>
      <point x="174" y="1456" type="line"/>
      <point x="522.64" y="1456" type="line" smooth="yes"/>
      <point x="844.24" y="1456"/>
      <point x="1142.4" y="1410"/>
      <point x="1142.4" y="1074" type="curve" smooth="yes"/>
      <point x="1142.4" y="867"/>
      <point x="1022.4" y="719"/>
      <point x="751.12" y="665" type="curve"/>
      <point x="763.6" y="743" type="line"/>
      <point x="1227.12" y="0" type="line"/>
      <point x="1039.12" y="0" type="line"/>
      <point x="592.72" y="752" type="line"/>
      <point x="688.72" y="652" type="line"/>
      <point x="346" y="652" type="line"/>
      <point x="346" y="0" type="line"/>
    </contour>
    <contour>
      <point x="346" y="799" type="line"/>
      <point x="601.36" y="799" type="line" smooth="yes"/>
      <point x="790.48" y="799"/>
      <point x="960.4" y="859"/>
      <point x="960.4" y="1058" type="curve" smooth="yes"/>
      <point x="960.4" y="1261"/>
      <point x="806.8" y="1308"/>
      <point x="611.92" y="1308" type="curve" smooth="yes"/>
      <point x="346" y="1308" type="line"/>
    </contour>
  </outline>
</glyph>
<glyph name="S" format="1">
  <advance width="1219"/>
  <unicode hex="0053"/>
  <outline>
    <contour>
      <point x="628.16" y="-22" type="curve" smooth="yes"/>
      <point x="427.52" y="-22"/>
      <point x="236" y="61"/>
      <point x="140" y="130" type="curve"/>
      <point x="194" y="280" type="line"/>
      <point x="293" y="203"/>
      <point x="467.84" y="124"/>
      <point x="620.48" y="124" type="curve" smooth="yes"/>
      <point x="815.36" y="124"/>
      <point x="920.75" y="227"/>
      <point x="920.75" y="390" type="curve" smooth="yes"/>
      <point x="920.75" y="511"/>
      <point x="867.75" y="587"/>
      <point x="550.4" y="681" type="curve"/>
      <point x="252" y="770"/>
      <point x="134" y="884"/>
      <point x="136" y="1105" type="curve" smooth="yes"/>
      <point x="138" y="1346"/>
      <point x="347.84" y="1483"/>
      <point x="618.56" y="1483" type="curve" smooth="yes"/>
      <point x="801.92" y="1483"/>
      <point x="942.75" y="1425"/>
      <point x="1054.75" y="1348" type="curve"/>
      <point x="985.75" y="1217" type="line"/>
      <point x="898.75" y="1276"/>
      <point x="772.16" y="1334"/>
      <point x="639.68" y="1334" type="curve" smooth="yes"/>
      <point x="448.64" y="1334"/>
      <point x="322.88" y="1258"/>
      <point x="320" y="1114" type="curve" smooth="yes"/>
      <point x="316" y="968"/>
      <point x="379.52" y="905"/>
      <point x="656" y="821" type="curve" smooth="yes"/>
      <point x="1009.75" y="715"/>
      <point x="1099.75" y="589"/>
      <point x="1099.75" y="387" type="curve" smooth="yes"/>
      <point x="1099.75" y="142"/>
      <point x="922.75" y="-22"/>
    </contour>
  </outline>
</glyph>
<glyph name="T" format="1">
  <advance width="1143"/>
  <unicode hex="0054"/>
  <outline>
    <contour>
      <point x="484.07" y="0" type="line"/>
      <point x="484.07" y="1308" type="line"/>
      <point x="24" y="1308" type="line"/>
      <point x="24" y="1456" type="line"/>
      <point x="1119.02" y="1456" type="line"/>
      <point x="1119.02" y="1308" type="line"/>
      <point x="656.07" y="1308" type="line"/>
      <point x="656.07" y="0" type="line"/>
    </contour>
  </outline>
</glyph>
<glyph name="U" format="1">
  <advance width="1440"/>
  <unicode hex="0055"/>
  <outline>
    <contour>
      <point x="732.48" y="-22" type="curve" smooth="yes"/>
      <point x="363.84" y="-22"/>
      <point x="164" y="157"/>
      <point x="164" y="541" type="curve" smooth="yes"/>
      <point x="164" y="1456" type="line"/>
      <point x="336" y="1456" type="line"/>
      <point x="336" y="546" type="line" smooth="yes"/>
      <point x="336" y="260"/>
      <point x="469.44" y="123"/>
      <point x="730.56" y="123" type="curve" smooth="yes"/>
      <point x="972.48" y="123"/>
      <point x="1105.92" y="279"/>
      <point x="1105.92" y="539" type="curve" smooth="yes"/>
      <point x="1105.92" y="1456" type="line"/>
      <point x="1276.92" y="1456" type="line"/>
      <point x="1276.92" y="551" type="line"/>
      <point x="1274.92" y="191"/>
      <point x="1080" y="-22"/>
    </contour>
  </outline>
</glyph>
<glyph name="V" format="1">
  <advance width="1303"/>
  <unicode hex="0056"/>
  <outline>
    <contour>
      <point x="568.11" y="1" type="line"/>
      <point x="13" y="1456" type="line"/>
      <point x="201" y="1456" type="line"/>
      <point x="613.11" y="325" type="line"/>
      <point x="659.11" y="184" type="line"/>
      <point x="707.11" y="324" type="line"/>
      <point x="1108.22" y="1456" type="line"/>
      <point x="1291.22" y="1456" type="line"/>
      <point x="754.11" y="1" type="line"/>
    </contour>
  </outline>
</glyph>
<glyph name="W" format="1">
  <advance width="2063"/>
  <unicode hex="0057"/>
  <outline>
    <contour>
      <point x="441" y="1" type="line"/>
      <point x="18" y="1456" type="line"/>
      <point x="204" y="1456" type="line"/>
      <point x="514" y="349" type="line"/>
      <point x="552" y="189" type="line"/>
      <point x="602" y="349" type="line"/>
      <point x="951.6" y="1456" type="line"/>
      <point x="1125.36" y="1456" type="line"/>
      <point x="1472.48" y="345" type="line"/>
      <point x="1518.48" y="190" type="line"/>
      <point x="1560.48" y="349" type="line"/>
      <point x="1865.48" y="1456" type="line"/>
      <point x="2045.48" y="1456" type="line"/>
      <point x="1622.48" y="0" type="line"/>
      <point x="1410.48" y="0" type="line"/>
      <point x="1033.2" y="1247" type="line"/>
      <point x="654" y="1" type="line"/>
    </contour>
  </outline>
</glyph>
<glyph name="X" format="1">
  <advance width="1269"/>
  <unicode hex="0058"/>
  <outline>
    <contour>
      <point x="1049.24" y="0" type="line"/>
      <point x="630.68" y="623" type="line"/>
      <point x="215" y="0" type="line"/>
      <point x="11" y="0" type="line"/>
      <point x="534.68" y="741" type="line"/>
      <point x="50" y="1456" type="line"/>
      <point x="256.28" y="1456" type="line"/>
      <point x="644.12" y="854" type="line"/>
      <point x="1044.44" y="1456" type="line"/>
      <point x="1240.24" y="1456" type="line"/>
      <point x="742.04" y="742" type="line"/>
      <point x="1250.24" y="0" type="line"/>
    </contour>
  </outline>
</glyph>
<glyph name="Y" format="1">
  <advance width="1225"/>
  <unicode hex="0059"/>
  <outline>
    <contour>
      <point x="525.51" y="0" type="line"/>
      <point x="525.51" y="582" type="line"/>
      <point x="4" y="1456" type="line"/>
      <point x="195" y="1456" type="line"/>
      <point x="610.95" y="727" type="line"/>
      <point x="1030.74" y="1456" type="line"/>
      <point x="1221.74" y="1456" type="line"/>
      <point x="697.51" y="585" type="line"/>
      <point x="697.51" y="0" type="line"/>
    </contour>
  </outline>
</glyph>
<glyph name="Z" format="1">
  <advance width="1199"/>
  <unicode hex="005A"/>
  <outline>
    <contour>
      <point x="92" y="0" type="line"/>
      <point x="92" y="92" type="line"/>
      <point x="899.181" y="1308" type="line"/>
      <point x="124" y="1308" type="line"/>
      <point x="124" y="1456" type="line"/>
      <point x="1131.18" y="1456" type="line"/>
      <point x="1131.18" y="1368" type="line"/>
      <point x="320" y="148" type="line"/>
      <point x="1123.18" y="148" type="line"/>
      <point x="1123.18" y="0" type="line"/>
    </contour>
  </outline>
</glyph>
<glyph name="backslash" format="1">
  <advance width="693"/>
  <unicode hex="005C"/>
  <outline>
    <contour>
      <point x="581.501" y="-215" type="line"/>
      <point x="-47" y="1451" type="line"/>
      <point x="120" y="1451" type="line"/>
      <point x="744.501" y="-215" type="line"/>
    </contour>
  </outline>
</glyph>
<glyph name="asciicircum" format="1">
  <advance width="1433"/>
  <unicode hex="005E"/>
  <outline>
    <contour>
      <point x="184" y="550" type="line"/>
      <point x="655.59" y="1432" type="line"/>
      <point x="752.55" y="1432" type="line"/>
      <point x="1231.82" y="550" type="line"/>
      <point x="1076.82" y="550" type="line"/>
      <point x="702.63" y="1260" type="line"/>
      <point x="340" y="550" type="line"/>
    </contour>
  </outline>
</glyph>
<glyph name="a" format="1">
  <advance width="1190"/>
  <unicode hex="0061"/>
  <outline>
    <contour>
      <point x="506.16" y="-22" type="curve" smooth="yes"/>
      <point x="657.84" y="-22"/>
      <point x="801.84" y="53"/>
      <point x="868.04" y="166" type="curve"/>
      <point x="891.04" y="64"/>
      <point x="965.04" y="-4"/>
      <point x="1105.04" y="-4" type="curve"/>
      <point x="1134.04" y="131" type="line"/>
      <point x="1045.04" y="131"/>
      <point x="1009.04" y="182"/>
      <point x="1009.04" y="278" type="curve" smooth="yes"/>
      <point x="1009.04" y="962" type="line"/>
      <point x="929.04" y="1014"/>
      <point x="788.4" y="1048"/>
      <point x="659.76" y="1048" type="curve" smooth="yes"/>
      <point x="327.6" y="1048"/>
      <point x="100" y="804"/>
      <point x="100" y="438" type="curve" smooth="yes"/>
      <point x="100" y="162"/>
      <point x="266" y="-22"/>
    </contour>
    <contour>
      <point x="530.16" y="116" type="curve" smooth="yes"/>
      <point x="373.68" y="116"/>
      <point x="270" y="249"/>
      <point x="270" y="448" type="curve" smooth="yes"/>
      <point x="270" y="723"/>
      <point x="424.56" y="907"/>
      <point x="656.88" y="907" type="curve" smooth="yes"/>
      <point x="729.84" y="907"/>
      <point x="804.72" y="893"/>
      <point x="845.04" y="872" type="curve"/>
      <point x="845.04" y="453" type="line" smooth="yes"/>
      <point x="845.04" y="261"/>
      <point x="719.28" y="116"/>
    </contour>
  </outline>
</glyph>
<glyph name="b" format="1">
  <advance width="1185"/>
  <unicode hex="0062"/>
  <outline>
    <contour>
      <point x="600.2" y="-22" type="curve" smooth="yes"/>
      <point x="904.52" y="-22"/>
      <point x="1095.19" y="215"/>
      <point x="1095.19" y="545" type="curve" smooth="yes"/>
      <point x="1095.19" y="863"/>
      <point x="901.64" y="1045"/>
      <point x="688.52" y="1045" type="curve" smooth="yes"/>
      <point x="563.72" y="1045"/>
      <point x="429.32" y="984"/>
      <point x="317" y="851" type="curve"/>
      <point x="317" y="1525" type="line"/>
      <point x="152" y="1525" type="line"/>
      <point x="152" y="71" type="line"/>
      <point x="152" y="71"/>
      <point x="366.92" y="-22"/>
    </contour>
    <contour>
      <point x="603.08" y="116" type="curve" smooth="yes"/>
      <point x="455.24" y="116"/>
      <point x="317" y="156"/>
      <point x="317" y="156" type="curve"/>
      <point x="317" y="686" type="line"/>
      <point x="426.44" y="830"/>
      <point x="557.96" y="904"/>
      <point x="671.24" y="904" type="curve" smooth="yes"/>
      <point x="813.32" y="904"/>
      <point x="925.186" y="788"/>
      <point x="925.186" y="550" type="curve" smooth="yes"/>
      <point x="925.186" y="319"/>
      <point x="826.76" y="116"/>
    </contour>
  </outline>
</glyph>
<glyph name="c" format="1">
  <advance width="1056"/>
  <unicode hex="0063"/>
  <outline>
    <contour>
      <point x="619.316" y="-22.74" type="curve" smooth="yes"/>
      <point x="337.304" y="-22.74"/>
      <point x="100" y="176"/>
      <point x="100" y="509" type="curve" smooth="yes"/>
      <point x="100" y="850"/>
      <point x="346.8" y="1050"/>
      <point x="625.2" y="1050" type="curve" smooth="yes"/>
      <point x="746.637" y="1050"/>
      <point x="868.637" y="1012"/>
      <point x="958.637" y="924" type="curve"/>
      <point x="896.637" y="806" type="line"/>
      <point x="826.637" y="871"/>
      <point x="731.76" y="907"/>
      <point x="638.64" y="907" type="curve" smooth="yes"/>
      <point x="452.4" y="907"/>
      <point x="270" y="773"/>
      <point x="270" y="508" type="curve" smooth="yes"/>
      <point x="270" y="254"/>
      <point x="438" y="119"/>
      <point x="632.88" y="119" type="curve" smooth="yes"/>
      <point x="738.637" y="119"/>
      <point x="847.637" y="161"/>
      <point x="923.637" y="227" type="curve"/>
      <point x="980.47" y="102.477" type="line"/>
      <point x="877.517" y="20.2658"/>
      <point x="749.908" y="-22.74"/>
    </contour>
  </outline>
</glyph>
<glyph name="d" format="1">
  <advance width="1187"/>
  <unicode hex="0064"/>
  <outline>
    <contour>
      <point x="271" y="459" type="curve" smooth="yes"/>
      <point x="271" y="711"/>
      <point x="408.28" y="907"/>
      <point x="649.24" y="907" type="curve" smooth="yes"/>
      <point x="706.84" y="907"/>
      <point x="770.2" y="896"/>
      <point x="839.833" y="871" type="curve"/>
      <point x="839.833" y="494" type="line" smooth="yes"/>
      <point x="839.833" y="256"/>
      <point x="719.32" y="116"/>
      <point x="530.2" y="116" type="curve" smooth="yes"/>
      <point x="387.16" y="116"/>
      <point x="271" y="230"/>
    </contour>
    <contour>
      <point x="851.833" y="177" type="curve"/>
      <point x="855.833" y="111"/>
      <point x="891.833" y="32"/>
      <point x="929.833" y="-13" type="curve"/>
      <point x="1091.83" y="10" type="line"/>
      <point x="1046.83" y="76"/>
      <point x="1003.83" y="162"/>
      <point x="1003.83" y="390" type="curve" smooth="yes"/>
      <point x="1003.83" y="1526" type="line"/>
      <point x="838.833" y="1526" type="line"/>
      <point x="838.833" y="1014" type="line"/>
      <point x="774.04" y="1037"/>
      <point x="707.8" y="1048"/>
      <point x="642.52" y="1048" type="curve" smooth="yes"/>
      <point x="366.04" y="1048"/>
      <point x="100" y="855"/>
      <point x="100" y="460" type="curve" smooth="yes"/>
      <point x="100" y="145"/>
      <point x="277.72" y="-22"/>
      <point x="511.96" y="-22" type="curve" smooth="yes"/>
      <point x="658.84" y="-22"/>
      <point x="793.24" y="52"/>
    </contour>
  </outline>
</glyph>
<glyph name="e" format="1">
  <advance width="1069"/>
  <unicode hex="0065"/>
  <outline>
    <contour>
      <point x="282.88" y="490" type="curve"/>
      <point x="280.96" y="506"/>
      <point x="280" y="525"/>
      <point x="280" y="539" type="curve" smooth="yes"/>
      <point x="280" y="786"/>
      <point x="448" y="907"/>
      <point x="607.36" y="907" type="curve" smooth="yes"/>
      <point x="723.52" y="907"/>
      <point x="790.185" y="846"/>
      <point x="790.185" y="755" type="curve" smooth="yes"/>
      <point x="790.185" y="594"/>
      <point x="578.56" y="534"/>
    </contour>
    <contour>
      <point x="615.04" y="-22" type="curve" smooth="yes"/>
      <point x="746.56" y="-22"/>
      <point x="876.185" y="25"/>
      <point x="973.185" y="104" type="curve"/>
      <point x="901.185" y="218" type="line"/>
      <point x="831.185" y="161"/>
      <point x="725.44" y="116"/>
      <point x="615.04" y="116" type="curve" smooth="yes"/>
      <point x="472.96" y="116"/>
      <point x="332.8" y="219"/>
      <point x="294.4" y="371" type="curve"/>
      <point x="666.88" y="425"/>
      <point x="953.185" y="506"/>
      <point x="953.185" y="751" type="curve" smooth="yes"/>
      <point x="953.185" y="918"/>
      <point x="815.185" y="1048"/>
      <point x="606.4" y="1048" type="curve" smooth="yes"/>
      <point x="290.56" y="1048"/>
      <point x="100" y="797"/>
      <point x="100" y="516" type="curve" smooth="yes"/>
      <point x="100" y="187"/>
      <point x="323.2" y="-22"/>
    </contour>
  </outline>
</glyph>
<glyph name="f" format="1">
  <advance width="692"/>
  <unicode hex="0066"/>
  <outline>
    <contour>
      <point x="160" y="-404" type="line"/>
      <point x="390.11" y="-393"/>
      <point x="412.19" y="-215"/>
      <point x="412.19" y="-83" type="curve" smooth="yes"/>
      <point x="412.19" y="919" type="line"/>
      <point x="658.101" y="919" type="line"/>
      <point x="658.101" y="1026" type="line"/>
      <point x="412.19" y="1026" type="line"/>
      <point x="412.19" y="1196" type="line" smooth="yes"/>
      <point x="412.19" y="1393"/>
      <point x="529.101" y="1406"/>
      <point x="708.101" y="1406" type="curve"/>
      <point x="708.101" y="1526" type="line"/>
      <point x="654.101" y="1526" type="line" smooth="yes"/>
      <point x="391.07" y="1526"/>
      <point x="253" y="1447"/>
      <point x="253" y="1194" type="curve" smooth="yes"/>
      <point x="253" y="1026" type="line"/>
      <point x="51" y="1026" type="line"/>
      <point x="51" y="919" type="line"/>
      <point x="253" y="919" type="line"/>
      <point x="253" y="-76" type="line" smooth="yes"/>
      <point x="253" y="-227"/>
      <point x="226" y="-255"/>
      <point x="140" y="-269" type="curve"/>
    </contour>
  </outline>
</glyph>
<glyph name="g" format="1">
  <advance width="1161"/>
  <unicode hex="0067"/>
  <outline>
    <contour>
      <point x="524.4" y="-494" type="curve" smooth="yes"/>
      <point x="811.44" y="-494"/>
      <point x="1009.04" y="-306"/>
      <point x="1009.04" y="-23" type="curve" smooth="yes"/>
      <point x="1009.04" y="962" type="line"/>
      <point x="929.04" y="1014"/>
      <point x="788.4" y="1048"/>
      <point x="659.76" y="1048" type="curve" smooth="yes"/>
      <point x="327.6" y="1048"/>
      <point x="100" y="804"/>
      <point x="100" y="438" type="curve" smooth="yes"/>
      <point x="100" y="162"/>
      <point x="266" y="-22"/>
      <point x="506.16" y="-22" type="curve" smooth="yes"/>
      <point x="642.48" y="-22"/>
      <point x="773.04" y="39"/>
      <point x="845.04" y="133" type="curve"/>
      <point x="845.04" y="-44" type="line" smooth="yes"/>
      <point x="845.04" y="-232"/>
      <point x="711.6" y="-357"/>
      <point x="510.96" y="-357" type="curve" smooth="yes"/>
      <point x="425.52" y="-357"/>
      <point x="305.52" y="-326"/>
      <point x="215" y="-280" type="curve"/>
      <point x="199" y="-433" type="line"/>
      <point x="298.8" y="-470"/>
      <point x="427.44" y="-494"/>
    </contour>
    <contour>
      <point x="530.16" y="116" type="curve" smooth="yes"/>
      <point x="373.68" y="116"/>
      <point x="270" y="249"/>
      <point x="270" y="448" type="curve" smooth="yes"/>
      <point x="270" y="723"/>
      <point x="424.56" y="907"/>
      <point x="656.88" y="907" type="curve" smooth="yes"/>
      <point x="729.84" y="907"/>
      <point x="804.72" y="893"/>
      <point x="845.04" y="872" type="curve"/>
      <point x="845.04" y="453" type="line" smooth="yes"/>
      <point x="845.04" y="261"/>
      <point x="719.28" y="116"/>
    </contour>
  </outline>
</glyph>
<glyph name="h" format="1">
  <advance width="1200"/>
  <unicode hex="0068"/>
  <outline>
    <contour>
      <point x="1146" y="-20" type="line"/>
      <point x="1167" y="110" type="line"/>
      <point x="1143" y="110" type="line" smooth="yes"/>
      <point x="1040" y="110"/>
      <point x="1008" y="172"/>
      <point x="1008" y="320" type="curve" smooth="yes"/>
      <point x="1008" y="565" type="line" smooth="yes"/>
      <point x="1008" y="903"/>
      <point x="873" y="1048"/>
      <point x="649.12" y="1048" type="curve" smooth="yes"/>
      <point x="503.2" y="1048"/>
      <point x="378.4" y="970"/>
      <point x="316" y="845" type="curve"/>
      <point x="316" y="1526" type="line"/>
      <point x="152" y="1526" type="line"/>
      <point x="152" y="0" type="line"/>
      <point x="316" y="0" type="line"/>
      <point x="316" y="532" type="line" smooth="yes"/>
      <point x="316" y="778"/>
      <point x="479.2" y="907"/>
      <point x="625.12" y="907" type="curve" smooth="yes"/>
      <point x="772.96" y="907"/>
      <point x="844" y="804"/>
      <point x="844" y="562" type="curve" smooth="yes"/>
      <point x="844" y="294" type="line" smooth="yes"/>
      <point x="844" y="74"/>
      <point x="925" y="-20"/>
      <point x="1133" y="-20" type="curve" smooth="yes"/>
    </contour>
  </outline>
</glyph>
<glyph name="j" format="1">
  <advance width="539"/>
  <unicode hex="006A"/>
  <outline>
    <contour>
      <point x="11" y="-463" type="curve" smooth="yes"/>
      <point x="218" y="-463"/>
      <point x="371" y="-322"/>
      <point x="371" y="35" type="curve" smooth="yes"/>
      <point x="371" y="1026" type="line"/>
      <point x="207" y="1026" type="line"/>
      <point x="207" y="29" type="line" smooth="yes"/>
      <point x="207" y="-247"/>
      <point x="112" y="-332"/>
      <point x="-11" y="-332" type="curve" smooth="yes"/>
      <point x="-53" y="-332"/>
      <point x="-98" y="-322"/>
      <point x="-143" y="-307" type="curve"/>
      <point x="-162" y="-435" type="line"/>
      <point x="-102" y="-453"/>
      <point x="-44" y="-463"/>
    </contour>
    <contour>
      <point x="290" y="1245" type="curve" smooth="yes"/>
      <point x="344" y="1245"/>
      <point x="398" y="1278"/>
      <point x="398" y="1344" type="curve" smooth="yes"/>
      <point x="398" y="1410"/>
      <point x="345" y="1444"/>
      <point x="291" y="1444" type="curve" smooth="yes"/>
      <point x="237" y="1444"/>
      <point x="183" y="1411"/>
      <point x="183" y="1345" type="curve" smooth="yes"/>
      <point x="183" y="1279"/>
      <point x="236" y="1245"/>
    </contour>
  </outline>
</glyph>
<glyph name="k" format="1">
  <advance width="1089"/>
  <unicode hex="006B"/>
  <outline>
    <contour>
      <point x="1075.02" y="130" type="line"/>
      <point x="947.640238095" y="58.6673333333"/>
      <point x="876.099907894" y="180.778811382"/>
      <point x="799.27" y="294" type="curve" smooth="yes"/>
      <point x="646.63" y="524" type="line"/>
      <point x="963.021" y="976" type="line"/>
      <point x="814.63" y="1026" type="line"/>
      <point x="316" y="292" type="line"/>
      <point x="316" y="1526" type="line"/>
      <point x="152" y="1526" type="line"/>
      <point x="152" y="60" type="line" smooth="yes"/>
      <point x="152.0" y="-24.3888888889"/>
      <point x="242.153846154" y="-39.7692307692"/>
      <point x="297" y="27" type="curve"/>
      <point x="558.31" y="402" type="line"/>
      <point x="685.99" y="205" type="line" smooth="yes"/>
      <point x="793.718695652" y="38.5652173913"/>
      <point x="893.853333333" y="-72.6666666667"/>
      <point x="1063.02" y="-5" type="curve"/>
    </contour>
  </outline>
</glyph>
<glyph name="l" format="1">
  <advance width="686"/>
  <unicode hex="006C"/>
  <outline>
    <contour>
      <point x="695" y="152" type="line"/>
      <point x="631" y="125"/>
      <point x="566" y="108"/>
      <point x="509" y="108" type="curve" smooth="yes"/>
      <point x="408" y="108"/>
      <point x="332" y="159"/>
      <point x="332" y="292" type="curve" smooth="yes"/>
      <point x="332" y="1526" type="line"/>
      <point x="168" y="1526" type="line"/>
      <point x="168" y="300" type="line" smooth="yes"/>
      <point x="168" y="83"/>
      <point x="307" y="-18"/>
      <point x="484" y="-18" type="curve" smooth="yes"/>
      <point x="558" y="-18"/>
      <point x="640" y="0"/>
      <point x="720" y="35" type="curve"/>
    </contour>
  </outline>
</glyph>
<glyph name="m" format="1">
  <advance width="1936"/>
  <unicode hex="006D"/>
  <outline>
    <contour>
      <point x="1870.55" y="-20" type="curve"/>
      <point x="1891.55" y="110" type="line"/>
      <point x="1883.64659065" y="110.0"/>
      <point x="1876.13111776" y="110.23520557"/>
      <point x="1868.98484182" y="110.71051262" type="curve" smooth="yes"/>
      <point x="1746.83027879" y="118.835153403"/>
      <point x="1732.55" y="197.114153225"/>
      <point x="1732.55" y="370" type="curve" smooth="yes"/>
      <point x="1732.55" y="565" type="line" smooth="yes"/>
      <point x="1732.55" y="903"/>
      <point x="1602.55" y="1048"/>
      <point x="1377.6" y="1048" type="curve" smooth="yes"/>
      <point x="1240.32" y="1048"/>
      <point x="1090.56" y="984"/>
      <point x="1010.87" y="817" type="curve"/>
      <point x="960.871" y="973"/>
      <point x="867" y="1048"/>
      <point x="708.6" y="1048" type="curve" smooth="yes"/>
      <point x="552.12" y="1048"/>
      <point x="410.04" y="955"/>
      <point x="342" y="817" type="curve"/>
      <point x="332" y="883"/>
      <point x="283" y="966"/>
      <point x="237" y="999" type="curve"/>
      <point x="75" y="944" type="line"/>
      <point x="129" y="897"/>
      <point x="199" y="812"/>
      <point x="199" y="696" type="curve" smooth="yes"/>
      <point x="199" y="0" type="line"/>
      <point x="363" y="0" type="line"/>
      <point x="363" y="525" type="line" smooth="yes"/>
      <point x="363" y="764"/>
      <point x="517.56" y="907"/>
      <point x="675.96" y="907" type="curve" smooth="yes"/>
      <point x="823.8" y="907"/>
      <point x="880.871" y="804"/>
      <point x="880.871" y="562" type="curve" smooth="yes"/>
      <point x="880.44" y="0" type="line"/>
      <point x="1045.44" y="0" type="line"/>
      <point x="1045.44" y="532" type="line" smooth="yes"/>
      <point x="1045.44" y="795"/>
      <point x="1217.28" y="907"/>
      <point x="1363.2" y="907" type="curve" smooth="yes"/>
      <point x="1511.04" y="907"/>
      <point x="1568.55" y="804"/>
      <point x="1568.55" y="562" type="curve" smooth="yes"/>
      <point x="1568.55" y="324" type="line" smooth="yes"/>
      <point x="1568.55" y="95.729269743"/>
      <point x="1629.36207284" y="-12.7884555337"/>
      <point x="1847.8136593" y="-19.6517628913" type="curve" smooth="yes"/>
      <point x="1855.21045186" y="-19.8841551644"/>
      <point x="1862.78797911" y="-20.0"/>
    </contour>
  </outline>
</glyph>
<glyph name="n" format="1">
  <advance width="1262"/>
  <unicode hex="006E"/>
  <outline>
    <contour>
      <point x="1212.52" y="110" type="line"/>
      <point x="1186.52" y="110" type="line" smooth="yes"/>
      <point x="1081.52" y="110"/>
      <point x="1053.52" y="188"/>
      <point x="1053.52" y="357" type="curve" smooth="yes"/>
      <point x="1053.52" y="584" type="line" smooth="yes"/>
      <point x="1053.52" y="905"/>
      <point x="897.518" y="1049"/>
      <point x="701.88" y="1049" type="curve" smooth="yes"/>
      <point x="528.12" y="1049"/>
      <point x="404.333" y="949.38"/>
      <point x="342" y="817" type="curve"/>
      <point x="332" y="883"/>
      <point x="283" y="965"/>
      <point x="237" y="999" type="curve"/>
      <point x="75" y="944" type="line"/>
      <point x="123" y="904"/>
      <point x="199" y="815"/>
      <point x="199" y="699" type="curve" smooth="yes"/>
      <point x="199" y="0" type="line"/>
      <point x="363" y="0" type="line"/>
      <point x="363" y="518" type="line" smooth="yes"/>
      <point x="363" y="778"/>
      <point x="521.4" y="907"/>
      <point x="660.6" y="907" type="curve" smooth="yes"/>
      <point x="808.44" y="907"/>
      <point x="889.518" y="818"/>
      <point x="889.518" y="576" type="curve" smooth="yes"/>
      <point x="889.518" y="338" type="line" smooth="yes"/>
      <point x="889.518" y="112"/>
      <point x="943.518" y="-20"/>
      <point x="1165.52" y="-20" type="curve" smooth="yes"/>
      <point x="1191.52" y="-20" type="line"/>
    </contour>
  </outline>
</glyph>
<glyph name="o" format="1">
  <advance width="1222"/>
  <unicode hex="006F"/>
  <outline>
    <contour>
      <point x="615.6" y="116" type="curve" smooth="yes"/>
      <point x="817.2" y="116"/>
      <point x="952.168" y="274"/>
      <point x="952.168" y="511" type="curve" smooth="yes"/>
      <point x="952.168" y="749"/>
      <point x="817.2" y="907"/>
      <point x="614.64" y="907" type="curve" smooth="yes"/>
      <point x="408.24" y="907"/>
      <point x="270" y="748"/>
      <point x="270" y="509" type="curve" smooth="yes"/>
      <point x="270" y="273"/>
      <point x="408.24" y="116"/>
    </contour>
    <contour>
      <point x="615.6" y="-22" type="curve" smooth="yes"/>
      <point x="310.32" y="-22"/>
      <point x="100" y="191"/>
      <point x="100" y="511" type="curve" smooth="yes"/>
      <point x="100" y="833"/>
      <point x="310.32" y="1048"/>
      <point x="614.64" y="1048" type="curve" smooth="yes"/>
      <point x="915.12" y="1048"/>
      <point x="1122.17" y="834"/>
      <point x="1122.17" y="513" type="curve" smooth="yes"/>
      <point x="1122.17" y="192"/>
      <point x="915.12" y="-22"/>
    </contour>
  </outline>
</glyph>
<glyph name="p" format="1">
  <advance width="1244"/>
  <unicode hex="0070"/>
  <outline>
    <contour>
      <point x="173" y="-457" type="line"/>
      <point x="337" y="-439" type="line"/>
      <point x="337" y="30" type="line"/>
      <point x="449.899" y="-4.37843"/>
      <point x="552.41" y="-22.0391"/>
      <point x="649.255" y="-22.0391" type="curve" smooth="yes"/>
      <point x="977.56" y="-22.0391"/>
      <point x="1145.45" y="245.811"/>
      <point x="1145.45" y="542.917" type="curve" smooth="yes"/>
      <point x="1145.45" y="800.085"/>
      <point x="1000.85" y="1048"/>
      <point x="684.36" y="1048" type="curve" smooth="yes"/>
      <point x="514.84" y="1048"/>
      <point x="390.04" y="948"/>
      <point x="315" y="817" type="curve"/>
      <point x="304" y="896"/>
      <point x="242" y="976"/>
      <point x="210" y="999" type="curve"/>
      <point x="48" y="944" type="line"/>
      <point x="89" y="911"/>
      <point x="173" y="815"/>
      <point x="173" y="695" type="curve" smooth="yes"/>
    </contour>
    <contour>
      <point x="336" y="174" type="curve"/>
      <point x="336" y="494" type="line" smooth="yes"/>
      <point x="336" y="791"/>
      <point x="500.28" y="907"/>
      <point x="687.48" y="907" type="curve" smooth="yes"/>
      <point x="886.116" y="907"/>
      <point x="976.859" y="720.606"/>
      <point x="976.859" y="540.633" type="curve" smooth="yes"/>
      <point x="976.859" y="275.116"/>
      <point x="862.299" y="117.703"/>
      <point x="621.283" y="117.703" type="curve" smooth="yes"/>
      <point x="539.504" y="117.703"/>
      <point x="447.323" y="135.827"/>
    </contour>
  </outline>
</glyph>
<glyph name="q" format="1">
  <advance width="1223"/>
  <unicode hex="0071"/>
  <outline>
    <contour>
      <point x="1045.12" y="-519" type="curve" smooth="yes"/>
      <point x="1379.12" y="-343" type="line"/>
      <point x="1307.12" y="-221" type="line"/>
      <point x="1055.12" y="-355" type="line"/>
      <point x="1055.12" y="813" type="line" smooth="yes"/>
      <point x="1055.12" y="916"/>
      <point x="1068.12" y="992"/>
      <point x="1073.12" y="1026" type="curve"/>
      <point x="906.12" y="1026" type="line"/>
      <point x="891.12" y="888" type="line"/>
      <point x="836.4" y="985"/>
      <point x="758.64" y="1048"/>
      <point x="578.16" y="1048" type="curve" smooth="yes"/>
      <point x="280.56" y="1048"/>
      <point x="100" y="815"/>
      <point x="100" y="506" type="curve" smooth="yes"/>
      <point x="100" y="203"/>
      <point x="274.8" y="-22"/>
      <point x="566.64" y="-22" type="curve" smooth="yes"/>
      <point x="702.96" y="-22"/>
      <point x="816.24" y="33"/>
      <point x="891.12" y="128" type="curve"/>
      <point x="891.12" y="-406" type="line" smooth="yes"/>
      <point x="891.12" y="-523"/>
      <point x="992.12" y="-547"/>
    </contour>
    <contour>
      <point x="582.96" y="116" type="curve" smooth="yes"/>
      <point x="368.88" y="116"/>
      <point x="270" y="284"/>
      <point x="270" y="507" type="curve" smooth="yes"/>
      <point x="270" y="736"/>
      <point x="364.08" y="907"/>
      <point x="583.92" y="907" type="curve" smooth="yes"/>
      <point x="790.32" y="907"/>
      <point x="891.12" y="759"/>
      <point x="891.12" y="543" type="curve" smooth="yes"/>
      <point x="891.12" y="302" type="line"/>
      <point x="842.16" y="212"/>
      <point x="711.6" y="116"/>
    </contour>
  </outline>
</glyph>
<glyph name="r" format="1">
  <advance width="784"/>
  <unicode hex="0072"/>
  <outline>
    <contour>
      <point x="185" y="0" type="line"/>
      <point x="185" y="699" type="line" smooth="yes"/>
      <point x="185" y="815"/>
      <point x="120" y="902"/>
      <point x="70" y="944" type="curve"/>
      <point x="211" y="1026" type="line"/>
      <point x="259" y="984"/>
      <point x="314" y="918"/>
      <point x="324" y="854" type="curve"/>
      <point x="376.84" y="961"/>
      <point x="491.08" y="1048"/>
      <point x="616.67" y="1048" type="curve" smooth="yes"/>
      <point x="699.67" y="1048"/>
      <point x="734.67" y="1038"/>
      <point x="770.67" y="1028" type="curve"/>
      <point x="756.67" y="883" type="line"/>
      <point x="739.67" y="889"/>
      <point x="696.67" y="907"/>
      <point x="611.67" y="907" type="curve" smooth="yes"/>
      <point x="468.04" y="907"/>
      <point x="349" y="803"/>
      <point x="349" y="568" type="curve" smooth="yes"/>
      <point x="349" y="0" type="line"/>
    </contour>
  </outline>
</glyph>
<glyph name="s" format="1">
  <advance width="883"/>
  <unicode hex="0073"/>
  <outline>
    <contour>
      <point x="471.8" y="-22" type="curve" smooth="yes"/>
      <point x="296.12" y="-22"/>
      <point x="166" y="41"/>
      <point x="105" y="78" type="curve"/>
      <point x="156" y="208" type="line"/>
      <point x="251" y="155"/>
      <point x="348.92" y="116"/>
      <point x="461.24" y="116" type="curve" smooth="yes"/>
      <point x="564.92" y="116"/>
      <point x="658.51" y="158"/>
      <point x="658.51" y="267" type="curve" smooth="yes"/>
      <point x="658.51" y="372"/>
      <point x="542.84" y="411"/>
      <point x="394.04" y="473" type="curve" smooth="yes"/>
      <point x="248" y="534"/>
      <point x="111" y="598"/>
      <point x="111" y="773" type="curve" smooth="yes"/>
      <point x="111" y="956"/>
      <point x="267" y="1049"/>
      <point x="454.52" y="1049" type="curve" smooth="yes"/>
      <point x="603.51" y="1049"/>
      <point x="713.51" y="1006"/>
      <point x="785.51" y="965" type="curve"/>
      <point x="738.51" y="833" type="line"/>
      <point x="676.51" y="866"/>
      <point x="563.96" y="907"/>
      <point x="467" y="907" type="curve" smooth="yes"/>
      <point x="347.96" y="907"/>
      <point x="275" y="858"/>
      <point x="275" y="775" type="curve" smooth="yes"/>
      <point x="275" y="678"/>
      <point x="379.64" y="647"/>
      <point x="537.08" y="581" type="curve" smooth="yes"/>
      <point x="689.51" y="519"/>
      <point x="820.51" y="450"/>
      <point x="820.51" y="279" type="curve" smooth="yes"/>
      <point x="820.51" y="85"/>
      <point x="667.51" y="-22"/>
    </contour>
  </outline>
</glyph>
<glyph name="t" format="1">
  <advance width="819"/>
  <unicode hex="0074"/>
  <outline>
    <contour>
      <point x="558.87" y="-8" type="curve" smooth="yes"/>
      <point x="615.87" y="-8"/>
      <point x="726.87" y="13"/>
      <point x="789.87" y="35" type="curve"/>
      <point x="770.87" y="158" type="line"/>
      <point x="723.87" y="140"/>
      <point x="623.87" y="119"/>
      <point x="577.87" y="119" type="curve" smooth="yes"/>
      <point x="451.72" y="119"/>
      <point x="397" y="173"/>
      <point x="397" y="298" type="curve" smooth="yes"/>
      <point x="394.293" y="919" type="line"/>
      <point x="727.87" y="919" type="line"/>
      <point x="727.87" y="1026" type="line"/>
      <point x="394.293" y="1026" type="line"/>
      <point x="394.293" y="1366" type="line"/>
      <point x="238" y="1336" type="line"/>
      <point x="238" y="1026" type="line"/>
      <point x="30" y="1026" type="line"/>
      <point x="30" y="919" type="line"/>
      <point x="233" y="919" type="line"/>
      <point x="233" y="300" type="line" smooth="yes"/>
      <point x="233" y="84"/>
      <point x="333" y="-8"/>
    </contour>
  </outline>
</glyph>
<glyph name="u" format="1">
  <advance width="1207"/>
  <unicode hex="0075"/>
  <outline>
    <contour>
      <point x="517.52" y="-22" type="curve" smooth="yes"/>
      <point x="669.2" y="-22"/>
      <point x="782.48" y="40"/>
      <point x="857.4" y="164" type="curve"/>
      <point x="869.4" y="43"/>
      <point x="964.4" y="-33"/>
      <point x="1121.4" y="-3" type="curve"/>
      <point x="1137.4" y="135" type="line"/>
      <point x="1045.4" y="115"/>
      <point x="996.4" y="156"/>
      <point x="996.4" y="302" type="curve" smooth="yes"/>
      <point x="996.4" y="1026" type="line"/>
      <point x="832.4" y="1026" type="line"/>
      <point x="832.4" y="427" type="line" smooth="yes"/>
      <point x="832.4" y="231"/>
      <point x="699.92" y="116"/>
      <point x="541.52" y="116" type="curve" smooth="yes"/>
      <point x="425.36" y="116"/>
      <point x="309" y="169"/>
      <point x="314" y="365" type="curve" smooth="yes"/>
      <point x="319.76" y="595" type="line" smooth="yes"/>
      <point x="328.4" y="941"/>
      <point x="261" y="1026"/>
      <point x="261" y="1026" type="curve"/>
      <point x="96" y="1000" type="line"/>
      <point x="96" y="1000"/>
      <point x="164" y="901"/>
      <point x="155" y="582" type="curve" smooth="yes"/>
      <point x="149" y="365" type="line" smooth="yes"/>
      <point x="141" y="80"/>
      <point x="331.28" y="-22"/>
    </contour>
  </outline>
</glyph>
<glyph name="v" format="1">
  <advance width="1040"/>
  <unicode hex="0076"/>
  <outline>
    <contour>
      <point x="437.67" y="0" type="line"/>
      <point x="16" y="1026" type="line"/>
      <point x="198" y="1026" type="line"/>
      <point x="471.67" y="336" type="line" smooth="yes"/>
      <point x="490.67" y="290"/>
      <point x="513.67" y="217"/>
      <point x="529.67" y="163" type="curve"/>
      <point x="560.67" y="264"/>
      <point x="573.67" y="309"/>
      <point x="585.67" y="336" type="curve"/>
      <point x="847.461" y="1026" type="line"/>
      <point x="1024.46" y="1026" type="line"/>
      <point x="605.67" y="0" type="line"/>
    </contour>
  </outline>
</glyph>
<glyph name="w" format="1">
  <advance width="1664"/>
  <unicode hex="0077"/>
  <outline>
    <contour>
      <point x="391" y="0" type="line"/>
      <point x="553" y="0" type="line"/>
      <point x="841" y="831" type="line"/>
      <point x="1110.76" y="0" type="line"/>
      <point x="1270.76" y="0" type="line"/>
      <point x="1638.76" y="1026" type="line"/>
      <point x="1469.76" y="1026" type="line"/>
      <point x="1229.76" y="287" type="line"/>
      <point x="1217.76" y="255"/>
      <point x="1208.76" y="219"/>
      <point x="1195.76" y="189" type="curve"/>
      <point x="1185.76" y="219"/>
      <point x="1176.76" y="258"/>
      <point x="1166.76" y="286" type="curve" smooth="yes"/>
      <point x="926.44" y="1026" type="line"/>
      <point x="767.08" y="1026" type="line"/>
      <point x="511" y="276" type="line"/>
      <point x="499" y="249"/>
      <point x="490" y="214"/>
      <point x="480" y="186" type="curve"/>
      <point x="470" y="217"/>
      <point x="461" y="255"/>
      <point x="451" y="284" type="curve" smooth="yes"/>
      <point x="202" y="1026" type="line"/>
      <point x="26" y="1026" type="line"/>
    </contour>
  </outline>
</glyph>
<glyph name="x" format="1">
  <advance width="1063"/>
  <unicode hex="0078"/>
  <outline>
    <contour>
      <point x="48" y="0" type="line"/>
      <point x="439.6" y="514" type="line"/>
      <point x="67" y="1026" type="line"/>
      <point x="268.72" y="1026" type="line"/>
      <point x="545.2" y="626" type="line"/>
      <point x="823" y="1026" type="line"/>
      <point x="1002" y="1026" type="line"/>
      <point x="631.6" y="518" type="line"/>
      <point x="1015" y="0" type="line"/>
      <point x="814" y="0" type="line"/>
      <point x="529.84" y="408" type="line"/>
      <point x="238" y="0" type="line"/>
    </contour>
  </outline>
</glyph>
<glyph name="z" format="1">
  <advance width="965"/>
  <unicode hex="007A"/>
  <outline>
    <contour>
      <point x="80" y="0" type="line"/>
      <point x="80" y="89" type="line"/>
      <point x="666.061" y="891" type="line"/>
      <point x="106" y="891" type="line"/>
      <point x="106" y="1026" type="line"/>
      <point x="889.061" y="1026" type="line"/>
      <point x="889.061" y="939" type="line"/>
      <point x="305" y="134" type="line"/>
      <point x="906.061" y="134" type="line"/>
      <point x="906.061" y="0" type="line"/>
    </contour>
  </outline>
</glyph>
<glyph name="braceleft" format="1">
  <advance width="627"/>
  <unicode hex="007B"/>
  <outline>
    <contour>
      <point x="566" y="-259" type="curve"/>
      <point x="566" y="-133" type="line"/>
      <point x="427" y="-133"/>
      <point x="403" y="-62"/>
      <point x="403" y="107" type="curve"/>
      <point x="405" y="345" type="line"/>
      <point x="405" y="473"/>
      <point x="396" y="535"/>
      <point x="232" y="615" type="curve"/>
      <point x="396" y="695"/>
      <point x="405" y="756"/>
      <point x="405" y="884" type="curve"/>
      <point x="403" y="1122" type="line"/>
      <point x="403" y="1291"/>
      <point x="427" y="1362"/>
      <point x="566" y="1362" type="curve"/>
      <point x="566" y="1488" type="line"/>
      <point x="380" y="1480"/>
      <point x="243" y="1412"/>
      <point x="243" y="1218" type="curve" smooth="yes"/>
      <point x="244" y="935" type="line" smooth="yes"/>
      <point x="245" y="788"/>
      <point x="222" y="690"/>
      <point x="88" y="675" type="curve" smooth="yes"/>
      <point x="87" y="675"/>
      <point x="87" y="676"/>
      <point x="86" y="676" type="curve"/>
      <point x="86" y="675" type="line"/>
      <point x="86" y="554" type="line"/>
      <point x="86" y="553" type="line"/>
      <point x="87" y="553"/>
      <point x="87" y="554"/>
      <point x="88" y="554" type="curve" smooth="yes"/>
      <point x="222" y="539"/>
      <point x="245" y="441"/>
      <point x="244" y="294" type="curve" smooth="yes"/>
      <point x="243" y="11" type="line" smooth="yes"/>
      <point x="242" y="-183"/>
      <point x="380" y="-251"/>
    </contour>
  </outline>
</glyph>
<glyph name="asciitilde" format="1">
  <advance width="1424"/>
  <unicode hex="007E"/>
  <outline>
    <contour>
      <point x="304" y="385" type="line"/>
      <point x="324.16" y="475"/>
      <point x="380.8" y="571"/>
      <point x="486.4" y="571" type="curve" smooth="yes"/>
      <point x="506.56" y="571"/>
      <point x="528.64" y="567"/>
      <point x="553.6" y="559" type="curve" smooth="yes"/>
      <point x="636.16" y="532"/>
      <point x="713.92" y="487"/>
      <point x="789.76" y="452" type="curve" smooth="yes"/>
      <point x="830.08" y="433"/>
      <point x="880" y="410"/>
      <point x="929.92" y="410" type="curve" smooth="yes"/>
      <point x="968.32" y="410"/>
      <point x="1002.88" y="416"/>
      <point x="1034.56" y="430" type="curve" smooth="yes"/>
      <point x="1133.92" y="473"/>
      <point x="1194.92" y="566"/>
      <point x="1222.92" y="684" type="curve"/>
      <point x="1097.92" y="723" type="line"/>
      <point x="1079.68" y="641"/>
      <point x="1026.88" y="545"/>
      <point x="930.88" y="545" type="curve" smooth="yes"/>
      <point x="915.52" y="545"/>
      <point x="897.28" y="549"/>
      <point x="876.16" y="557" type="curve" smooth="yes"/>
      <point x="798.4" y="587"/>
      <point x="721.6" y="632"/>
      <point x="643.84" y="664" type="curve" smooth="yes"/>
      <point x="596.8" y="683"/>
      <point x="542.08" y="705"/>
      <point x="483.52" y="705" type="curve" smooth="yes"/>
      <point x="443.2" y="705"/>
      <point x="406.72" y="698"/>
      <point x="374.08" y="683" type="curve" smooth="yes"/>
      <point x="280" y="641"/>
      <point x="213" y="553"/>
      <point x="189" y="440" type="curve"/>
    </contour>
  </outline>
</glyph>
<glyph name="cent" format="1">
  <advance width="1170"/>
  <unicode hex="00A2"/>
  <outline>
    <contour>
      <point x="541.56" y="-235" type="line"/>
      <point x="650.04" y="-235" type="line"/>
      <point x="650.04" y="-20" type="line"/>
      <point x="745.47" y="-10"/>
      <point x="851.47" y="23"/>
      <point x="957.47" y="87" type="curve"/>
      <point x="921.47" y="225" type="line"/>
      <point x="825.47" y="159"/>
      <point x="732.47" y="129"/>
      <point x="650.04" y="120" type="curve"/>
      <point x="650.04" y="907" type="line"/>
      <point x="742.47" y="898"/>
      <point x="815.47" y="862"/>
      <point x="864.47" y="801" type="curve"/>
      <point x="941.47" y="912" type="line"/>
      <point x="881.47" y="991"/>
      <point x="779.47" y="1039"/>
      <point x="650.04" y="1049" type="curve"/>
      <point x="650.04" y="1281" type="line"/>
      <point x="541.56" y="1281" type="line"/>
      <point x="541.56" y="1049" type="line"/>
      <point x="266" y="1024"/>
      <point x="94" y="805"/>
      <point x="94" y="503" type="curve" smooth="yes"/>
      <point x="94" y="213"/>
      <point x="286.2" y="6"/>
      <point x="541.56" y="-20" type="curve"/>
    </contour>
    <contour>
      <point x="541.56" y="122" type="line"/>
      <point x="378.36" y="148"/>
      <point x="267" y="285"/>
      <point x="267" y="508" type="curve" smooth="yes"/>
      <point x="267" y="714"/>
      <point x="362.04" y="874"/>
      <point x="541.56" y="904" type="curve"/>
    </contour>
  </outline>
</glyph>
<glyph name="currency" format="1">
  <advance width="1213"/>
  <unicode hex="00A4"/>
  <outline>
    <contour>
      <point x="969.92" y="210" type="line"/>
      <point x="804.44" y="371" type="line"/>
      <point x="738.2" y="310"/>
      <point x="649.88" y="274"/>
      <point x="553.88" y="274" type="curve" smooth="yes"/>
      <point x="464.6" y="274"/>
      <point x="382.04" y="308"/>
      <point x="316.76" y="363" type="curve"/>
      <point x="157" y="195" type="line"/>
      <point x="121" y="232" type="line"/>
      <point x="280.28" y="398" type="line"/>
      <point x="216" y="467"/>
      <point x="175" y="559"/>
      <point x="175" y="661" type="curve" smooth="yes"/>
      <point x="175" y="754"/>
      <point x="211" y="840"/>
      <point x="268.76" y="908" type="curve"/>
      <point x="106" y="1065" type="line"/>
      <point x="145" y="1104" type="line"/>
      <point x="305.24" y="947" type="line"/>
      <point x="374.36" y="1011"/>
      <point x="466.52" y="1050"/>
      <point x="563.48" y="1048" type="curve" smooth="yes"/>
      <point x="651.8" y="1046"/>
      <point x="732.44" y="1012"/>
      <point x="795.8" y="956" type="curve"/>
      <point x="951.92" y="1120" type="line"/>
      <point x="991.92" y="1081" type="line"/>
      <point x="834.2" y="917" type="line"/>
      <point x="897.92" y="846"/>
      <point x="934.92" y="753"/>
      <point x="932.92" y="651" type="curve" smooth="yes"/>
      <point x="930.92" y="557"/>
      <point x="895.92" y="473"/>
      <point x="839" y="408" type="curve"/>
      <point x="1006.92" y="246" type="line"/>
    </contour>
    <contour>
      <point x="551.96" y="351" type="curve" smooth="yes"/>
      <point x="714.2" y="351"/>
      <point x="837.08" y="482"/>
      <point x="840.92" y="651" type="curve" smooth="yes"/>
      <point x="844.92" y="820"/>
      <point x="720.92" y="961"/>
      <point x="559.64" y="965" type="curve" smooth="yes"/>
      <point x="397.4" y="969"/>
      <point x="263" y="827"/>
      <point x="263" y="658" type="curve" smooth="yes"/>
      <point x="263" y="489"/>
      <point x="389.72" y="351"/>
    </contour>
  </outline>
</glyph>
<glyph name="yen" format="1">
  <advance width="1235"/>
  <unicode hex="00A5"/>
  <outline>
    <contour>
      <point x="525.51" y="0" type="line"/>
      <point x="697.51" y="0" type="line"/>
      <point x="697.51" y="283" type="line"/>
      <point x="1078.62" y="283" type="line"/>
      <point x="1071.74" y="423" type="line"/>
      <point x="690.63" y="423" type="line"/>
      <point x="690.63" y="574" type="line"/>
      <point x="1068.74" y="574" type="line"/>
      <point x="1068.74" y="716" type="line"/>
      <point x="769.35" y="716" type="line"/>
      <point x="1221.74" y="1456" type="line"/>
      <point x="1030.74" y="1456" type="line"/>
      <point x="610.95" y="727" type="line"/>
      <point x="195" y="1456" type="line"/>
      <point x="4" y="1456" type="line"/>
      <point x="446.79" y="716" type="line"/>
      <point x="141" y="716" type="line"/>
      <point x="141" y="574" type="line"/>
      <point x="525.51" y="574" type="line"/>
      <point x="525.51" y="423" type="line"/>
      <point x="147" y="423" type="line"/>
      <point x="147" y="283" type="line"/>
      <point x="525.51" y="283" type="line"/>
    </contour>
  </outline>
</glyph>
<glyph name="section" format="1">
  <advance width="1082"/>
  <unicode hex="00A7"/>
  <outline>
    <contour>
      <point x="477.2" y="-48" type="curve" smooth="yes"/>
      <point x="585.68" y="-48"/>
      <point x="682.64" y="-18"/>
      <point x="750.16" y="30" type="curve" smooth="yes"/>
      <point x="816.16" y="76"/>
      <point x="873.16" y="146"/>
      <point x="873.16" y="252" type="curve" smooth="yes"/>
      <point x="873.16" y="378"/>
      <point x="795.16" y="437"/>
      <point x="710.48" y="480" type="curve"/>
      <point x="793.16" y="531"/>
      <point x="896.16" y="606"/>
      <point x="896.16" y="737" type="curve" smooth="yes"/>
      <point x="896.16" y="772"/>
      <point x="887.16" y="804"/>
      <point x="871.16" y="832" type="curve" smooth="yes"/>
      <point x="797.16" y="957"/>
      <point x="625.04" y="1001"/>
      <point x="500.24" y="1072" type="curve" smooth="yes"/>
      <point x="444.56" y="1104"/>
      <point x="391.76" y="1140"/>
      <point x="391.76" y="1221" type="curve" smooth="yes"/>
      <point x="391.76" y="1328"/>
      <point x="493.52" y="1356"/>
      <point x="598.16" y="1356" type="curve" smooth="yes"/>
      <point x="678.8" y="1356"/>
      <point x="759.16" y="1332"/>
      <point x="819.16" y="1304" type="curve"/>
      <point x="817.16" y="1452" type="line"/>
      <point x="742.16" y="1475"/>
      <point x="682.64" y="1493"/>
      <point x="593.36" y="1493" type="curve" smooth="yes"/>
      <point x="401.36" y="1493"/>
      <point x="221" y="1416"/>
      <point x="221" y="1217" type="curve" smooth="yes"/>
      <point x="221" y="1090"/>
      <point x="289" y="1027"/>
      <point x="373.52" y="975" type="curve"/>
      <point x="286" y="931"/>
      <point x="185" y="859"/>
      <point x="185" y="729" type="curve" smooth="yes"/>
      <point x="185" y="697"/>
      <point x="191" y="667"/>
      <point x="202" y="640" type="curve" smooth="yes"/>
      <point x="240" y="547"/>
      <point x="327" y="494"/>
      <point x="418.64" y="454" type="curve" smooth="yes"/>
      <point x="499.28" y="418" type="line" smooth="yes"/>
      <point x="530.96" y="404"/>
      <point x="559.76" y="391"/>
      <point x="584.72" y="379" type="curve" smooth="yes"/>
      <point x="640.4" y="352"/>
      <point x="700.88" y="322"/>
      <point x="700.88" y="243" type="curve" smooth="yes"/>
      <point x="700.88" y="221"/>
      <point x="696.08" y="201"/>
      <point x="685.52" y="182" type="curve" smooth="yes"/>
      <point x="650.96" y="119"/>
      <point x="569.36" y="89"/>
      <point x="472.4" y="89" type="curve" smooth="yes"/>
      <point x="372.56" y="89"/>
      <point x="293" y="116"/>
      <point x="210" y="153" type="curve"/>
      <point x="212" y="4" type="line"/>
      <point x="288" y="-27"/>
      <point x="379.28" y="-48"/>
    </contour>
    <contour>
      <point x="581.84" y="547" type="curve"/>
      <point x="549.2" y="561"/>
      <point x="519.44" y="574"/>
      <point x="492.56" y="587" type="curve" smooth="yes"/>
      <point x="431.12" y="616"/>
      <point x="362" y="653"/>
      <point x="362" y="741" type="curve" smooth="yes"/>
      <point x="362" y="831"/>
      <point x="432.08" y="880"/>
      <point x="489.68" y="912" type="curve"/>
      <point x="566.48" y="868"/>
      <point x="718.16" y="846"/>
      <point x="718.16" y="723" type="curve" smooth="yes"/>
      <point x="718.16" y="703"/>
      <point x="714.32" y="685"/>
      <point x="705.68" y="668" type="curve" smooth="yes"/>
      <point x="679.76" y="615"/>
      <point x="628.88" y="578"/>
    </contour>
  </outline>
</glyph>
<glyph name="copyright" format="1">
  <advance width="1780"/>
  <unicode hex="00A9"/>
  <outline>
    <contour>
      <point x="917.72" y="249" type="curve" smooth="yes"/>
      <point x="1032.92" y="249"/>
      <point x="1131.8" y="279"/>
      <point x="1214.36" y="339" type="curve"/>
      <point x="1176.92" y="460" type="line"/>
      <point x="1119.32" y="411"/>
      <point x="1045.4" y="380"/>
      <point x="948.44" y="380" type="curve" smooth="yes"/>
      <point x="891.8" y="380"/>
      <point x="841.88" y="390"/>
      <point x="798.68" y="408" type="curve" smooth="yes"/>
      <point x="682.52" y="458"/>
      <point x="603.8" y="566"/>
      <point x="603.8" y="733" type="curve" smooth="yes"/>
      <point x="603.8" y="781"/>
      <point x="611.48" y="826"/>
      <point x="625.88" y="868" type="curve" smooth="yes"/>
      <point x="668.12" y="989"/>
      <point x="766.04" y="1080"/>
      <point x="921.56" y="1080" type="curve" smooth="yes"/>
      <point x="1024.28" y="1080"/>
      <point x="1110.68" y="1048"/>
      <point x="1180.76" y="985" type="curve"/>
      <point x="1210.52" y="1105" type="line"/>
      <point x="1132.76" y="1174"/>
      <point x="1038.68" y="1208"/>
      <point x="928.28" y="1208" type="curve" smooth="yes"/>
      <point x="857.24" y="1208"/>
      <point x="792.92" y="1196"/>
      <point x="735.32" y="1172" type="curve" smooth="yes"/>
      <point x="573.8" y="1106"/>
      <point x="450.8" y="959"/>
      <point x="450.8" y="729" type="curve" smooth="yes"/>
      <point x="450.8" y="662"/>
      <point x="462.8" y="600"/>
      <point x="486.8" y="542" type="curve" smooth="yes"/>
      <point x="553.8" y="378"/>
      <point x="699.8" y="249"/>
    </contour>
    <contour>
      <point x="892.76" y="-32" type="curve" smooth="yes"/>
      <point x="1131.8" y="-32"/>
      <point x="1309.4" y="67"/>
      <point x="1436.12" y="192" type="curve" smooth="yes"/>
      <point x="1559.72" y="313"/>
      <point x="1668.72" y="485"/>
      <point x="1668.72" y="725" type="curve" smooth="yes"/>
      <point x="1668.72" y="794"/>
      <point x="1658.72" y="860"/>
      <point x="1639.72" y="924" type="curve" smooth="yes"/>
      <point x="1598.72" y="1059"/>
      <point x="1525.4" y="1170"/>
      <point x="1436.12" y="1258" type="curve" smooth="yes"/>
      <point x="1308.44" y="1383"/>
      <point x="1128.92" y="1483"/>
      <point x="887" y="1483" type="curve" smooth="yes"/>
      <point x="647.96" y="1483"/>
      <point x="464.8" y="1385"/>
      <point x="336.56" y="1260" type="curve" smooth="yes"/>
      <point x="213" y="1139"/>
      <point x="103" y="967"/>
      <point x="103" y="726" type="curve" smooth="yes"/>
      <point x="103" y="657"/>
      <point x="113" y="590"/>
      <point x="132" y="526" type="curve" smooth="yes"/>
      <point x="173" y="391"/>
      <point x="245.36" y="280"/>
      <point x="335.6" y="192" type="curve" smooth="yes"/>
      <point x="463.8" y="67"/>
      <point x="650.84" y="-32"/>
    </contour>
    <contour>
      <point x="891.8" y="85" type="curve" smooth="yes"/>
      <point x="692.12" y="85"/>
      <point x="528.8" y="164"/>
      <point x="418.16" y="270" type="curve" smooth="yes"/>
      <point x="313.52" y="373"/>
      <point x="230" y="527"/>
      <point x="230" y="727" type="curve" smooth="yes"/>
      <point x="230" y="926"/>
      <point x="313.52" y="1080"/>
      <point x="418.16" y="1182" type="curve" smooth="yes"/>
      <point x="527.8" y="1286"/>
      <point x="690.2" y="1366"/>
      <point x="887.96" y="1366" type="curve" smooth="yes"/>
      <point x="1086.68" y="1366"/>
      <point x="1247" y="1285"/>
      <point x="1353.56" y="1180" type="curve" smooth="yes"/>
      <point x="1458.2" y="1077"/>
      <point x="1541.72" y="924"/>
      <point x="1541.72" y="724" type="curve" smooth="yes"/>
      <point x="1541.72" y="525"/>
      <point x="1458.2" y="372"/>
      <point x="1354.52" y="270" type="curve" smooth="yes"/>
      <point x="1247.96" y="165"/>
      <point x="1090.52" y="85"/>
    </contour>
  </outline>
</glyph>
<glyph name="ordfeminine" format="1">
  <advance width="745"/>
  <unicode hex="00AA"/>
  <outline>
    <contour>
      <point x="317" y="768" type="curve" smooth="yes"/>
      <point x="417" y="768"/>
      <point x="492" y="805"/>
      <point x="537" y="860" type="curve"/>
      <point x="543" y="786" type="line"/>
      <point x="674" y="786" type="line"/>
      <point x="669" y="846"/>
      <point x="667" y="870"/>
      <point x="667" y="914" type="curve" smooth="yes"/>
      <point x="669" y="1235" type="line"/>
      <point x="669" y="1400"/>
      <point x="558" y="1477"/>
      <point x="394" y="1477" type="curve" smooth="yes"/>
      <point x="262" y="1477"/>
      <point x="162" y="1436"/>
      <point x="111" y="1350" type="curve"/>
      <point x="178" y="1275" type="line"/>
      <point x="222" y="1340"/>
      <point x="289" y="1369"/>
      <point x="388" y="1369" type="curve" smooth="yes"/>
      <point x="498" y="1369"/>
      <point x="536" y="1329"/>
      <point x="536" y="1219" type="curve" smooth="yes"/>
      <point x="536" y="1211" type="line"/>
      <point x="462" y="1201"/>
      <point x="383" y="1202"/>
      <point x="309" y="1192" type="curve"/>
      <point x="189" y="1174"/>
      <point x="66" y="1112"/>
      <point x="66" y="975" type="curve" smooth="yes"/>
      <point x="66" y="944"/>
      <point x="72" y="916"/>
      <point x="85" y="890" type="curve" smooth="yes"/>
      <point x="122" y="814"/>
      <point x="205" y="768"/>
    </contour>
    <contour>
      <point x="338" y="871" type="curve" smooth="yes"/>
      <point x="260" y="871"/>
      <point x="202" y="899"/>
      <point x="202" y="977" type="curve" smooth="yes"/>
      <point x="202" y="1115"/>
      <point x="424" y="1088"/>
      <point x="536" y="1110" type="curve"/>
      <point x="536" y="1085" type="line"/>
      <point x="530" y="962"/>
      <point x="468" y="871"/>
    </contour>
  </outline>
</glyph>
<glyph name="guillemotleft" format="1">
  <advance width="1143"/>
  <unicode hex="00AB"/>
  <outline>
    <contour>
      <point x="514.07" y="171" type="line"/>
      <point x="246" y="541" type="line"/>
      <point x="519.83" y="914" type="line"/>
      <point x="673.43" y="914" type="line"/>
      <point x="416" y="541" type="line"/>
      <point x="664.79" y="171" type="line"/>
    </contour>
    <contour>
      <point x="872.541" y="171" type="line"/>
      <point x="611.03" y="541" type="line"/>
      <point x="877.541" y="914" type="line"/>
      <point x="1036.54" y="914" type="line"/>
      <point x="774.23" y="541" type="line"/>
      <point x="1029.54" y="171" type="line"/>
    </contour>
  </outline>
</glyph>
<glyph name="logicalnot" format="1">
  <advance width="1431"/>
  <unicode hex="00AC"/>
  <outline>
    <contour>
      <point x="1071.91" y="238" type="line"/>
      <point x="1071.91" y="659" type="line"/>
      <point x="200" y="659" type="line"/>
      <point x="200" y="798" type="line"/>
      <point x="1221.91" y="798" type="line"/>
      <point x="1221.91" y="238" type="line"/>
    </contour>
  </outline>
</glyph>
<glyph name="registered" format="1">
  <advance width="1774"/>
  <unicode hex="00AE"/>
  <outline>
    <contour>
      <point x="582.32" y="273" type="line"/>
      <point x="724.4" y="273" type="line"/>
      <point x="724.4" y="664" type="line"/>
      <point x="855.92" y="664" type="line"/>
      <point x="914.48" y="625"/>
      <point x="956.72" y="557"/>
      <point x="997.04" y="485" type="curve" smooth="yes"/>
      <point x="1115.12" y="273" type="line"/>
      <point x="1276.4" y="273" type="line"/>
      <point x="1244.72" y="327"/>
      <point x="1216.88" y="375"/>
      <point x="1190.96" y="418" type="curve" smooth="yes"/>
      <point x="1132.4" y="515"/>
      <point x="1077.68" y="609"/>
      <point x="1003.76" y="681" type="curve"/>
      <point x="1143.92" y="700"/>
      <point x="1258.16" y="775"/>
      <point x="1258.16" y="935" type="curve" smooth="yes"/>
      <point x="1258.16" y="1018"/>
      <point x="1224.56" y="1082"/>
      <point x="1156.4" y="1126" type="curve" smooth="yes"/>
      <point x="1088.24" y="1170"/>
      <point x="984.56" y="1192"/>
      <point x="844.4" y="1192" type="curve" smooth="yes"/>
      <point x="582.32" y="1192" type="line"/>
    </contour>
    <contour>
      <point x="886.64" y="-32" type="curve" smooth="yes"/>
      <point x="1125.68" y="-32"/>
      <point x="1303.28" y="67"/>
      <point x="1430" y="192" type="curve" smooth="yes"/>
      <point x="1553.6" y="313"/>
      <point x="1662.6" y="485"/>
      <point x="1662.6" y="725" type="curve" smooth="yes"/>
      <point x="1662.6" y="794"/>
      <point x="1652.6" y="860"/>
      <point x="1633.6" y="924" type="curve" smooth="yes"/>
      <point x="1592.6" y="1059"/>
      <point x="1519.28" y="1170"/>
      <point x="1430" y="1258" type="curve" smooth="yes"/>
      <point x="1302.32" y="1383"/>
      <point x="1122.8" y="1483"/>
      <point x="880.88" y="1483" type="curve" smooth="yes"/>
      <point x="641.84" y="1483"/>
      <point x="464.24" y="1385"/>
      <point x="336.56" y="1260" type="curve" smooth="yes"/>
      <point x="213" y="1139"/>
      <point x="103" y="967"/>
      <point x="103" y="726" type="curve" smooth="yes"/>
      <point x="103" y="657"/>
      <point x="113" y="590"/>
      <point x="132" y="526" type="curve" smooth="yes"/>
      <point x="173" y="391"/>
      <point x="245.36" y="280"/>
      <point x="335.6" y="192" type="curve" smooth="yes"/>
      <point x="463.28" y="67"/>
      <point x="644.72" y="-32"/>
    </contour>
    <contour>
      <point x="885.68" y="85" type="curve" smooth="yes"/>
      <point x="686" y="85"/>
      <point x="525.68" y="164"/>
      <point x="418.16" y="270" type="curve" smooth="yes"/>
      <point x="313.52" y="373"/>
      <point x="230" y="527"/>
      <point x="230" y="727" type="curve" smooth="yes"/>
      <point x="230" y="926"/>
      <point x="313.52" y="1079"/>
      <point x="418.16" y="1182" type="curve" smooth="yes"/>
      <point x="524.72" y="1287"/>
      <point x="684.08" y="1366"/>
      <point x="881.84" y="1366" type="curve" smooth="yes"/>
      <point x="1080.56" y="1366"/>
      <point x="1240.88" y="1285"/>
      <point x="1347.44" y="1180" type="curve" smooth="yes"/>
      <point x="1452.08" y="1077"/>
      <point x="1535.6" y="924"/>
      <point x="1535.6" y="724" type="curve" smooth="yes"/>
      <point x="1535.6" y="519"/>
      <point x="1454" y="372"/>
      <point x="1349.36" y="270" type="curve" smooth="yes"/>
      <point x="1241.84" y="165"/>
      <point x="1090.16" y="85"/>
    </contour>
    <contour>
      <point x="722.48" y="783" type="line"/>
      <point x="721.52" y="1072" type="line"/>
      <point x="840.56" y="1072" type="line" smooth="yes"/>
      <point x="987.44" y="1072"/>
      <point x="1109.36" y="1071"/>
      <point x="1109.36" y="920" type="curve" smooth="yes"/>
      <point x="1109.36" y="784"/>
      <point x="974.96" y="783"/>
      <point x="842.48" y="783" type="curve" smooth="yes"/>
    </contour>
  </outline>
</glyph>
<glyph name="plusminus" format="1">
  <advance width="1441"/>
  <unicode hex="00B1"/>
  <outline>
    <contour>
      <point x="638.55" y="223" type="line"/>
      <point x="638.55" y="595" type="line"/>
      <point x="200" y="595" type="line"/>
      <point x="188" y="733" type="line"/>
      <point x="636.55" y="733" type="line"/>
      <point x="636.55" y="1107" type="line"/>
      <point x="785.55" y="1107" type="line"/>
      <point x="785.55" y="733" type="line"/>
      <point x="1228.18" y="733" type="line"/>
      <point x="1228.18" y="595" type="line"/>
      <point x="789.39" y="595" type="line"/>
      <point x="789.39" y="223" type="line"/>
    </contour>
    <contour>
      <point x="200" y="0" type="line"/>
      <point x="200" y="138" type="line"/>
      <point x="1232.18" y="138" type="line"/>
      <point x="1232.18" y="0" type="line"/>
    </contour>
  </outline>
</glyph>
<glyph name="paragraph" format="1">
  <advance width="1197"/>
  <unicode hex="00B6"/>
  <outline>
    <contour>
      <point x="438.43" y="-148" type="line"/>
      <point x="575.71" y="-148" type="line"/>
      <point x="575.71" y="1327" type="line"/>
      <point x="776.581" y="1327" type="line"/>
      <point x="776.581" y="-148" type="line"/>
      <point x="905.581" y="-148" type="line"/>
      <point x="905.581" y="1327" type="line"/>
      <point x="992.581" y="1327" type="line"/>
      <point x="992.581" y="1451" type="line"/>
      <point x="612.19" y="1451" type="line" smooth="yes"/>
      <point x="358.75" y="1451"/>
      <point x="107" y="1394"/>
      <point x="107" y="1130" type="curve" smooth="yes"/>
      <point x="107" y="1079"/>
      <point x="116" y="1032"/>
      <point x="134" y="990" type="curve" smooth="yes"/>
      <point x="182" y="877"/>
      <point x="286" y="788"/>
      <point x="438.43" y="786" type="curve"/>
    </contour>
  </outline>
</glyph>
<glyph name="ordmasculine" format="1">
  <advance width="814"/>
  <unicode hex="00BA"/>
  <outline>
    <contour>
      <point x="411.31" y="767" type="curve" smooth="yes"/>
      <point x="466.99" y="767"/>
      <point x="516.91" y="776"/>
      <point x="560.821" y="795" type="curve" smooth="yes"/>
      <point x="680.821" y="845"/>
      <point x="764.821" y="954"/>
      <point x="764.821" y="1121" type="curve" smooth="yes"/>
      <point x="764.821" y="1171"/>
      <point x="756.821" y="1217"/>
      <point x="741.821" y="1260" type="curve" smooth="yes"/>
      <point x="695.821" y="1390"/>
      <point x="581.821" y="1476"/>
      <point x="410.35" y="1476" type="curve" smooth="yes"/>
      <point x="354.67" y="1476"/>
      <point x="305.71" y="1466"/>
      <point x="261" y="1448" type="curve" smooth="yes"/>
      <point x="140" y="1398"/>
      <point x="53" y="1291"/>
      <point x="53" y="1124" type="curve" smooth="yes"/>
      <point x="53" y="901"/>
      <point x="191" y="767"/>
    </contour>
    <contour>
      <point x="411.31" y="875" type="curve" smooth="yes"/>
      <point x="269" y="875"/>
      <point x="193" y="977"/>
      <point x="193" y="1123" type="curve" smooth="yes"/>
      <point x="193" y="1264"/>
      <point x="271" y="1369"/>
      <point x="408.43" y="1369" type="curve" smooth="yes"/>
      <point x="548.821" y="1369"/>
      <point x="626.821" y="1264"/>
      <point x="626.821" y="1119" type="curve" smooth="yes"/>
      <point x="626.821" y="979"/>
      <point x="547.821" y="875"/>
    </contour>
  </outline>
</glyph>
<glyph name="guillemotright" format="1">
  <advance width="1142"/>
  <unicode hex="00BB"/>
  <outline>
    <contour>
      <point x="713.39" y="914" type="line"/>
      <point x="982.421" y="542" type="line"/>
      <point x="707.63" y="171" type="line"/>
      <point x="556.91" y="171" type="line"/>
      <point x="810.421" y="542" type="line"/>
      <point x="563.63" y="914" type="line"/>
    </contour>
    <contour>
      <point x="330" y="914" type="line"/>
      <point x="592.43" y="542" type="line"/>
      <point x="325" y="171" type="line"/>
      <point x="165" y="171" type="line"/>
      <point x="429.23" y="542" type="line"/>
      <point x="172" y="914" type="line"/>
    </contour>
  </outline>
</glyph>
<glyph name="onequarter" format="1">
  <advance width="2374"/>
  <unicode hex="00BC"/>
  <outline>
    <contour>
      <point x="-337" y="0" type="line"/>
      <point x="-186" y="0" type="line"/>
      <point x="579.07" y="1262" type="line"/>
      <point x="579.07" y="1203" type="line"/>
      <point x="627.07" y="1222"/>
      <point x="682.75" y="1248"/>
      <point x="724.99" y="1271" type="curve"/>
      <point x="724.99" y="1168" type="line" smooth="yes"/>
      <point x="724.99" y="1116"/>
      <point x="725.95" y="1067"/>
      <point x="725.95" y="1008" type="curve" smooth="yes"/>
      <point x="725.95" y="723" type="line"/>
      <point x="608.83" y="723" type="line"/>
      <point x="608.83" y="604" type="line"/>
      <point x="959.23" y="604" type="line"/>
      <point x="959.23" y="720" type="line"/>
      <point x="842.11" y="720" type="line"/>
      <point x="842.11" y="1427" type="line"/>
      <point x="741.31" y="1412" type="line"/>
      <point x="706.75" y="1391"/>
      <point x="673.15" y="1371"/>
      <point x="634.75" y="1354" type="curve"/>
      <point x="684.67" y="1436" type="line"/>
      <point x="541.63" y="1436" type="line"/>
    </contour>
    <contour>
      <point x="1833.98" y="615" type="line"/>
      <point x="1953.98" y="615" type="line"/>
      <point x="1953.98" y="803" type="line"/>
      <point x="2074.98" y="803" type="line"/>
      <point x="2064.98" y="910" type="line"/>
      <point x="1955.98" y="910" type="line"/>
      <point x="1955.98" y="1412" type="line"/>
      <point x="1822.27" y="1412" type="line"/>
      <point x="1470.91" y="894" type="line"/>
      <point x="1470.91" y="803" type="line"/>
      <point x="1833.98" y="803" type="line"/>
    </contour>
    <contour>
      <point x="1604.35" y="910" type="line"/>
      <point x="1833.98" y="1244" type="line"/>
      <point x="1833.98" y="910" type="line"/>
    </contour>
  </outline>
</glyph>
<glyph name="onehalf" format="1">
  <advance width="2666"/>
  <unicode hex="00BD"/>
  <outline>
    <contour>
      <point x="621.31" y="604" type="line"/>
      <point x="1145.47" y="604" type="line"/>
      <point x="1145.47" y="722" type="line"/>
      <point x="796.03" y="722" type="line"/>
      <point x="884.35" y="802"/>
      <point x="973.63" y="879"/>
      <point x="1044.67" y="968" type="curve" smooth="yes"/>
      <point x="1096.51" y="1033"/>
      <point x="1146.43" y="1108"/>
      <point x="1146.43" y="1213" type="curve" smooth="yes"/>
      <point x="1146.43" y="1248"/>
      <point x="1139.71" y="1279"/>
      <point x="1127.23" y="1307" type="curve" smooth="yes"/>
      <point x="1089.79" y="1388"/>
      <point x="1007.23" y="1440"/>
      <point x="893.95" y="1440" type="curve" smooth="yes"/>
      <point x="761.47" y="1440"/>
      <point x="670.27" y="1370"/>
      <point x="628.99" y="1270" type="curve"/>
      <point x="710.59" y="1192" type="line"/>
      <point x="742.27" y="1262"/>
      <point x="796.99" y="1323"/>
      <point x="888.19" y="1323" type="curve" smooth="yes"/>
      <point x="964.03" y="1323"/>
      <point x="1022.59" y="1286"/>
      <point x="1022.59" y="1211" type="curve" smooth="yes"/>
      <point x="1022.59" y="1183"/>
      <point x="1012.99" y="1152"/>
      <point x="992.83" y="1118" type="curve" smooth="yes"/>
      <point x="972.67" y="1084"/>
      <point x="945.79" y="1047"/>
      <point x="910.27" y="1006" type="curve" smooth="yes"/>
      <point x="824.83" y="908"/>
      <point x="723.07" y="812"/>
      <point x="621.31" y="715" type="curve"/>
    </contour>
    <contour>
      <point x="1751.23" y="604" type="line"/>
      <point x="2111.46" y="604" type="line"/>
      <point x="2111.46" y="720" type="line"/>
      <point x="1989.46" y="720" type="line"/>
      <point x="1989.46" y="1427" type="line"/>
      <point x="1884.46" y="1412" type="line"/>
      <point x="1833.79" y="1381"/>
      <point x="1786.75" y="1354"/>
      <point x="1722.43" y="1333" type="curve"/>
      <point x="1721.47" y="1203" type="line"/>
      <point x="1769.47" y="1222"/>
      <point x="1825.15" y="1248"/>
      <point x="1867.46" y="1271" type="curve"/>
      <point x="1867.46" y="1168" type="line" smooth="yes"/>
      <point x="1867.46" y="1116"/>
      <point x="1868.46" y="1067"/>
      <point x="1868.46" y="1008" type="curve" smooth="yes"/>
      <point x="1868.46" y="723" type="line"/>
      <point x="1751.23" y="723" type="line"/>
    </contour>
    <contour>
      <point x="-337" y="0" type="line"/>
      <point x="-186" y="0" type="line"/>
      <point x="684.67" y="1436" type="line"/>
      <point x="541.63" y="1436" type="line"/>
    </contour>
  </outline>
</glyph>
<glyph name="threequarters" format="1">
  <advance width="2380"/>
  <unicode hex="00BE"/>
  <outline>
    <contour>
      <point x="-337" y="0" type="line"/>
      <point x="-186" y="0" type="line"/>
      <point x="600.19" y="1297" type="line"/>
      <point x="630.91" y="1244" type="line"/>
      <point x="677.95" y="1284"/>
      <point x="736.51" y="1322"/>
      <point x="815.23" y="1322" type="curve" smooth="yes"/>
      <point x="892.99" y="1322"/>
      <point x="950.59" y="1291"/>
      <point x="950.59" y="1210" type="curve" smooth="yes"/>
      <point x="950.59" y="1110"/>
      <point x="858.43" y="1089"/>
      <point x="761.47" y="1089" type="curve" smooth="yes"/>
      <point x="714.43" y="1089" type="line"/>
      <point x="714.43" y="970" type="line"/>
      <point x="739.39" y="970" type="line" smooth="yes"/>
      <point x="748.03" y="970"/>
      <point x="761.47" y="971"/>
      <point x="768.19" y="971" type="curve" smooth="yes"/>
      <point x="876.67" y="971"/>
      <point x="974.59" y="948"/>
      <point x="974.59" y="837" type="curve" smooth="yes"/>
      <point x="974.59" y="745"/>
      <point x="896.83" y="701"/>
      <point x="806.59" y="701" type="curve" smooth="yes"/>
      <point x="744.19" y="701"/>
      <point x="686.59" y="727"/>
      <point x="632.83" y="779" type="curve"/>
      <point x="575.23" y="683" type="line"/>
      <point x="629.95" y="626"/>
      <point x="708.67" y="586"/>
      <point x="811.39" y="586" type="curve" smooth="yes"/>
      <point x="849.79" y="586"/>
      <point x="887.23" y="592"/>
      <point x="921.79" y="603" type="curve" smooth="yes"/>
      <point x="1017.59" y="634"/>
      <point x="1103.59" y="708"/>
      <point x="1103.59" y="834" type="curve" smooth="yes"/>
      <point x="1103.59" y="937"/>
      <point x="1049.59" y="999"/>
      <point x="975.59" y="1032" type="curve"/>
      <point x="1037.59" y="1065"/>
      <point x="1082.59" y="1124"/>
      <point x="1082.59" y="1213" type="curve" smooth="yes"/>
      <point x="1082.59" y="1250"/>
      <point x="1074.59" y="1282"/>
      <point x="1059.59" y="1310" type="curve" smooth="yes"/>
      <point x="1017.59" y="1388"/>
      <point x="931.39" y="1441"/>
      <point x="817.15" y="1441" type="curve" smooth="yes"/>
      <point x="762.43" y="1441"/>
      <point x="709.63" y="1427"/>
      <point x="665.47" y="1405" type="curve"/>
      <point x="684.67" y="1436" type="line"/>
      <point x="541.63" y="1436" type="line"/>
    </contour>
    <contour>
      <point x="1839.14" y="615" type="line"/>
      <point x="1959.14" y="615" type="line"/>
      <point x="1959.14" y="803" type="line"/>
      <point x="2080.14" y="803" type="line"/>
      <point x="2070.14" y="910" type="line"/>
      <point x="1961.14" y="910" type="line"/>
      <point x="1961.14" y="1412" type="line"/>
      <point x="1827.43" y="1412" type="line"/>
      <point x="1476.07" y="894" type="line"/>
      <point x="1476.07" y="803" type="line"/>
      <point x="1839.14" y="803" type="line"/>
    </contour>
    <contour>
      <point x="1609.51" y="910" type="line"/>
      <point x="1839.14" y="1244" type="line"/>
      <point x="1839.14" y="910" type="line"/>
    </contour>
  </outline>
</glyph>
<glyph name="questiondown" format="1">
  <advance width="1019"/>
  <unicode hex="00BF"/>
  <outline>
    <contour>
      <point x="607.36" y="-16" type="curve" smooth="yes"/>
      <point x="711.95" y="-16"/>
      <point x="806.95" y="15"/>
      <point x="886.95" y="54" type="curve"/>
      <point x="886.95" y="205" type="line"/>
      <point x="705.95" y="103"/>
      <point x="352" y="90"/>
      <point x="352" y="342" type="curve" smooth="yes"/>
      <point x="352" y="622"/>
      <point x="723.95" y="683"/>
      <point x="723.95" y="937" type="curve" smooth="yes"/>
      <point x="723.95" y="987"/>
      <point x="718.95" y="1051"/>
      <point x="713.95" y="1099" type="curve"/>
      <point x="591.04" y="1099" type="line"/>
      <point x="594.88" y="1069"/>
      <point x="596.8" y="1043"/>
      <point x="596.8" y="1020" type="curve" smooth="yes"/>
      <point x="596.8" y="723"/>
      <point x="183" y="680"/>
      <point x="183" y="334" type="curve" smooth="yes"/>
      <point x="183" y="129"/>
      <point x="334" y="-16"/>
    </contour>
    <contour>
      <point x="643.95" y="1256" type="curve" smooth="yes"/>
      <point x="697.95" y="1256"/>
      <point x="751.95" y="1295"/>
      <point x="751.95" y="1361" type="curve" smooth="yes"/>
      <point x="751.95" y="1418"/>
      <point x="713.95" y="1467"/>
      <point x="644.95" y="1467" type="curve" smooth="yes"/>
      <point x="592.96" y="1467"/>
      <point x="541.12" y="1428"/>
      <point x="541.12" y="1362" type="curve" smooth="yes"/>
      <point x="541.12" y="1305"/>
      <point x="577.6" y="1256"/>
    </contour>
  </outline>
</glyph>
<glyph name="Agrave" format="1">
  <advance width="1384"/>
  <unicode hex="00C0"/>
  <outline>
    <contour>
      <point x="13" y="0" type="line"/>
      <point x="199" y="0" type="line"/>
      <point x="348.76" y="397" type="line"/>
      <point x="1018.84" y="397" type="line"/>
      <point x="1175.32" y="0" type="line"/>
      <point x="1366.32" y="0" type="line"/>
      <point x="777.88" y="1456" type="line"/>
      <point x="600.28" y="1456" type="line"/>
    </contour>
    <contour>
      <point x="401.56" y="545" type="line"/>
      <point x="636.76" y="1149" type="line"/>
      <point x="651.16" y="1191"/>
      <point x="672.28" y="1252"/>
      <point x="686.68" y="1298" type="curve"/>
      <point x="700.12" y="1252"/>
      <point x="720.28" y="1192"/>
      <point x="737.56" y="1150" type="curve"/>
      <point x="962.2" y="545" type="line"/>
    </contour>
    <contour>
      <point x="658.84" y="1602" type="line"/>
      <point x="782.68" y="1602" type="line"/>
      <point x="545.56" y="1922" type="line"/>
      <point x="340.12" y="1922" type="line"/>
    </contour>
  </outline>
</glyph>
<glyph name="Atilde" format="1">
  <advance width="1384"/>
  <unicode hex="00C3"/>
  <outline>
    <contour>
      <point x="383.32" y="1633" type="curve"/>
      <point x="484.12" y="1633" type="line"/>
      <point x="490.84" y="1690"/>
      <point x="519.64" y="1718"/>
      <point x="571.48" y="1718" type="curve" smooth="yes"/>
      <point x="662.68" y="1718"/>
      <point x="722.2" y="1650"/>
      <point x="814.36" y="1650" type="curve" smooth="yes"/>
      <point x="933.4" y="1650"/>
      <point x="989.08" y="1752"/>
      <point x="1001.56" y="1865" type="curve"/>
      <point x="897.88" y="1865" type="line"/>
      <point x="891.16" y="1814"/>
      <point x="865.24" y="1775"/>
      <point x="814.36" y="1775" type="curve" smooth="yes"/>
      <point x="796.12" y="1775"/>
      <point x="776.92" y="1779"/>
      <point x="757.72" y="1786" type="curve" smooth="yes"/>
      <point x="702.04" y="1807"/>
      <point x="647.32" y="1843"/>
      <point x="574.36" y="1843" type="curve" smooth="yes"/>
      <point x="455.32" y="1843"/>
      <point x="392.92" y="1749"/>
    </contour>
    <contour>
      <point x="13" y="0" type="line"/>
      <point x="199" y="0" type="line"/>
      <point x="348.76" y="397" type="line"/>
      <point x="1018.84" y="397" type="line"/>
      <point x="1175.32" y="0" type="line"/>
      <point x="1366.32" y="0" type="line"/>
      <point x="777.88" y="1456" type="line"/>
      <point x="600.28" y="1456" type="line"/>
    </contour>
    <contour>
      <point x="401.56" y="545" type="line"/>
      <point x="636.76" y="1149" type="line"/>
      <point x="651.16" y="1191"/>
      <point x="672.28" y="1252"/>
      <point x="686.68" y="1298" type="curve"/>
      <point x="700.12" y="1252"/>
      <point x="720.28" y="1192"/>
      <point x="737.56" y="1150" type="curve"/>
      <point x="962.2" y="545" type="line"/>
    </contour>
  </outline>
</glyph>
<glyph name="Aring" format="1">
  <advance width="1384"/>
  <unicode hex="00C5"/>
  <outline>
    <contour>
      <point x="13" y="0" type="line"/>
      <point x="199" y="0" type="line"/>
      <point x="348.76" y="397" type="line"/>
      <point x="1018.84" y="397" type="line"/>
      <point x="1175.32" y="0" type="line"/>
      <point x="1366.32" y="0" type="line"/>
      <point x="777.88" y="1456" type="line"/>
      <point x="600.28" y="1456" type="line"/>
    </contour>
    <contour>
      <point x="693.4" y="1579" type="curve" smooth="yes"/>
      <point x="720.28" y="1579"/>
      <point x="746.2" y="1584"/>
      <point x="770.2" y="1594" type="curve" smooth="yes"/>
      <point x="834.52" y="1620"/>
      <point x="894.04" y="1679"/>
      <point x="894.04" y="1770" type="curve" smooth="yes"/>
      <point x="894.04" y="1796"/>
      <point x="889.24" y="1821"/>
      <point x="878.68" y="1844" type="curve" smooth="yes"/>
      <point x="849.88" y="1910"/>
      <point x="783.64" y="1960"/>
      <point x="692.44" y="1960" type="curve" smooth="yes"/>
      <point x="664.6" y="1960"/>
      <point x="637.72" y="1956"/>
      <point x="613.72" y="1946" type="curve" smooth="yes"/>
      <point x="548.44" y="1920"/>
      <point x="490.84" y="1861"/>
      <point x="490.84" y="1769" type="curve" smooth="yes"/>
      <point x="490.84" y="1742"/>
      <point x="495.64" y="1717"/>
      <point x="506.2" y="1694" type="curve" smooth="yes"/>
      <point x="535.96" y="1629"/>
      <point x="602.2" y="1579"/>
    </contour>
    <contour>
      <point x="401.56" y="545" type="line"/>
      <point x="636.76" y="1149" type="line"/>
      <point x="651.16" y="1191"/>
      <point x="672.28" y="1252"/>
      <point x="686.68" y="1298" type="curve"/>
      <point x="700.12" y="1252"/>
      <point x="720.28" y="1192"/>
      <point x="737.56" y="1150" type="curve"/>
      <point x="962.2" y="545" type="line"/>
    </contour>
    <contour>
      <point x="691.48" y="1665" type="curve" smooth="yes"/>
      <point x="629.08" y="1665"/>
      <point x="585.88" y="1706"/>
      <point x="585.88" y="1770" type="curve" smooth="yes"/>
      <point x="585.88" y="1830"/>
      <point x="633.88" y="1875"/>
      <point x="691.48" y="1875" type="curve" smooth="yes"/>
      <point x="751" y="1875"/>
      <point x="798.04" y="1832"/>
      <point x="798.04" y="1770" type="curve" smooth="yes"/>
      <point x="798.04" y="1710"/>
      <point x="749.08" y="1665"/>
    </contour>
  </outline>
</glyph>
<glyph name="AE" format="1">
  <advance width="1971"/>
  <unicode hex="00C6"/>
  <outline>
    <contour>
      <point x="5" y="0" type="line"/>
      <point x="812.59" y="1456" type="line"/>
      <point x="1821.82" y="1456" type="line"/>
      <point x="1821.82" y="1308" type="line"/>
      <point x="1122.67" y="1308" type="line"/>
      <point x="1159.15" y="820" type="line"/>
      <point x="1780.82" y="820" type="line"/>
      <point x="1780.82" y="672" type="line"/>
      <point x="1177.39" y="672" type="line"/>
      <point x="1216.75" y="148" type="line"/>
      <point x="1844.82" y="148" type="line"/>
      <point x="1844.82" y="0" type="line"/>
      <point x="1069.87" y="0" type="line"/>
      <point x="1040.11" y="398" type="line"/>
      <point x="419.95" y="398" type="line"/>
      <point x="201" y="0" type="line"/>
    </contour>
    <contour>
      <point x="495.79" y="546" type="line"/>
      <point x="1021.87" y="546" type="line"/>
      <point x="964.27" y="1308" type="line"/>
      <point x="916.27" y="1308" type="line"/>
    </contour>
  </outline>
</glyph>
<glyph name="Ccedilla" format="1">
  <advance width="1360"/>
  <unicode hex="00C7"/>
  <outline>
    <contour>
      <point x="788.44" y="-396" type="curve" smooth="yes"/>
      <point x="904.6" y="-396"/>
      <point x="1019.83" y="-359"/>
      <point x="1019.83" y="-239" type="curve" smooth="yes"/>
      <point x="1019.83" y="-131"/>
      <point x="927.64" y="-95"/>
      <point x="827.8" y="-90" type="curve"/>
      <point x="819.16" y="-90" type="line"/>
      <point x="830.68" y="-21" type="line"/>
      <point x="1007.32" y="-15"/>
      <point x="1152.83" y="37"/>
      <point x="1264.83" y="127" type="curve"/>
      <point x="1207.83" y="267" type="line"/>
      <point x="1106.83" y="179"/>
      <point x="973.72" y="130"/>
      <point x="799.96" y="130" type="curve" smooth="yes"/>
      <point x="458.2" y="130"/>
      <point x="295" y="382"/>
      <point x="295" y="725" type="curve" smooth="yes"/>
      <point x="295" y="1076"/>
      <point x="475.48" y="1331"/>
      <point x="815.32" y="1331" type="curve" smooth="yes"/>
      <point x="946.84" y="1331"/>
      <point x="1070.83" y="1283"/>
      <point x="1171.83" y="1206" type="curve"/>
      <point x="1250.83" y="1332" type="line"/>
      <point x="1140.83" y="1414"/>
      <point x="1008.28" y="1483"/>
      <point x="797.08" y="1483" type="curve" smooth="yes"/>
      <point x="386.2" y="1483"/>
      <point x="112" y="1168"/>
      <point x="112" y="726" type="curve" smooth="yes"/>
      <point x="112" y="307"/>
      <point x="349.72" y="7"/>
      <point x="737.56" y="-20" type="curve"/>
      <point x="711.64" y="-173" type="line"/>
      <point x="742.36" y="-171" type="line" smooth="yes"/>
      <point x="752.92" y="-170"/>
      <point x="769.24" y="-168"/>
      <point x="777.88" y="-168" type="curve" smooth="yes"/>
      <point x="835.48" y="-168"/>
      <point x="882.52" y="-182"/>
      <point x="882.52" y="-241" type="curve" smooth="yes"/>
      <point x="882.52" y="-297"/>
      <point x="836.44" y="-313"/>
      <point x="773.08" y="-313" type="curve" smooth="yes"/>
      <point x="721.24" y="-313"/>
      <point x="676.12" y="-301"/>
      <point x="628.12" y="-289" type="curve"/>
      <point x="620.44" y="-374" type="line"/>
      <point x="672.28" y="-385"/>
      <point x="730.84" y="-396"/>
    </contour>
  </outline>
</glyph>
<glyph name="Egrave" format="1">
  <advance width="1169"/>
  <unicode hex="00C8"/>
  <outline>
    <contour>
      <point x="174" y="0" type="line"/>
      <point x="1073.98" y="0" type="line"/>
      <point x="1073.98" y="148" type="line"/>
      <point x="346" y="148" type="line"/>
      <point x="346" y="672" type="line"/>
      <point x="985.981" y="672" type="line"/>
      <point x="985.981" y="820" type="line"/>
      <point x="346" y="820" type="line"/>
      <point x="346" y="1308" type="line"/>
      <point x="1023.98" y="1308" type="line"/>
      <point x="1023.98" y="1456" type="line"/>
      <point x="174" y="1456" type="line"/>
    </contour>
    <contour>
      <point x="600.47" y="1602" type="line"/>
      <point x="724.31" y="1602" type="line"/>
      <point x="487.19" y="1922" type="line"/>
      <point x="276" y="1922" type="line"/>
    </contour>
  </outline>
</glyph>
<glyph name="Eacute" format="1">
  <advance width="1169"/>
  <unicode hex="00C9"/>
  <outline>
    <contour>
      <point x="174" y="0" type="line"/>
      <point x="1073.98" y="0" type="line"/>
      <point x="1073.98" y="148" type="line"/>
      <point x="346" y="148" type="line"/>
      <point x="346" y="672" type="line"/>
      <point x="985.981" y="672" type="line"/>
      <point x="985.981" y="820" type="line"/>
      <point x="346" y="820" type="line"/>
      <point x="346" y="1308" type="line"/>
      <point x="1023.98" y="1308" type="line"/>
      <point x="1023.98" y="1456" type="line"/>
      <point x="174" y="1456" type="line"/>
    </contour>
    <contour>
      <point x="556.31" y="1602" type="line"/>
      <point x="681.11" y="1602" type="line"/>
      <point x="982.981" y="1922" type="line"/>
      <point x="773.27" y="1922" type="line"/>
    </contour>
  </outline>
</glyph>
<glyph name="Ecircumflex" format="1">
  <advance width="1169"/>
  <unicode hex="00CA"/>
  <outline>
    <contour>
      <point x="174" y="0" type="line"/>
      <point x="1073.98" y="0" type="line"/>
      <point x="1073.98" y="148" type="line"/>
      <point x="346" y="148" type="line"/>
      <point x="346" y="672" type="line"/>
      <point x="985.981" y="672" type="line"/>
      <point x="985.981" y="820" type="line"/>
      <point x="346" y="820" type="line"/>
      <point x="346" y="1308" type="line"/>
      <point x="1023.98" y="1308" type="line"/>
      <point x="1023.98" y="1456" type="line"/>
      <point x="174" y="1456" type="line"/>
    </contour>
    <contour>
      <point x="336" y="1600" type="line"/>
      <point x="460.31" y="1600" type="line"/>
      <point x="631.19" y="1816" type="line"/>
      <point x="802.07" y="1600" type="line"/>
      <point x="932.981" y="1600" type="line"/>
      <point x="708.95" y="1924" type="line"/>
      <point x="558.23" y="1924" type="line"/>
    </contour>
  </outline>
</glyph>
<glyph name="Edieresis" format="1">
  <advance width="1169"/>
  <unicode hex="00CB"/>
  <outline>
    <contour>
      <point x="174" y="0" type="line"/>
      <point x="1073.98" y="0" type="line"/>
      <point x="1073.98" y="148" type="line"/>
      <point x="346" y="148" type="line"/>
      <point x="346" y="672" type="line"/>
      <point x="985.981" y="672" type="line"/>
      <point x="985.981" y="820" type="line"/>
      <point x="346" y="820" type="line"/>
      <point x="346" y="1308" type="line"/>
      <point x="1023.98" y="1308" type="line"/>
      <point x="1023.98" y="1456" type="line"/>
      <point x="174" y="1456" type="line"/>
    </contour>
    <contour>
      <point x="395" y="1613" type="line"/>
      <point x="553.43" y="1613" type="line"/>
      <point x="553.43" y="1776" type="line"/>
      <point x="395" y="1776" type="line"/>
    </contour>
    <contour>
      <point x="714.71" y="1613" type="line"/>
      <point x="873.981" y="1613" type="line"/>
      <point x="873.981" y="1776" type="line"/>
      <point x="714.71" y="1776" type="line"/>
    </contour>
  </outline>
</glyph>
<glyph name="Ntilde" format="1">
  <advance width="1536"/>
  <unicode hex="00D1"/>
  <outline>
    <contour>
      <point x="174" y="0" type="line"/>
      <point x="346" y="0" type="line"/>
      <point x="346" y="1237" type="line"/>
      <point x="415.12" y="1113" type="line"/>
      <point x="1154.32" y="0" type="line"/>
      <point x="1362.32" y="0" type="line"/>
      <point x="1362.32" y="1456" type="line"/>
      <point x="1191.32" y="1456" type="line"/>
      <point x="1191.32" y="215" type="line"/>
      <point x="1114.96" y="342" type="line"/>
      <point x="378.64" y="1456" type="line"/>
      <point x="174" y="1456" type="line"/>
    </contour>
    <contour>
      <point x="467.92" y="1633" type="curve"/>
      <point x="568.72" y="1633" type="line"/>
      <point x="575.44" y="1690"/>
      <point x="604.24" y="1718"/>
      <point x="656.08" y="1718" type="curve" smooth="yes"/>
      <point x="747.28" y="1718"/>
      <point x="806.8" y="1650"/>
      <point x="898.96" y="1650" type="curve" smooth="yes"/>
      <point x="1018" y="1650"/>
      <point x="1073.68" y="1752"/>
      <point x="1086.16" y="1865" type="curve"/>
      <point x="982.48" y="1865" type="line"/>
      <point x="975.76" y="1814"/>
      <point x="949.84" y="1775"/>
      <point x="898.96" y="1775" type="curve" smooth="yes"/>
      <point x="880.72" y="1775"/>
      <point x="861.52" y="1779"/>
      <point x="842.32" y="1786" type="curve" smooth="yes"/>
      <point x="786.64" y="1807"/>
      <point x="731.92" y="1843"/>
      <point x="658.96" y="1843" type="curve" smooth="yes"/>
      <point x="539.92" y="1843"/>
      <point x="477.52" y="1749"/>
    </contour>
  </outline>
</glyph>
<glyph name="Ograve" format="1">
  <advance width="1617"/>
  <unicode hex="00D2"/>
  <outline>
    <contour>
      <point x="772.16" y="146" type="line"/>
      <point x="896" y="146" type="line"/>
      <point x="658.88" y="466" type="line"/>
      <point x="453.44" y="466" type="line"/>
    </contour>
    <contour>
      <point x="808.64" y="127" type="curve" smooth="yes"/>
      <point x="541.76" y="127"/>
      <point x="296" y="330"/>
      <point x="296" y="729" type="curve" smooth="yes"/>
      <point x="296" y="1128"/>
      <point x="541.76" y="1331"/>
      <point x="808.64" y="1331" type="curve" smooth="yes"/>
      <point x="1075.52" y="1331"/>
      <point x="1321.28" y="1128"/>
      <point x="1321.28" y="729" type="curve" smooth="yes"/>
      <point x="1321.28" y="330"/>
      <point x="1075.52" y="127"/>
    </contour>
    <contour>
      <point x="808.64" y="-25" type="curve" smooth="yes"/>
      <point x="1263.68" y="-25"/>
      <point x="1505.28" y="336"/>
      <point x="1505.28" y="728" type="curve" smooth="yes"/>
      <point x="1505.28" y="1122"/>
      <point x="1263.68" y="1483"/>
      <point x="808.64" y="1483" type="curve" smooth="yes"/>
      <point x="353.6" y="1483"/>
      <point x="112" y="1122"/>
      <point x="112" y="728" type="curve" smooth="yes"/>
      <point x="112" y="336"/>
      <point x="353.6" y="-25"/>
    </contour>
  </outline>
</glyph>
<glyph name="Oacute" format="1">
  <advance width="1617"/>
  <unicode hex="00D3"/>
  <outline>
    <contour>
      <point x="808.64" y="127" type="curve" smooth="yes"/>
      <point x="541.76" y="127"/>
      <point x="296" y="330"/>
      <point x="296" y="729" type="curve" smooth="yes"/>
      <point x="296" y="1128"/>
      <point x="541.76" y="1331"/>
      <point x="808.64" y="1331" type="curve" smooth="yes"/>
      <point x="1075.52" y="1331"/>
      <point x="1321.28" y="1128"/>
      <point x="1321.28" y="729" type="curve" smooth="yes"/>
      <point x="1321.28" y="330"/>
      <point x="1075.52" y="127"/>
    </contour>
    <contour>
      <point x="808.64" y="-25" type="curve" smooth="yes"/>
      <point x="1263.68" y="-25"/>
      <point x="1505.28" y="336"/>
      <point x="1505.28" y="728" type="curve" smooth="yes"/>
      <point x="1505.28" y="1122"/>
      <point x="1263.68" y="1483"/>
      <point x="808.64" y="1483" type="curve" smooth="yes"/>
      <point x="353.6" y="1483"/>
      <point x="112" y="1122"/>
      <point x="112" y="728" type="curve" smooth="yes"/>
      <point x="112" y="336"/>
      <point x="353.6" y="-25"/>
    </contour>
    <contour>
      <point x="728" y="146" type="line"/>
      <point x="852.8" y="146" type="line"/>
      <point x="1148.48" y="466" type="line"/>
      <point x="944.96" y="466" type="line"/>
    </contour>
  </outline>
</glyph>
<glyph name="Ocircumflex" format="1">
  <advance width="1617"/>
  <unicode hex="00D4"/>
  <outline>
    <contour>
      <point x="1064.96" y="197" type="curve"/>
      <point x="880.64" y="468" type="line"/>
      <point x="729.92" y="468" type="line"/>
      <point x="548.48" y="200" type="line"/>
      <point x="400.64" y="291"/>
      <point x="296" y="468"/>
      <point x="296" y="729" type="curve" smooth="yes"/>
      <point x="296" y="1128"/>
      <point x="541.76" y="1331"/>
      <point x="808.64" y="1331" type="curve" smooth="yes"/>
      <point x="1075.52" y="1331"/>
      <point x="1321.28" y="1128"/>
      <point x="1321.28" y="729" type="curve" smooth="yes"/>
      <point x="1321.28" y="466"/>
      <point x="1214.72" y="288"/>
    </contour>
    <contour>
      <point x="808.64" y="127" type="curve" smooth="yes"/>
      <point x="751.04" y="127"/>
      <point x="694.4" y="136"/>
      <point x="640.64" y="155" type="curve"/>
      <point x="802.88" y="360" type="line"/>
      <point x="967.04" y="152" type="line"/>
      <point x="916.16" y="135"/>
      <point x="863.36" y="127"/>
    </contour>
    <contour>
      <point x="808.64" y="-25" type="curve" smooth="yes"/>
      <point x="1263.68" y="-25"/>
      <point x="1505.28" y="336"/>
      <point x="1505.28" y="728" type="curve" smooth="yes"/>
      <point x="1505.28" y="1122"/>
      <point x="1263.68" y="1483"/>
      <point x="808.64" y="1483" type="curve" smooth="yes"/>
      <point x="353.6" y="1483"/>
      <point x="112" y="1122"/>
      <point x="112" y="728" type="curve" smooth="yes"/>
      <point x="112" y="336"/>
      <point x="353.6" y="-25"/>
    </contour>
  </outline>
</glyph>
<glyph name="Otilde" format="1">
  <advance width="1617"/>
  <unicode hex="00D5"/>
  <outline>
    <contour>
      <point x="808.64" y="127" type="curve" smooth="yes"/>
      <point x="731.84" y="127"/>
      <point x="657.92" y="144"/>
      <point x="589.76" y="177" type="curve"/>
      <point x="597.44" y="177" type="line"/>
      <point x="604.16" y="234"/>
      <point x="632.96" y="262"/>
      <point x="684.8" y="262" type="curve" smooth="yes"/>
      <point x="776" y="262"/>
      <point x="835.52" y="194"/>
      <point x="927.68" y="194" type="curve" smooth="yes"/>
      <point x="1046.72" y="194"/>
      <point x="1102.4" y="296"/>
      <point x="1114.88" y="409" type="curve"/>
      <point x="1011.2" y="409" type="line"/>
      <point x="1004.48" y="358"/>
      <point x="978.56" y="319"/>
      <point x="927.68" y="319" type="curve" smooth="yes"/>
      <point x="909.44" y="319"/>
      <point x="890.24" y="323"/>
      <point x="871.04" y="330" type="curve" smooth="yes"/>
      <point x="815.36" y="351"/>
      <point x="760.64" y="387"/>
      <point x="687.68" y="387" type="curve" smooth="yes"/>
      <point x="587.84" y="387"/>
      <point x="527.36" y="320"/>
      <point x="505.28" y="230" type="curve"/>
      <point x="381.44" y="328"/>
      <point x="296" y="494"/>
      <point x="296" y="729" type="curve" smooth="yes"/>
      <point x="296" y="1128"/>
      <point x="541.76" y="1331"/>
      <point x="808.64" y="1331" type="curve" smooth="yes"/>
      <point x="1075.52" y="1331"/>
      <point x="1321.28" y="1128"/>
      <point x="1321.28" y="729" type="curve" smooth="yes"/>
      <point x="1321.28" y="330"/>
      <point x="1075.52" y="127"/>
    </contour>
    <contour>
      <point x="808.64" y="-25" type="curve" smooth="yes"/>
      <point x="1263.68" y="-25"/>
      <point x="1505.28" y="336"/>
      <point x="1505.28" y="728" type="curve" smooth="yes"/>
      <point x="1505.28" y="1122"/>
      <point x="1263.68" y="1483"/>
      <point x="808.64" y="1483" type="curve" smooth="yes"/>
      <point x="353.6" y="1483"/>
      <point x="112" y="1122"/>
      <point x="112" y="728" type="curve" smooth="yes"/>
      <point x="112" y="336"/>
      <point x="353.6" y="-25"/>
    </contour>
  </outline>
</glyph>
<glyph name="Odieresis" format="1">
  <advance width="1617"/>
  <unicode hex="00D6"/>
  <outline>
    <contour>
      <point x="808.64" y="127" type="curve" smooth="yes"/>
      <point x="749.12" y="127"/>
      <point x="690.56" y="137"/>
      <point x="635.84" y="157" type="curve"/>
      <point x="725.12" y="157" type="line"/>
      <point x="725.12" y="320" type="line"/>
      <point x="567.68" y="320" type="line"/>
      <point x="567.68" y="188" type="line"/>
      <point x="410.24" y="276"/>
      <point x="296" y="457"/>
      <point x="296" y="729" type="curve" smooth="yes"/>
      <point x="296" y="1128"/>
      <point x="541.76" y="1331"/>
      <point x="808.64" y="1331" type="curve" smooth="yes"/>
      <point x="1075.52" y="1331"/>
      <point x="1321.28" y="1128"/>
      <point x="1321.28" y="729" type="curve" smooth="yes"/>
      <point x="1321.28" y="454"/>
      <point x="1204.16" y="271"/>
      <point x="1043.84" y="185" type="curve"/>
      <point x="1043.84" y="320" type="line"/>
      <point x="886.4" y="320" type="line"/>
      <point x="886.4" y="157" type="line"/>
      <point x="981.44" y="157" type="line"/>
      <point x="926.72" y="137"/>
      <point x="868.16" y="127"/>
    </contour>
    <contour>
      <point x="808.64" y="-25" type="curve" smooth="yes"/>
      <point x="1263.68" y="-25"/>
      <point x="1505.28" y="336"/>
      <point x="1505.28" y="728" type="curve" smooth="yes"/>
      <point x="1505.28" y="1122"/>
      <point x="1263.68" y="1483"/>
      <point x="808.64" y="1483" type="curve" smooth="yes"/>
      <point x="353.6" y="1483"/>
      <point x="112" y="1122"/>
      <point x="112" y="728" type="curve" smooth="yes"/>
      <point x="112" y="336"/>
      <point x="353.6" y="-25"/>
    </contour>
  </outline>
</glyph>
<glyph name="multiply" format="1">
  <advance width="1445"/>
  <unicode hex="00D7"/>
  <outline>
    <contour>
      <point x="425" y="154" type="line"/>
      <point x="322" y="257" type="line"/>
      <point x="615.99" y="554" type="line"/>
      <point x="322" y="851" type="line"/>
      <point x="425" y="954" type="line"/>
      <point x="715.83" y="657" type="line"/>
      <point x="1005.66" y="954" type="line"/>
      <point x="1109.66" y="850" type="line"/>
      <point x="814.71" y="554" type="line"/>
      <point x="1109.66" y="258" type="line"/>
      <point x="1005.66" y="154" type="line"/>
      <point x="715.83" y="450" type="line"/>
    </contour>
  </outline>
</glyph>
<glyph name="Oslash" format="1">
  <advance width="1620"/>
  <unicode hex="00D8"/>
  <outline>
    <contour>
      <point x="512" y="-165" type="line"/>
      <point x="583.04" y="9" type="line"/>
      <point x="651.2" y="-13"/>
      <point x="726.08" y="-25"/>
      <point x="808.64" y="-25" type="curve" smooth="yes"/>
      <point x="1263.68" y="-25"/>
      <point x="1505.28" y="336"/>
      <point x="1505.28" y="728" type="curve" smooth="yes"/>
      <point x="1505.28" y="1007"/>
      <point x="1382.28" y="1270"/>
      <point x="1149.44" y="1399" type="curve"/>
      <point x="1223.36" y="1581" type="line"/>
      <point x="1103.36" y="1625" type="line"/>
      <point x="1032.32" y="1450" type="line"/>
      <point x="965.12" y="1471"/>
      <point x="890.24" y="1483"/>
      <point x="808.64" y="1483" type="curve" smooth="yes"/>
      <point x="353.6" y="1483"/>
      <point x="112" y="1122"/>
      <point x="112" y="728" type="curve" smooth="yes"/>
      <point x="112" y="450"/>
      <point x="235" y="187"/>
      <point x="468.8" y="58" type="curve"/>
      <point x="395.84" y="-121" type="line"/>
    </contour>
    <contour>
      <point x="530.24" y="211" type="line"/>
      <point x="392" y="305"/>
      <point x="296" y="479"/>
      <point x="296" y="729" type="curve" smooth="yes"/>
      <point x="296" y="1128"/>
      <point x="541.76" y="1331"/>
      <point x="808.64" y="1331" type="curve" smooth="yes"/>
      <point x="865.28" y="1331"/>
      <point x="920" y="1322"/>
      <point x="972.8" y="1304" type="curve"/>
    </contour>
    <contour>
      <point x="808.64" y="127" type="curve" smooth="yes"/>
      <point x="751.04" y="127"/>
      <point x="695.36" y="136"/>
      <point x="642.56" y="155" type="curve"/>
      <point x="1087.04" y="1246" type="line"/>
      <point x="1224.32" y="1152"/>
      <point x="1321.28" y="979"/>
      <point x="1321.28" y="729" type="curve" smooth="yes"/>
      <point x="1321.28" y="330"/>
      <point x="1075.52" y="127"/>
    </contour>
  </outline>
</glyph>
<glyph name="Uacute" format="1">
  <advance width="1440"/>
  <unicode hex="00DA"/>
  <outline>
    <contour>
      <point x="732.48" y="-22" type="curve" smooth="yes"/>
      <point x="1080" y="-22"/>
      <point x="1274.92" y="191"/>
      <point x="1276.92" y="551" type="curve"/>
      <point x="1276.92" y="1456" type="line"/>
      <point x="1105.92" y="1456" type="line"/>
      <point x="1105.92" y="539" type="line" smooth="yes"/>
      <point x="1105.92" y="279"/>
      <point x="972.48" y="123"/>
      <point x="730.56" y="123" type="curve" smooth="yes"/>
      <point x="469.44" y="123"/>
      <point x="336" y="260"/>
      <point x="336" y="546" type="curve" smooth="yes"/>
      <point x="336" y="1456" type="line"/>
      <point x="164" y="1456" type="line"/>
      <point x="164" y="541" type="line" smooth="yes"/>
      <point x="164" y="157"/>
      <point x="363.84" y="-22"/>
    </contour>
    <contour>
      <point x="645.12" y="1602" type="line"/>
      <point x="769.92" y="1602" type="line"/>
      <point x="1065.6" y="1922" type="line"/>
      <point x="862.08" y="1922" type="line"/>
    </contour>
  </outline>
</glyph>
<glyph name="Udieresis" format="1">
  <advance width="1440"/>
  <unicode hex="00DC"/>
  <outline>
    <contour>
      <point x="732.48" y="-22" type="curve" smooth="yes"/>
      <point x="1080" y="-22"/>
      <point x="1274.92" y="191"/>
      <point x="1276.92" y="551" type="curve"/>
      <point x="1276.92" y="1456" type="line"/>
      <point x="1105.92" y="1456" type="line"/>
      <point x="1105.92" y="539" type="line" smooth="yes"/>
      <point x="1105.92" y="279"/>
      <point x="972.48" y="123"/>
      <point x="730.56" y="123" type="curve" smooth="yes"/>
      <point x="469.44" y="123"/>
      <point x="336" y="260"/>
      <point x="336" y="546" type="curve" smooth="yes"/>
      <point x="336" y="1456" type="line"/>
      <point x="164" y="1456" type="line"/>
      <point x="164" y="541" type="line" smooth="yes"/>
      <point x="164" y="157"/>
      <point x="363.84" y="-22"/>
    </contour>
    <contour>
      <point x="484.8" y="1613" type="line"/>
      <point x="642.24" y="1613" type="line"/>
      <point x="642.24" y="1776" type="line"/>
      <point x="484.8" y="1776" type="line"/>
    </contour>
    <contour>
      <point x="803.52" y="1613" type="line"/>
      <point x="960.96" y="1613" type="line"/>
      <point x="960.96" y="1776" type="line"/>
      <point x="803.52" y="1776" type="line"/>
    </contour>
  </outline>
</glyph>
<glyph name="Yacute" format="1">
  <advance width="1225"/>
  <unicode hex="00DD"/>
  <outline>
    <contour>
      <point x="525.51" y="0" type="line"/>
      <point x="697.51" y="0" type="line"/>
      <point x="697.51" y="585" type="line"/>
      <point x="1221.74" y="1456" type="line"/>
      <point x="1030.74" y="1456" type="line"/>
      <point x="610.95" y="727" type="line"/>
      <point x="195" y="1456" type="line"/>
      <point x="4" y="1456" type="line"/>
      <point x="525.51" y="582" type="line"/>
    </contour>
    <contour>
      <point x="534.15" y="1602" type="line"/>
      <point x="658.95" y="1602" type="line"/>
      <point x="954.63" y="1922" type="line"/>
      <point x="751.11" y="1922" type="line"/>
    </contour>
  </outline>
</glyph>
<glyph name="Thorn" format="1">
  <advance width="1251"/>
  <unicode hex="00DE"/>
  <outline>
    <contour>
      <point x="203" y="0" type="line"/>
      <point x="375" y="0" type="line"/>
      <point x="375" y="443" type="line"/>
      <point x="591.07" y="443" type="line" smooth="yes"/>
      <point x="751.39" y="443"/>
      <point x="894.43" y="480"/>
      <point x="995.31" y="546" type="curve" smooth="yes"/>
      <point x="1098.31" y="611"/>
      <point x="1177.31" y="714"/>
      <point x="1177.31" y="876" type="curve" smooth="yes"/>
      <point x="1177.31" y="1231"/>
      <point x="880.99" y="1312"/>
      <point x="540.19" y="1312" type="curve" smooth="yes"/>
      <point x="375" y="1312" type="line"/>
      <point x="375" y="1456" type="line"/>
      <point x="203" y="1456" type="line"/>
    </contour>
    <contour>
      <point x="375" y="592" type="line"/>
      <point x="375" y="1164" type="line"/>
      <point x="582.43" y="1164" type="line" smooth="yes"/>
      <point x="812.83" y="1164"/>
      <point x="993.31" y="1114"/>
      <point x="993.31" y="874" type="curve" smooth="yes"/>
      <point x="993.31" y="825"/>
      <point x="984.67" y="782"/>
      <point x="966.43" y="747" type="curve" smooth="yes"/>
      <point x="910.75" y="639"/>
      <point x="787.87" y="592"/>
      <point x="628.51" y="592" type="curve" smooth="yes"/>
    </contour>
  </outline>
</glyph>
<glyph name="atilde" format="1">
  <advance width="1181"/>
  <unicode hex="00E3"/>
  <outline>
    <contour>
      <point x="306.08" y="1203" type="curve"/>
      <point x="406.88" y="1203" type="line"/>
      <point x="413.6" y="1260"/>
      <point x="442.4" y="1288"/>
      <point x="494.24" y="1288" type="curve" smooth="yes"/>
      <point x="585.44" y="1288"/>
      <point x="644.96" y="1220"/>
      <point x="737.12" y="1220" type="curve" smooth="yes"/>
      <point x="857.04" y="1220"/>
      <point x="915.04" y="1322"/>
      <point x="928.04" y="1435" type="curve"/>
      <point x="820.64" y="1435" type="line"/>
      <point x="813.92" y="1384"/>
      <point x="788" y="1345"/>
      <point x="737.12" y="1345" type="curve" smooth="yes"/>
      <point x="718.88" y="1345"/>
      <point x="699.68" y="1349"/>
      <point x="680.48" y="1356" type="curve" smooth="yes"/>
      <point x="624.8" y="1377"/>
      <point x="570.08" y="1413"/>
      <point x="497.12" y="1413" type="curve" smooth="yes"/>
      <point x="378.08" y="1413"/>
      <point x="315.68" y="1319"/>
    </contour>
    <contour>
      <point x="496.16" y="-22" type="curve" smooth="yes"/>
      <point x="647.84" y="-22"/>
      <point x="791.84" y="53"/>
      <point x="858.04" y="166" type="curve"/>
      <point x="881.04" y="64"/>
      <point x="974.04" y="-4"/>
      <point x="1090.04" y="-4" type="curve"/>
      <point x="1124.04" y="139" type="line"/>
      <point x="1049.04" y="139"/>
      <point x="999.04" y="198"/>
      <point x="999.04" y="286" type="curve" smooth="yes"/>
      <point x="999.04" y="962" type="line"/>
      <point x="919.04" y="1014"/>
      <point x="778.4" y="1048"/>
      <point x="649.76" y="1048" type="curve" smooth="yes"/>
      <point x="317.6" y="1048"/>
      <point x="90" y="804"/>
      <point x="90" y="438" type="curve" smooth="yes"/>
      <point x="90" y="162"/>
      <point x="256" y="-22"/>
    </contour>
    <contour>
      <point x="520.16" y="116" type="curve" smooth="yes"/>
      <point x="363.68" y="116"/>
      <point x="260" y="249"/>
      <point x="260" y="448" type="curve" smooth="yes"/>
      <point x="260" y="723"/>
      <point x="414.56" y="907"/>
      <point x="646.88" y="907" type="curve" smooth="yes"/>
      <point x="719.84" y="907"/>
      <point x="794.72" y="893"/>
      <point x="835.04" y="872" type="curve"/>
      <point x="835.04" y="453" type="line" smooth="yes"/>
      <point x="835.04" y="261"/>
      <point x="709.28" y="116"/>
    </contour>
  </outline>
</glyph>
<glyph name="aring" format="1">
  <advance width="1181"/>
  <unicode hex="00E5"/>
  <outline>
    <contour>
      <point x="496.16" y="-22" type="curve" smooth="yes"/>
      <point x="647.84" y="-22"/>
      <point x="791.84" y="53"/>
      <point x="858.04" y="166" type="curve"/>
      <point x="881.04" y="64"/>
      <point x="974.04" y="-4"/>
      <point x="1090.04" y="-4" type="curve"/>
      <point x="1124.04" y="139" type="line"/>
      <point x="1049.04" y="139"/>
      <point x="999.04" y="198"/>
      <point x="999.04" y="286" type="curve" smooth="yes"/>
      <point x="999.04" y="962" type="line"/>
      <point x="919.04" y="1014"/>
      <point x="778.4" y="1048"/>
      <point x="649.76" y="1048" type="curve" smooth="yes"/>
      <point x="317.6" y="1048"/>
      <point x="90" y="804"/>
      <point x="90" y="438" type="curve" smooth="yes"/>
      <point x="90" y="162"/>
      <point x="256" y="-22"/>
    </contour>
    <contour>
      <point x="616.16" y="1149" type="curve" smooth="yes"/>
      <point x="643.04" y="1149"/>
      <point x="668.96" y="1154"/>
      <point x="692.96" y="1164" type="curve" smooth="yes"/>
      <point x="757.28" y="1190"/>
      <point x="816.8" y="1249"/>
      <point x="816.8" y="1340" type="curve" smooth="yes"/>
      <point x="816.8" y="1366"/>
      <point x="812" y="1391"/>
      <point x="801.44" y="1414" type="curve" smooth="yes"/>
      <point x="772.64" y="1480"/>
      <point x="706.4" y="1530"/>
      <point x="615.2" y="1530" type="curve" smooth="yes"/>
      <point x="587.36" y="1530"/>
      <point x="560.48" y="1526"/>
      <point x="536.48" y="1516" type="curve" smooth="yes"/>
      <point x="471.2" y="1490"/>
      <point x="413.6" y="1431"/>
      <point x="413.6" y="1339" type="curve" smooth="yes"/>
      <point x="413.6" y="1312"/>
      <point x="418.4" y="1287"/>
      <point x="428.96" y="1264" type="curve" smooth="yes"/>
      <point x="458.72" y="1199"/>
      <point x="524.96" y="1149"/>
    </contour>
    <contour>
      <point x="520.16" y="116" type="curve" smooth="yes"/>
      <point x="363.68" y="116"/>
      <point x="260" y="249"/>
      <point x="260" y="448" type="curve" smooth="yes"/>
      <point x="260" y="723"/>
      <point x="414.56" y="907"/>
      <point x="646.88" y="907" type="curve" smooth="yes"/>
      <point x="719.84" y="907"/>
      <point x="794.72" y="893"/>
      <point x="835.04" y="872" type="curve"/>
      <point x="835.04" y="453" type="line" smooth="yes"/>
      <point x="835.04" y="261"/>
      <point x="709.28" y="116"/>
    </contour>
    <contour>
      <point x="614.24" y="1235" type="curve" smooth="yes"/>
      <point x="551.84" y="1235"/>
      <point x="508.64" y="1276"/>
      <point x="508.64" y="1340" type="curve" smooth="yes"/>
      <point x="508.64" y="1400"/>
      <point x="556.64" y="1445"/>
      <point x="614.24" y="1445" type="curve" smooth="yes"/>
      <point x="673.76" y="1445"/>
      <point x="720.8" y="1402"/>
      <point x="720.8" y="1340" type="curve" smooth="yes"/>
      <point x="720.8" y="1280"/>
      <point x="671.84" y="1235"/>
    </contour>
  </outline>
</glyph>
<glyph name="ccedilla" format="1">
  <advance width="998"/>
  <unicode hex="00E7"/>
  <outline>
    <contour>
      <point x="598.88" y="-396" type="curve" smooth="yes"/>
      <point x="715.04" y="-396"/>
      <point x="833.71" y="-359"/>
      <point x="833.71" y="-239" type="curve" smooth="yes"/>
      <point x="833.71" y="-131"/>
      <point x="738.08" y="-95"/>
      <point x="638.24" y="-90" type="curve"/>
      <point x="629.6" y="-90" type="line"/>
      <point x="640.16" y="-23" type="line"/>
      <point x="759.71" y="-18"/>
      <point x="887.71" y="27"/>
      <point x="992.71" y="112" type="curve"/>
      <point x="935.71" y="238" type="line"/>
      <point x="852.71" y="160"/>
      <point x="739.04" y="119"/>
      <point x="635.36" y="119" type="curve" smooth="yes"/>
      <point x="442.4" y="119"/>
      <point x="260" y="241"/>
      <point x="260" y="508" type="curve" smooth="yes"/>
      <point x="260" y="766"/>
      <point x="447.2" y="906"/>
      <point x="640.16" y="906" type="curve" smooth="yes"/>
      <point x="731.36" y="906"/>
      <point x="827.71" y="871"/>
      <point x="902.71" y="799" type="curve"/>
      <point x="962.71" y="920" type="line"/>
      <point x="865.71" y="1013"/>
      <point x="740.96" y="1050"/>
      <point x="624.8" y="1050" type="curve" smooth="yes"/>
      <point x="359.84" y="1050"/>
      <point x="90" y="852"/>
      <point x="90" y="503" type="curve" smooth="yes"/>
      <point x="90" y="188"/>
      <point x="307.04" y="10"/>
      <point x="548" y="-19" type="curve"/>
      <point x="522.08" y="-173" type="line"/>
      <point x="552.8" y="-171" type="line" smooth="yes"/>
      <point x="563.36" y="-170"/>
      <point x="579.68" y="-168"/>
      <point x="588.32" y="-168" type="curve" smooth="yes"/>
      <point x="645.92" y="-168"/>
      <point x="692.96" y="-182"/>
      <point x="692.96" y="-241" type="curve" smooth="yes"/>
      <point x="692.96" y="-297"/>
      <point x="646.88" y="-313"/>
      <point x="583.52" y="-313" type="curve" smooth="yes"/>
      <point x="531.68" y="-313"/>
      <point x="486.56" y="-301"/>
      <point x="438.56" y="-289" type="curve"/>
      <point x="430.88" y="-374" type="line"/>
      <point x="482.72" y="-385"/>
      <point x="541.28" y="-396"/>
    </contour>
  </outline>
</glyph>
<glyph name="ecircumflex" format="1">
  <advance width="1048"/>
  <unicode hex="00EA"/>
  <outline>
    <contour>
      <point x="605.04" y="-22" type="curve" smooth="yes"/>
      <point x="758.64" y="-22"/>
      <point x="909.76" y="43"/>
      <point x="1009.76" y="146" type="curve"/>
      <point x="926.76" y="252" type="line"/>
      <point x="859.76" y="176"/>
      <point x="738.48" y="116"/>
      <point x="605.04" y="116" type="curve" smooth="yes"/>
      <point x="462.96" y="116"/>
      <point x="322.8" y="219"/>
      <point x="284.4" y="371" type="curve"/>
      <point x="656.88" y="425"/>
      <point x="942.76" y="506"/>
      <point x="942.76" y="751" type="curve" smooth="yes"/>
      <point x="942.76" y="918"/>
      <point x="804.76" y="1048"/>
      <point x="596.4" y="1048" type="curve" smooth="yes"/>
      <point x="280.56" y="1048"/>
      <point x="90" y="797"/>
      <point x="90" y="516" type="curve" smooth="yes"/>
      <point x="90" y="187"/>
      <point x="313.2" y="-22"/>
    </contour>
    <contour>
      <point x="284.4" y="1178" type="line"/>
      <point x="405.36" y="1178" type="line"/>
      <point x="576.24" y="1394" type="line"/>
      <point x="747.12" y="1178" type="line"/>
      <point x="877.76" y="1178" type="line"/>
      <point x="654" y="1502" type="line"/>
      <point x="503.28" y="1502" type="line"/>
    </contour>
    <contour>
      <point x="272.88" y="490" type="curve"/>
      <point x="270.96" y="506"/>
      <point x="270" y="525"/>
      <point x="270" y="539" type="curve" smooth="yes"/>
      <point x="270" y="786"/>
      <point x="438" y="907"/>
      <point x="597.36" y="907" type="curve" smooth="yes"/>
      <point x="713.52" y="907"/>
      <point x="779.76" y="846"/>
      <point x="779.76" y="755" type="curve" smooth="yes"/>
      <point x="779.76" y="594"/>
      <point x="568.56" y="534"/>
    </contour>
  </outline>
</glyph>
<glyph name="igrave" format="1">
  <advance width="500"/>
  <unicode hex="00EC"/>
  <outline>
    <contour>
      <point x="431.661" y="-5" type="curve" smooth="yes"/>
      <point x="478.661" y="-5"/>
      <point x="547.661" y="10"/>
      <point x="597.661" y="30" type="curve"/>
      <point x="577.661" y="141" type="line"/>
      <point x="542.661" y="128"/>
      <point x="484.661" y="118"/>
      <point x="454.661" y="118" type="curve" smooth="yes"/>
      <point x="386.661" y="118"/>
      <point x="330.55" y="143"/>
      <point x="330.55" y="283" type="curve" smooth="yes"/>
      <point x="323.95" y="1026" type="line"/>
      <point x="165.55" y="1026" type="line"/>
      <point x="165.55" y="278" type="line" smooth="yes"/>
      <point x="165.55" y="67"/>
      <point x="290.55" y="-5"/>
    </contour>
    <contour>
      <point x="213.55" y="1172" type="line"/>
      <point x="337.39" y="1172" type="line"/>
      <point x="99" y="1492" type="line"/>
      <point x="-115" y="1492" type="line"/>
    </contour>
  </outline>
</glyph>
<glyph name="icircumflex" format="1">
  <advance width="502"/>
  <unicode hex="00EE"/>
  <outline>
    <contour>
      <point x="433.11" y="-5" type="curve" smooth="yes"/>
      <point x="480.11" y="-5"/>
      <point x="549.11" y="10"/>
      <point x="599.11" y="30" type="curve"/>
      <point x="579.11" y="141" type="line"/>
      <point x="544.11" y="128"/>
      <point x="486.11" y="118"/>
      <point x="456.11" y="118" type="curve" smooth="yes"/>
      <point x="388.11" y="118"/>
      <point x="332" y="143"/>
      <point x="332" y="283" type="curve" smooth="yes"/>
      <point x="331.23" y="1026" type="line"/>
      <point x="167" y="1026" type="line"/>
      <point x="167" y="278" type="line" smooth="yes"/>
      <point x="167" y="67"/>
      <point x="292" y="-5"/>
    </contour>
    <contour>
      <point x="-57" y="1173" type="line"/>
      <point x="69" y="1173" type="line"/>
      <point x="246.687" y="1389" type="line"/>
      <point x="424.11" y="1173" type="line"/>
      <point x="556.11" y="1173" type="line"/>
      <point x="327.251" y="1497" type="line"/>
      <point x="171" y="1497" type="line"/>
    </contour>
  </outline>
</glyph>
<glyph name="eth" format="1">
  <advance width="1163"/>
  <unicode hex="00F0"/>
  <outline>
    <contour>
      <point x="568.32" y="-23" type="curve" smooth="yes"/>
      <point x="646.08" y="-23"/>
      <point x="715.2" y="-8"/>
      <point x="776.64" y="22" type="curve" smooth="yes"/>
      <point x="979.84" y="121"/>
      <point x="1066.84" y="361"/>
      <point x="1066.84" y="672" type="curve" smooth="yes"/>
      <point x="1066.84" y="805"/>
      <point x="1048.84" y="921"/>
      <point x="1018.84" y="1026" type="curve"/>
      <point x="1163.84" y="1026" type="line"/>
      <point x="1163.84" y="1163" type="line"/>
      <point x="966.84" y="1163" type="line"/>
      <point x="893.84" y="1315"/>
      <point x="790.08" y="1428"/>
      <point x="637.44" y="1490" type="curve"/>
      <point x="561.6" y="1406" type="line"/>
      <point x="667.2" y="1344"/>
      <point x="745.92" y="1271"/>
      <point x="803.52" y="1163" type="curve"/>
      <point x="605.76" y="1163" type="line"/>
      <point x="605.76" y="1026" type="line"/>
      <point x="857.28" y="1026" type="line"/>
      <point x="880.32" y="937"/>
      <point x="890.88" y="847"/>
      <point x="891.84" y="733" type="curve"/>
      <point x="891.84" y="723" type="line"/>
      <point x="822.72" y="838"/>
      <point x="706.56" y="897"/>
      <point x="533.76" y="897" type="curve" smooth="yes"/>
      <point x="466.56" y="897"/>
      <point x="406.08" y="886"/>
      <point x="352.32" y="864" type="curve" smooth="yes"/>
      <point x="199" y="802"/>
      <point x="88" y="662"/>
      <point x="88" y="446" type="curve" smooth="yes"/>
      <point x="88" y="380"/>
      <point x="99" y="318"/>
      <point x="122" y="261" type="curve" smooth="yes"/>
      <point x="189" y="93"/>
      <point x="343.68" y="-23"/>
    </contour>
    <contour>
      <point x="560.64" y="118" type="curve" smooth="yes"/>
      <point x="515.52" y="118"/>
      <point x="475.2" y="126"/>
      <point x="438.72" y="142" type="curve" smooth="yes"/>
      <point x="336" y="188"/>
      <point x="264" y="291"/>
      <point x="264" y="441" type="curve" smooth="yes"/>
      <point x="264" y="638"/>
      <point x="368.64" y="757"/>
      <point x="559.68" y="757" type="curve" smooth="yes"/>
      <point x="722.88" y="757"/>
      <point x="835.2" y="664"/>
      <point x="877.44" y="536" type="curve"/>
      <point x="877.44" y="512" type="line" smooth="yes"/>
      <point x="877.44" y="290"/>
      <point x="776.64" y="118"/>
    </contour>
  </outline>
</glyph>
<glyph name="ntilde" format="1">
  <advance width="1226"/>
  <unicode hex="00F1"/>
  <outline>
    <contour>
      <point x="1134.08" y="-19" type="curve"/>
      <point x="1150.08" y="119" type="line"/>
      <point x="1026.08" y="95"/>
      <point x="1033.08" y="167"/>
      <point x="1034.08" y="320" type="curve" smooth="yes"/>
      <point x="1036.08" y="565" type="line" smooth="yes"/>
      <point x="1039.08" y="903"/>
      <point x="922.08" y="1048"/>
      <point x="697.24" y="1048" type="curve" smooth="yes"/>
      <point x="540.76" y="1048"/>
      <point x="386.2" y="969"/>
      <point x="328" y="851" type="curve"/>
      <point x="318" y="917"/>
      <point x="285" y="971"/>
      <point x="249" y="1026" type="curve"/>
      <point x="84" y="974" type="line"/>
      <point x="130" y="897"/>
      <point x="179" y="815"/>
      <point x="179" y="699" type="curve" smooth="yes"/>
      <point x="179" y="0" type="line"/>
      <point x="343" y="0" type="line"/>
      <point x="343" y="565" type="line"/>
      <point x="357.4" y="804"/>
      <point x="524.44" y="907"/>
      <point x="663.64" y="907" type="curve" smooth="yes"/>
      <point x="811.48" y="907"/>
      <point x="871.08" y="804"/>
      <point x="871.08" y="562" type="curve"/>
      <point x="869.08" y="284" type="line" smooth="yes"/>
      <point x="867.16" y="48"/>
      <point x="916.08" y="-51"/>
    </contour>
    <contour>
      <point x="354.52" y="1203" type="curve"/>
      <point x="455.32" y="1203" type="line"/>
      <point x="462.04" y="1260"/>
      <point x="490.84" y="1288"/>
      <point x="542.68" y="1288" type="curve" smooth="yes"/>
      <point x="633.88" y="1288"/>
      <point x="693.4" y="1220"/>
      <point x="785.56" y="1220" type="curve" smooth="yes"/>
      <point x="906.08" y="1220"/>
      <point x="964.08" y="1322"/>
      <point x="977.08" y="1435" type="curve"/>
      <point x="869.08" y="1435" type="line"/>
      <point x="862.36" y="1384"/>
      <point x="836.44" y="1345"/>
      <point x="785.56" y="1345" type="curve" smooth="yes"/>
      <point x="767.32" y="1345"/>
      <point x="748.12" y="1349"/>
      <point x="728.92" y="1356" type="curve" smooth="yes"/>
      <point x="673.24" y="1377"/>
      <point x="618.52" y="1413"/>
      <point x="545.56" y="1413" type="curve" smooth="yes"/>
      <point x="426.52" y="1413"/>
      <point x="364.12" y="1319"/>
    </contour>
  </outline>
</glyph>
<glyph name="ograve" format="1">
  <advance width="1201"/>
  <unicode hex="00F2"/>
  <outline>
    <contour>
      <point x="548.08" y="1173" type="line"/>
      <point x="671.92" y="1173" type="line"/>
      <point x="434.8" y="1493" type="line"/>
      <point x="228" y="1493" type="line"/>
    </contour>
    <contour>
      <point x="607.6" y="116" type="curve" smooth="yes"/>
      <point x="400.24" y="116"/>
      <point x="262" y="273"/>
      <point x="262" y="509" type="curve" smooth="yes"/>
      <point x="262" y="748"/>
      <point x="400.24" y="907"/>
      <point x="606.64" y="907" type="curve" smooth="yes"/>
      <point x="809.2" y="907"/>
      <point x="943.6" y="749"/>
      <point x="943.6" y="511" type="curve" smooth="yes"/>
      <point x="943.6" y="274"/>
      <point x="809.2" y="116"/>
    </contour>
    <contour>
      <point x="607.6" y="-22" type="curve" smooth="yes"/>
      <point x="907.12" y="-22"/>
      <point x="1113.6" y="192"/>
      <point x="1113.6" y="513" type="curve" smooth="yes"/>
      <point x="1113.6" y="834"/>
      <point x="907.12" y="1048"/>
      <point x="606.64" y="1048" type="curve" smooth="yes"/>
      <point x="302.32" y="1048"/>
      <point x="92" y="833"/>
      <point x="92" y="511" type="curve" smooth="yes"/>
      <point x="92" y="191"/>
      <point x="302.32" y="-22"/>
    </contour>
  </outline>
</glyph>
<glyph name="oacute" format="1">
  <advance width="1201"/>
  <unicode hex="00F3"/>
  <outline>
    <contour>
      <point x="607.6" y="116" type="curve" smooth="yes"/>
      <point x="400.24" y="116"/>
      <point x="262" y="273"/>
      <point x="262" y="509" type="curve" smooth="yes"/>
      <point x="262" y="748"/>
      <point x="400.24" y="907"/>
      <point x="606.64" y="907" type="curve" smooth="yes"/>
      <point x="809.2" y="907"/>
      <point x="943.6" y="749"/>
      <point x="943.6" y="511" type="curve" smooth="yes"/>
      <point x="943.6" y="274"/>
      <point x="809.2" y="116"/>
    </contour>
    <contour>
      <point x="607.6" y="-22" type="curve" smooth="yes"/>
      <point x="907.12" y="-22"/>
      <point x="1113.6" y="192"/>
      <point x="1113.6" y="513" type="curve" smooth="yes"/>
      <point x="1113.6" y="834"/>
      <point x="907.12" y="1048"/>
      <point x="606.64" y="1048" type="curve" smooth="yes"/>
      <point x="302.32" y="1048"/>
      <point x="92" y="833"/>
      <point x="92" y="511" type="curve" smooth="yes"/>
      <point x="92" y="191"/>
      <point x="302.32" y="-22"/>
    </contour>
    <contour>
      <point x="547.12" y="1173" type="line"/>
      <point x="671.92" y="1173" type="line"/>
      <point x="968.6" y="1493" type="line"/>
      <point x="764.08" y="1493" type="line"/>
    </contour>
  </outline>
</glyph>
<glyph name="ocircumflex" format="1">
  <advance width="1201"/>
  <unicode hex="00F4"/>
  <outline>
    <contour>
      <point x="314.8" y="1173" type="line"/>
      <point x="435.76" y="1173" type="line"/>
      <point x="606.64" y="1389" type="line"/>
      <point x="777.52" y="1173" type="line"/>
      <point x="904.24" y="1173" type="line"/>
      <point x="684.4" y="1497" type="line"/>
      <point x="533.68" y="1497" type="line"/>
    </contour>
    <contour>
      <point x="607.6" y="116" type="curve" smooth="yes"/>
      <point x="400.24" y="116"/>
      <point x="262" y="273"/>
      <point x="262" y="509" type="curve" smooth="yes"/>
      <point x="262" y="748"/>
      <point x="400.24" y="907"/>
      <point x="606.64" y="907" type="curve" smooth="yes"/>
      <point x="809.2" y="907"/>
      <point x="943.6" y="749"/>
      <point x="943.6" y="511" type="curve" smooth="yes"/>
      <point x="943.6" y="274"/>
      <point x="809.2" y="116"/>
    </contour>
    <contour>
      <point x="607.6" y="-22" type="curve" smooth="yes"/>
      <point x="907.12" y="-22"/>
      <point x="1113.6" y="192"/>
      <point x="1113.6" y="513" type="curve" smooth="yes"/>
      <point x="1113.6" y="834"/>
      <point x="907.12" y="1048"/>
      <point x="606.64" y="1048" type="curve" smooth="yes"/>
      <point x="302.32" y="1048"/>
      <point x="92" y="833"/>
      <point x="92" y="511" type="curve" smooth="yes"/>
      <point x="92" y="191"/>
      <point x="302.32" y="-22"/>
    </contour>
  </outline>
</glyph>
<glyph name="otilde" format="1">
  <advance width="1201"/>
  <unicode hex="00F5"/>
  <outline>
    <contour>
      <point x="297.52" y="1203" type="curve"/>
      <point x="398.32" y="1203" type="line"/>
      <point x="405.04" y="1260"/>
      <point x="433.84" y="1288"/>
      <point x="485.68" y="1288" type="curve" smooth="yes"/>
      <point x="576.88" y="1288"/>
      <point x="636.4" y="1220"/>
      <point x="728.56" y="1220" type="curve" smooth="yes"/>
      <point x="847.6" y="1220"/>
      <point x="903.28" y="1322"/>
      <point x="915.76" y="1435" type="curve"/>
      <point x="812.08" y="1435" type="line"/>
      <point x="805.36" y="1384"/>
      <point x="779.44" y="1345"/>
      <point x="728.56" y="1345" type="curve" smooth="yes"/>
      <point x="710.32" y="1345"/>
      <point x="691.12" y="1349"/>
      <point x="671.92" y="1356" type="curve" smooth="yes"/>
      <point x="616.24" y="1377"/>
      <point x="561.52" y="1413"/>
      <point x="488.56" y="1413" type="curve" smooth="yes"/>
      <point x="369.52" y="1413"/>
      <point x="307.12" y="1319"/>
    </contour>
    <contour>
      <point x="607.6" y="116" type="curve" smooth="yes"/>
      <point x="400.24" y="116"/>
      <point x="262" y="273"/>
      <point x="262" y="509" type="curve" smooth="yes"/>
      <point x="262" y="748"/>
      <point x="400.24" y="907"/>
      <point x="606.64" y="907" type="curve" smooth="yes"/>
      <point x="809.2" y="907"/>
      <point x="943.6" y="749"/>
      <point x="943.6" y="511" type="curve" smooth="yes"/>
      <point x="943.6" y="274"/>
      <point x="809.2" y="116"/>
    </contour>
    <contour>
      <point x="607.6" y="-22" type="curve" smooth="yes"/>
      <point x="907.12" y="-22"/>
      <point x="1113.6" y="192"/>
      <point x="1113.6" y="513" type="curve" smooth="yes"/>
      <point x="1113.6" y="834"/>
      <point x="907.12" y="1048"/>
      <point x="606.64" y="1048" type="curve" smooth="yes"/>
      <point x="302.32" y="1048"/>
      <point x="92" y="833"/>
      <point x="92" y="511" type="curve" smooth="yes"/>
      <point x="92" y="191"/>
      <point x="302.32" y="-22"/>
    </contour>
  </outline>
</glyph>
<glyph name="odieresis" format="1">
  <advance width="1201"/>
  <unicode hex="00F6"/>
  <outline>
    <contour>
      <point x="371.44" y="1173" type="line"/>
      <point x="528.88" y="1173" type="line"/>
      <point x="528.88" y="1336" type="line"/>
      <point x="371.44" y="1336" type="line"/>
    </contour>
    <contour>
      <point x="607.6" y="116" type="curve" smooth="yes"/>
      <point x="400.24" y="116"/>
      <point x="262" y="273"/>
      <point x="262" y="509" type="curve" smooth="yes"/>
      <point x="262" y="748"/>
      <point x="400.24" y="907"/>
      <point x="606.64" y="907" type="curve" smooth="yes"/>
      <point x="809.2" y="907"/>
      <point x="943.6" y="749"/>
      <point x="943.6" y="511" type="curve" smooth="yes"/>
      <point x="943.6" y="274"/>
      <point x="809.2" y="116"/>
    </contour>
    <contour>
      <point x="607.6" y="-22" type="curve" smooth="yes"/>
      <point x="907.12" y="-22"/>
      <point x="1113.6" y="192"/>
      <point x="1113.6" y="513" type="curve" smooth="yes"/>
      <point x="1113.6" y="834"/>
      <point x="907.12" y="1048"/>
      <point x="606.64" y="1048" type="curve" smooth="yes"/>
      <point x="302.32" y="1048"/>
      <point x="92" y="833"/>
      <point x="92" y="511" type="curve" smooth="yes"/>
      <point x="92" y="191"/>
      <point x="302.32" y="-22"/>
    </contour>
    <contour>
      <point x="690.16" y="1173" type="line"/>
      <point x="847.6" y="1173" type="line"/>
      <point x="847.6" y="1336" type="line"/>
      <point x="690.16" y="1336" type="line"/>
    </contour>
  </outline>
</glyph>
<glyph name="divide" format="1">
  <advance width="1435"/>
  <unicode hex="00F7"/>
  <outline>
    <contour>
      <point x="611.99" y="873" type="line"/>
      <point x="820.31" y="873" type="line"/>
      <point x="820.31" y="1083" type="line"/>
      <point x="611.99" y="1083" type="line"/>
    </contour>
    <contour>
      <point x="198" y="485" type="line"/>
      <point x="1223.74" y="485" type="line"/>
      <point x="1223.74" y="624" type="line"/>
      <point x="198" y="624" type="line"/>
    </contour>
    <contour>
      <point x="611.99" y="21" type="line"/>
      <point x="820.31" y="21" type="line"/>
      <point x="820.31" y="231" type="line"/>
      <point x="611.99" y="231" type="line"/>
    </contour>
  </outline>
</glyph>
<glyph name="oslash" format="1">
  <advance width="1209"/>
  <unicode hex="00F8"/>
  <outline>
    <contour>
      <point x="342.64" y="-261" type="line"/>
      <point x="449.2" y="-1" type="line"/>
      <point x="498.16" y="-15"/>
      <point x="550.96" y="-22"/>
      <point x="607.6" y="-22" type="curve" smooth="yes"/>
      <point x="907.12" y="-22"/>
      <point x="1113.6" y="192"/>
      <point x="1113.6" y="513" type="curve" smooth="yes"/>
      <point x="1113.6" y="735"/>
      <point x="1013.6" y="906"/>
      <point x="853.36" y="990" type="curve"/>
      <point x="958.6" y="1245" type="line"/>
      <point x="859.12" y="1277" type="line"/>
      <point x="758.32" y="1028" type="line"/>
      <point x="711.28" y="1041"/>
      <point x="660.4" y="1048"/>
      <point x="606.64" y="1048" type="curve" smooth="yes"/>
      <point x="302.32" y="1048"/>
      <point x="92" y="833"/>
      <point x="92" y="511" type="curve" smooth="yes"/>
      <point x="92" y="290"/>
      <point x="192" y="121"/>
      <point x="355.12" y="37" type="curve"/>
      <point x="247" y="-229" type="line"/>
    </contour>
    <contour>
      <point x="411.76" y="175" type="line"/>
      <point x="317.68" y="241"/>
      <point x="262" y="359"/>
      <point x="262" y="509" type="curve" smooth="yes"/>
      <point x="262" y="748"/>
      <point x="400.24" y="907"/>
      <point x="606.64" y="907" type="curve" smooth="yes"/>
      <point x="641.2" y="907"/>
      <point x="673.84" y="903"/>
      <point x="703.6" y="894" type="curve"/>
    </contour>
    <contour>
      <point x="607.6" y="116" type="curve" smooth="yes"/>
      <point x="570.16" y="116"/>
      <point x="535.6" y="121"/>
      <point x="502.96" y="131" type="curve"/>
      <point x="795.76" y="849" type="line"/>
      <point x="887.92" y="783"/>
      <point x="943.6" y="663"/>
      <point x="943.6" y="511" type="curve" smooth="yes"/>
      <point x="943.6" y="274"/>
      <point x="809.2" y="116"/>
    </contour>
  </outline>
</glyph>
<glyph name="uacute" format="1">
  <advance width="1177"/>
  <unicode hex="00FA"/>
  <outline>
    <contour>
      <point x="513.52" y="-22" type="curve" smooth="yes"/>
      <point x="665.2" y="-22"/>
      <point x="778.48" y="40"/>
      <point x="853.4" y="164" type="curve"/>
      <point x="865.4" y="43"/>
      <point x="960.4" y="-33"/>
      <point x="1117.4" y="-3" type="curve"/>
      <point x="1133.4" y="135" type="line"/>
      <point x="1041.4" y="115"/>
      <point x="992.4" y="156"/>
      <point x="992.4" y="302" type="curve" smooth="yes"/>
      <point x="992.4" y="1026" type="line"/>
      <point x="828.4" y="1026" type="line"/>
      <point x="828.4" y="427" type="line" smooth="yes"/>
      <point x="828.4" y="231"/>
      <point x="695.92" y="116"/>
      <point x="537.52" y="116" type="curve" smooth="yes"/>
      <point x="421.36" y="116"/>
      <point x="305" y="169"/>
      <point x="310" y="365" type="curve" smooth="yes"/>
      <point x="315.76" y="595" type="line" smooth="yes"/>
      <point x="324.4" y="941"/>
      <point x="257" y="1026"/>
      <point x="257" y="1026" type="curve"/>
      <point x="92" y="1000" type="line"/>
      <point x="92" y="1000"/>
      <point x="160" y="901"/>
      <point x="151" y="582" type="curve" smooth="yes"/>
      <point x="145" y="365" type="line" smooth="yes"/>
      <point x="137" y="80"/>
      <point x="327.28" y="-22"/>
    </contour>
    <contour>
      <point x="517.36" y="1173" type="line"/>
      <point x="642.16" y="1173" type="line"/>
      <point x="942.4" y="1493" type="line"/>
      <point x="734.32" y="1493" type="line"/>
    </contour>
  </outline>
</glyph>
<glyph name="thorn" format="1">
  <advance width="1213"/>
  <unicode hex="00FE"/>
  <outline>
    <contour>
      <point x="158" y="-427" type="line"/>
      <point x="323" y="-427" type="line"/>
      <point x="323" y="135" type="line"/>
      <point x="405.56" y="30"/>
      <point x="515.96" y="-23"/>
      <point x="654.2" y="-23" type="curve" smooth="yes"/>
      <point x="730.04" y="-23"/>
      <point x="795.32" y="-8"/>
      <point x="851.96" y="22" type="curve" smooth="yes"/>
      <point x="1011.4" y="106"/>
      <point x="1113.4" y="284"/>
      <point x="1113.4" y="527" type="curve" smooth="yes"/>
      <point x="1113.4" y="598"/>
      <point x="1103.4" y="664"/>
      <point x="1084.4" y="728" type="curve" smooth="yes"/>
      <point x="1028.4" y="916"/>
      <point x="888.44" y="1051"/>
      <point x="654.2" y="1051" type="curve" smooth="yes"/>
      <point x="499.64" y="1051"/>
      <point x="395.96" y="982"/>
      <point x="324.92" y="882" type="curve"/>
      <point x="324.92" y="1455" type="line"/>
      <point x="158" y="1455" type="line"/>
    </contour>
    <contour>
      <point x="631.16" y="109" type="curve" smooth="yes"/>
      <point x="581.24" y="109"/>
      <point x="537.08" y="119"/>
      <point x="498.68" y="138" type="curve" smooth="yes"/>
      <point x="386.36" y="195"/>
      <point x="323" y="321"/>
      <point x="323" y="494" type="curve" smooth="yes"/>
      <point x="323" y="732"/>
      <point x="407.48" y="917"/>
      <point x="636.92" y="917" type="curve" smooth="yes"/>
      <point x="852.92" y="917"/>
      <point x="937.4" y="745"/>
      <point x="937.4" y="521" type="curve" smooth="yes"/>
      <point x="937.4" y="296"/>
      <point x="848.12" y="109"/>
    </contour>
  </outline>
</glyph>
<glyph name="ydieresis" format="1">
  <advance width="1164"/>
  <unicode hex="00FF"/>
  <outline>
    <contour>
      <point x="518.8" y="-494" type="curve" smooth="yes"/>
      <point x="805.84" y="-494"/>
      <point x="1004.4" y="-306"/>
      <point x="1004.4" y="-23" type="curve" smooth="yes"/>
      <point x="1004.4" y="302" type="line"/>
      <point x="1004.4" y="1026" type="line"/>
      <point x="840.4" y="1026" type="line"/>
      <point x="840.4" y="427" type="line" smooth="yes"/>
      <point x="840.4" y="231"/>
      <point x="707.92" y="116"/>
      <point x="549.52" y="116" type="curve" smooth="yes"/>
      <point x="433.36" y="116"/>
      <point x="317" y="169"/>
      <point x="322" y="365" type="curve" smooth="yes"/>
      <point x="327.76" y="595" type="line" smooth="yes"/>
      <point x="336.4" y="941"/>
      <point x="269" y="1026"/>
      <point x="269" y="1026" type="curve"/>
      <point x="104" y="1000" type="line"/>
      <point x="104" y="1000"/>
      <point x="172" y="901"/>
      <point x="163" y="582" type="curve" smooth="yes"/>
      <point x="157" y="365" type="line" smooth="yes"/>
      <point x="149" y="80"/>
      <point x="339.28" y="-22"/>
      <point x="525.52" y="-22" type="curve" smooth="yes"/>
      <point x="661.84" y="-22"/>
      <point x="766.48" y="28"/>
      <point x="840.4" y="128" type="curve"/>
      <point x="840.4" y="-44" type="line" smooth="yes"/>
      <point x="840.4" y="-232"/>
      <point x="706" y="-357"/>
      <point x="505.36" y="-357" type="curve" smooth="yes"/>
      <point x="419.92" y="-357"/>
      <point x="302" y="-326"/>
      <point x="210" y="-280" type="curve"/>
      <point x="191" y="-433" type="line"/>
      <point x="292" y="-470"/>
      <point x="421.84" y="-494"/>
    </contour>
    <contour>
      <point x="350.8" y="1173" type="line"/>
      <point x="508.24" y="1173" type="line"/>
      <point x="508.24" y="1336" type="line"/>
      <point x="350.8" y="1336" type="line"/>
    </contour>
    <contour>
      <point x="669.52" y="1173" type="line"/>
      <point x="826.96" y="1173" type="line"/>
      <point x="826.96" y="1336" type="line"/>
      <point x="669.52" y="1336" type="line"/>
    </contour>
  </outline>
</glyph>
<glyph name="Abreve" format="1">
  <advance width="1384"/>
  <unicode hex="0102"/>
  <outline>
    <contour>
      <point x="13" y="0" type="line"/>
      <point x="199" y="0" type="line"/>
      <point x="348.76" y="397" type="line"/>
      <point x="1018.84" y="397" type="line"/>
      <point x="1175.32" y="0" type="line"/>
      <point x="1366.32" y="0" type="line"/>
      <point x="777.88" y="1456" type="line"/>
      <point x="600.28" y="1456" type="line"/>
    </contour>
    <contour>
      <point x="694.36" y="1648" type="curve" smooth="yes"/>
      <point x="853.72" y="1648"/>
      <point x="950.68" y="1730"/>
      <point x="963.16" y="1884" type="curve"/>
      <point x="880.6" y="1884" type="line"/>
      <point x="861.4" y="1800"/>
      <point x="785.56" y="1755"/>
      <point x="687.64" y="1755" type="curve" smooth="yes"/>
      <point x="589.72" y="1755"/>
      <point x="519.64" y="1796"/>
      <point x="505.24" y="1884" type="curve"/>
      <point x="421.72" y="1884" type="line"/>
      <point x="434.2" y="1724"/>
      <point x="530.2" y="1648"/>
    </contour>
    <contour>
      <point x="401.56" y="545" type="line"/>
      <point x="636.76" y="1149" type="line"/>
      <point x="651.16" y="1191"/>
      <point x="672.28" y="1252"/>
      <point x="686.68" y="1298" type="curve"/>
      <point x="700.12" y="1252"/>
      <point x="720.28" y="1192"/>
      <point x="737.56" y="1150" type="curve"/>
      <point x="962.2" y="545" type="line"/>
    </contour>
  </outline>
</glyph>
<glyph name="abreve" format="1">
  <advance width="1181"/>
  <unicode hex="0103"/>
  <outline>
    <contour>
      <point x="496.16" y="-22" type="curve" smooth="yes"/>
      <point x="647.84" y="-22"/>
      <point x="791.84" y="53"/>
      <point x="858.04" y="166" type="curve"/>
      <point x="881.04" y="64"/>
      <point x="974.04" y="-4"/>
      <point x="1090.04" y="-4" type="curve"/>
      <point x="1124.04" y="139" type="line"/>
      <point x="1049.04" y="139"/>
      <point x="999.04" y="198"/>
      <point x="999.04" y="286" type="curve" smooth="yes"/>
      <point x="999.04" y="962" type="line"/>
      <point x="919.04" y="1014"/>
      <point x="778.4" y="1048"/>
      <point x="649.76" y="1048" type="curve" smooth="yes"/>
      <point x="317.6" y="1048"/>
      <point x="90" y="804"/>
      <point x="90" y="438" type="curve" smooth="yes"/>
      <point x="90" y="162"/>
      <point x="256" y="-22"/>
    </contour>
    <contour>
      <point x="617.12" y="1218" type="curve" smooth="yes"/>
      <point x="776.48" y="1218"/>
      <point x="875.04" y="1300"/>
      <point x="888.04" y="1454" type="curve"/>
      <point x="803.36" y="1454" type="line"/>
      <point x="784.16" y="1370"/>
      <point x="708.32" y="1325"/>
      <point x="610.4" y="1325" type="curve" smooth="yes"/>
      <point x="512.48" y="1325"/>
      <point x="442.4" y="1366"/>
      <point x="428" y="1454" type="curve"/>
      <point x="344.48" y="1454" type="line"/>
      <point x="356.96" y="1294"/>
      <point x="452.96" y="1218"/>
    </contour>
    <contour>
      <point x="520.16" y="116" type="curve" smooth="yes"/>
      <point x="363.68" y="116"/>
      <point x="260" y="249"/>
      <point x="260" y="448" type="curve" smooth="yes"/>
      <point x="260" y="723"/>
      <point x="414.56" y="907"/>
      <point x="646.88" y="907" type="curve" smooth="yes"/>
      <point x="719.84" y="907"/>
      <point x="794.72" y="893"/>
      <point x="835.04" y="872" type="curve"/>
      <point x="835.04" y="453" type="line" smooth="yes"/>
      <point x="835.04" y="261"/>
      <point x="709.28" y="116"/>
    </contour>
  </outline>
</glyph>
<glyph name="Aogonek" format="1">
  <advance width="1388"/>
  <unicode hex="0104"/>
  <outline>
    <contour>
      <point x="1180.9" y="-390" type="curve" smooth="yes"/>
      <point x="1244.9" y="-390"/>
      <point x="1311.9" y="-380"/>
      <point x="1357.9" y="-361" type="curve"/>
      <point x="1357.9" y="-250" type="line"/>
      <point x="1311.9" y="-268"/>
      <point x="1267.9" y="-281"/>
      <point x="1203.9" y="-281" type="curve" smooth="yes"/>
      <point x="1152.9" y="-281"/>
      <point x="1104.75" y="-250"/>
      <point x="1104.75" y="-199" type="curve" smooth="yes"/>
      <point x="1104.75" y="-183"/>
      <point x="1109.55" y="-167"/>
      <point x="1119.15" y="-151" type="curve" smooth="yes"/>
      <point x="1160.9" y="-86"/>
      <point x="1237.9" y="-42"/>
      <point x="1306.9" y="0" type="curve"/>
      <point x="1370.9" y="0" type="line"/>
      <point x="780.27" y="1456" type="line"/>
      <point x="602.67" y="1456" type="line"/>
      <point x="13" y="0" type="line"/>
      <point x="199" y="0" type="line"/>
      <point x="351.15" y="397" type="line"/>
      <point x="1021.23" y="397" type="line"/>
      <point x="1175.9" y="11" type="line"/>
      <point x="1122.99" y="-15"/>
      <point x="1071.15" y="-50"/>
      <point x="1033.71" y="-89" type="curve" smooth="yes"/>
      <point x="1002.03" y="-122"/>
      <point x="969.39" y="-167"/>
      <point x="969.39" y="-225" type="curve" smooth="yes"/>
      <point x="969.39" y="-252"/>
      <point x="975.15" y="-276"/>
      <point x="985.71" y="-296" type="curve" smooth="yes"/>
      <point x="1018.35" y="-357"/>
      <point x="1088.43" y="-390"/>
    </contour>
    <contour>
      <point x="403.95" y="545" type="line"/>
      <point x="639.15" y="1149" type="line"/>
      <point x="653.55" y="1191"/>
      <point x="674.67" y="1252"/>
      <point x="689.07" y="1298" type="curve"/>
      <point x="702.51" y="1252"/>
      <point x="722.67" y="1192"/>
      <point x="739.95" y="1150" type="curve"/>
      <point x="964.59" y="545" type="line"/>
    </contour>
  </outline>
</glyph>
<glyph name="aogonek" format="1">
  <advance width="1181"/>
  <unicode hex="0105"/>
  <outline>
    <contour>
      <point x="988.04" y="-377" type="curve" smooth="yes"/>
      <point x="1052.04" y="-377"/>
      <point x="1119.04" y="-367"/>
      <point x="1165.04" y="-348" type="curve"/>
      <point x="1165.04" y="-237" type="line"/>
      <point x="1119.04" y="-255"/>
      <point x="1075.04" y="-268"/>
      <point x="1011.04" y="-268" type="curve" smooth="yes"/>
      <point x="960.04" y="-268"/>
      <point x="911.04" y="-237"/>
      <point x="911.04" y="-186" type="curve" smooth="yes"/>
      <point x="911.04" y="-170"/>
      <point x="916.04" y="-154"/>
      <point x="926.04" y="-138" type="curve" smooth="yes"/>
      <point x="962.04" y="-82"/>
      <point x="1025.04" y="-41"/>
      <point x="1086.04" y="-4" type="curve"/>
      <point x="1090.04" y="-4" type="line"/>
      <point x="1091.04" y="-1" type="line"/>
      <point x="1099.04" y="4"/>
      <point x="1106.04" y="8"/>
      <point x="1114.04" y="13" type="curve"/>
      <point x="1094.04" y="15" type="line"/>
      <point x="1124.04" y="139" type="line"/>
      <point x="1049.04" y="139"/>
      <point x="999.04" y="198"/>
      <point x="999.04" y="286" type="curve" smooth="yes"/>
      <point x="999.04" y="962" type="line"/>
      <point x="919.04" y="1014"/>
      <point x="778.4" y="1048"/>
      <point x="649.76" y="1048" type="curve" smooth="yes"/>
      <point x="317.6" y="1048"/>
      <point x="90" y="804"/>
      <point x="90" y="438" type="curve" smooth="yes"/>
      <point x="90" y="162"/>
      <point x="256" y="-22"/>
      <point x="496.16" y="-22" type="curve" smooth="yes"/>
      <point x="647.84" y="-22"/>
      <point x="791.84" y="53"/>
      <point x="858.04" y="166" type="curve"/>
      <point x="873.04" y="101"/>
      <point x="916.04" y="49"/>
      <point x="976.04" y="21" type="curve"/>
      <point x="925.04" y="-5"/>
      <point x="875.04" y="-38"/>
      <point x="837.04" y="-76" type="curve" smooth="yes"/>
      <point x="805.28" y="-109"/>
      <point x="772.64" y="-154"/>
      <point x="772.64" y="-212" type="curve" smooth="yes"/>
      <point x="772.64" y="-239"/>
      <point x="778.4" y="-263"/>
      <point x="788.96" y="-283" type="curve" smooth="yes"/>
      <point x="821.6" y="-344"/>
      <point x="894.04" y="-377"/>
    </contour>
    <contour>
      <point x="520.16" y="116" type="curve" smooth="yes"/>
      <point x="363.68" y="116"/>
      <point x="260" y="249"/>
      <point x="260" y="448" type="curve" smooth="yes"/>
      <point x="260" y="723"/>
      <point x="414.56" y="907"/>
      <point x="646.88" y="907" type="curve" smooth="yes"/>
      <point x="719.84" y="907"/>
      <point x="794.72" y="893"/>
      <point x="835.04" y="872" type="curve"/>
      <point x="835.04" y="453" type="line" smooth="yes"/>
      <point x="835.04" y="261"/>
      <point x="709.28" y="116"/>
    </contour>
  </outline>
</glyph>
